<?xml version="1.0" encoding="UTF-8" standalone="no"?>
<!-- Created with Inkscape (http://www.inkscape.org/) -->

<svg
   xmlns:dc="http://purl.org/dc/elements/1.1/"
   xmlns:cc="http://creativecommons.org/ns#"
   xmlns:rdf="http://www.w3.org/1999/02/22-rdf-syntax-ns#"
   xmlns:svg="http://www.w3.org/2000/svg"
   xmlns="http://www.w3.org/2000/svg"
   xmlns:sodipodi="http://sodipodi.sourceforge.net/DTD/sodipodi-0.dtd"
   xmlns:inkscape="http://www.inkscape.org/namespaces/inkscape"
   width="210mm"
   height="297mm"
   viewBox="0 0 744.09448819 1052.3622047"
   id="svg2"
   version="1.1"
   inkscape:version="0.91 r13725"
   sodipodi:docname="bombs.svg">
  <defs
     id="defs4" />
  <sodipodi:namedview
     id="base"
     pagecolor="#ffffff"
     bordercolor="#666666"
     borderopacity="1.0"
     inkscape:pageopacity="0.0"
     inkscape:pageshadow="2"
     inkscape:zoom="0.12374369"
     inkscape:cx="-239.69418"
     inkscape:cy="1378.1016"
     inkscape:document-units="px"
     inkscape:current-layer="layer1"
     showgrid="false"
     inkscape:window-width="1221"
     inkscape:window-height="1438"
     inkscape:window-x="0"
     inkscape:window-y="0"
     inkscape:window-maximized="0" />
  <metadata
     id="metadata7">
    <rdf:RDF>
      <cc:Work
         rdf:about="">
        <dc:format>image/svg+xml</dc:format>
        <dc:type
           rdf:resource="http://purl.org/dc/dcmitype/StillImage" />
        <dc:title></dc:title>
      </cc:Work>
    </rdf:RDF>
  </metadata>
  <g
     inkscape:label="Layer 1"
     inkscape:groupmode="layer"
     id="layer1">
    <path
       style="fill:#000000;fill-opacity:1;stroke:none;stroke-width:5;stroke-linecap:round;stroke-linejoin:round;stroke-miterlimit:4;stroke-dasharray:5, 10;stroke-dashoffset:0;stroke-opacity:0.21568627"
       id="path4136"
       d="m -855.90076,672.17304 c -3.26397,0.47802 -6.55805,0.70325 -9.84006,1.01993 -5.63256,0.37157 -11.08063,1.70567 -16.44413,3.39226 -7.91089,2.61395 -15.17793,6.71289 -22.19156,11.14043 -7.71414,4.95827 -14.69807,10.90965 -21.2851,17.26181 -6.01784,5.84723 -11.07195,12.53653 -15.66372,19.53071 -4.22628,6.53845 -7.62715,13.53615 -10.48971,20.76203 -2.81744,7.06514 -4.29358,14.49594 -5.27258,22.00524 -1.0274,7.97747 -0.86336,16.0251 -0.27405,24.02555 0.63529,8.20416 2.43283,16.22352 4.5965,24.13963 2.072,7.98885 5.51545,15.44476 9.55898,22.60108 4.10697,7.17391 9.26462,13.59961 14.97515,19.54257 6.28328,6.24513 13.85784,10.7808 21.59899,14.95223 8.78207,4.60818 18.19579,7.74392 27.71264,10.42116 10.08859,2.79674 20.50165,3.60109 30.92313,3.57578 9.11383,-0.20787 17.99361,-2.00506 26.75664,-4.37618 9.57996,-2.6969 18.55937,-6.96285 27.29942,-11.64683 7.89463,-4.35238 15.29841,-9.47969 22.32649,-15.10813 6.29264,-5.1023 11.85368,-10.98254 17.0683,-17.15914 4.77532,-5.71952 8.61634,-12.09371 12.08858,-18.66095 3.27322,-6.18458 5.63368,-12.76977 7.5257,-19.48908 1.70339,-6.076 2.43357,-12.32958 2.74572,-18.61191 0.18006,-5.8558 -0.64135,-11.64839 -1.76512,-17.37598 -1.18628,-5.63281 -3.12908,-11.05609 -5.18714,-16.41774 -1.87301,-5.007 -4.48749,-9.6516 -7.46741,-14.07067 -2.89375,-4.2117 -6.33323,-7.98948 -10.01898,-11.51264 -3.67849,-3.57271 -7.85823,-6.53016 -12.11341,-9.36202 -4.48134,-2.99725 -9.13931,-5.71982 -13.86759,-8.30573 -4.90488,-2.66026 -9.97756,-4.98011 -15.03344,-7.33243 -5.4022,-2.47115 -10.83826,-4.86707 -16.34019,-7.10783 -5.43123,-2.14216 -10.86975,-4.26475 -16.29679,-6.41751 -5.0205,-2.0249 -10.14511,-3.76581 -15.3214,-5.34339 -0.74082,-0.40956 5.05124,-10.88631 5.79206,-10.47675 l 0,0 c 5.39045,1.71404 10.72571,3.59224 15.97337,5.70707 5.48052,2.1556 10.98163,4.25888 16.44139,6.46713 5.62418,2.34386 11.19624,4.81107 16.71789,7.38751 5.25163,2.46818 10.49463,4.96051 15.57267,7.77476 4.94931,2.78349 9.83322,5.68971 14.52197,8.8974 4.70491,3.22476 9.27627,6.6499 13.33134,10.68204 4.11747,4.09063 7.97149,8.44618 11.19426,13.28908 3.31915,5.07987 6.25752,10.39321 8.3794,16.09611 2.24761,5.91292 4.32491,11.9089 5.60041,18.11814 1.25232,6.52899 2.16538,13.13098 1.94533,19.7998 -0.3404,7.03219 -1.13383,14.03608 -2.99181,20.849 -2.03469,7.42794 -4.57336,14.71699 -8.13858,21.56543 -3.76169,7.23016 -7.9247,14.25472 -13.08622,20.59155 -5.56054,6.74495 -11.50042,13.1687 -18.2318,18.77505 -7.43372,6.1239 -15.2742,11.71581 -23.65608,16.48376 -9.3591,5.16551 -18.96356,9.92263 -29.2498,12.97686 -11.65071,3.34369 -23.52289,5.76289 -35.72289,5.40267 -11.34596,-0.23319 -22.65525,-1.38921 -33.57665,-4.64906 -10.18588,-3.05176 -20.24671,-6.60909 -29.59453,-11.74906 -8.5831,-4.82525 -16.87965,-10.18705 -23.7398,-17.34331 -6.19303,-6.65465 -11.81688,-13.80206 -16.28473,-21.74919 -4.35828,-7.93253 -8.05821,-16.18341 -10.33714,-24.97629 -2.31632,-8.56449 -4.19911,-17.2478 -4.87228,-26.11626 -0.60846,-8.69474 -0.771,-17.4369 0.35146,-26.10357 1.10158,-8.33282 2.75818,-16.56707 5.83431,-24.42568 3.05565,-7.89724 6.68749,-15.55508 11.23869,-22.71373 4.94072,-7.66682 10.36809,-15.02144 16.84667,-21.47817 7.00966,-6.92806 14.45205,-13.43408 22.72369,-18.83412 7.71937,-4.97704 15.75257,-9.52812 24.48541,-12.4961 6.0528,-1.96753 12.20984,-3.62263 18.59058,-4.05211 3.22155,-0.261 6.4433,-0.48251 9.67126,-0.64809 0.76904,-0.28045 4.73533,10.59542 3.96629,10.87588 z"
       inkscape:connector-curvature="0"
       inkscape:export-xdpi="54.722099"
       inkscape:export-ydpi="54.722099" />
    <path
       style="fill:#000000;fill-opacity:1;stroke:none;stroke-width:5;stroke-linecap:round;stroke-linejoin:round;stroke-miterlimit:4;stroke-dasharray:5, 10;stroke-dashoffset:0;stroke-opacity:0.21568627"
       id="path4138"
       d="m -863.97244,655.22063 c 0.469,-1.21511 0.76168,-2.48733 1.03963,-3.75672 0.40584,-1.942 0.78228,-3.88864 1.109,-5.8455 0.4109,-2.55503 0.7018,-5.12671 0.95859,-7.70109 0.28801,-3.10933 0.5278,-6.22336 0.90743,-9.3232 0.38711,-3.26525 0.99201,-6.48607 1.98796,-9.62018 1.06252,-3.12317 3.1375,-5.31091 5.98147,-6.865 3.50109,-1.57533 7.35075,-1.34913 11.05747,-0.80529 3.65572,0.56361 7.22142,1.55943 10.76237,2.60634 3.44138,1.03447 6.88547,2.05946 10.30852,3.15336 3.274,1.04274 6.42323,2.39333 9.43974,4.0318 2.78002,1.51253 5.17054,3.54798 7.35082,5.81845 2.07579,2.19562 3.5485,4.83334 4.85844,7.53133 1.38366,2.75809 1.74224,5.71165 1.53459,8.74838 -0.31362,2.97165 -1.3838,5.75604 -2.54127,8.48375 -1.25196,2.84616 -2.71062,5.59575 -4.12995,8.36066 -1.4806,2.93349 -3.01062,5.84142 -4.51855,8.7608 -1.46834,2.84239 -2.92128,5.69275 -4.36518,8.54762 -0.69872,1.38913 -1.36252,2.79535 -2.03808,4.19577 -0.15664,0.39598 -5.75656,-1.8193 -5.59992,-2.21527 l 0,0 c 0.68648,-1.4305 1.35786,-2.86828 2.0667,-4.28793 1.44512,-2.86864 2.90574,-5.72953 4.37488,-8.58594 1.49978,-2.92654 3.0334,-5.83559 4.52277,-8.76753 1.3798,-2.65563 2.80109,-5.29445 4.03929,-8.01986 0.97081,-2.20892 1.91674,-4.45263 2.24089,-6.86383 0.20085,-2.147 -0.12198,-4.18898 -1.13703,-6.12045 -1.09627,-2.21017 -2.31957,-4.37126 -4.0724,-6.13764 -1.86355,-1.85766 -3.91498,-3.4881 -6.27237,-4.68706 -2.79414,-1.42229 -5.70686,-2.57589 -8.70497,-3.49785 -3.39469,-1.06112 -6.80349,-2.07588 -10.21413,-3.08437 -3.305,-0.94775 -6.63502,-1.84693 -10.04446,-2.33446 -2.30129,-0.27058 -3.12082,-0.50685 -5.45685,0.002 -1.80598,0.61646 -2.98345,1.7483 -3.64251,3.57956 -0.91776,2.82813 -1.4188,5.74864 -1.78513,8.69654 -0.38478,3.06402 -0.63583,6.14252 -0.93426,9.21578 -0.28506,2.68393 -0.5993,5.36602 -1.05335,8.0275 -0.35652,2.03599 -0.77134,4.05962 -1.2062,6.08022 -0.35414,1.56432 -0.73771,3.12875 -1.3439,4.61805 -0.13712,0.3875 -5.61717,-1.55167 -5.48005,-1.93917 z"
       inkscape:connector-curvature="0"
       inkscape:export-xdpi="54.722099"
       inkscape:export-ydpi="54.722099" />
    <path
       style="fill:#000000;fill-opacity:1;stroke:none;stroke-width:5;stroke-linecap:round;stroke-linejoin:round;stroke-miterlimit:4;stroke-dasharray:5, 10;stroke-dashoffset:0;stroke-opacity:0.21568627"
       id="path4140"
       d="m -780.79615,541.5146 c -1.18468,1.3345 -2.32515,2.70674 -3.47378,4.07207 -1.74848,2.02699 -3.45586,4.08822 -5.1187,6.18592 -1.8814,2.36354 -3.50841,4.91122 -5.09736,7.47589 -1.90227,3.04572 -3.63282,6.19338 -5.2502,9.39812 -1.81645,3.62498 -3.48967,7.31818 -5.11296,11.0328 -1.67628,3.84507 -3.2073,7.75149 -4.67853,11.6789 -1.4025,3.81442 -2.65968,7.68113 -3.87633,11.55829 -1.19169,3.83603 -2.29572,7.69892 -3.39158,11.56325 -1.04398,3.70881 -2.07039,7.42177 -3.02004,11.15594 -0.92088,3.56159 -1.67316,7.15969 -2.24201,10.79329 -0.57559,3.71782 -0.91039,7.46337 -1.15384,11.21545 -0.0335,0.61246 -0.0671,1.22491 -0.10064,1.83737 -0.0193,0.42979 -6.09751,0.15608 -6.07815,-0.27371 l 0,0 c 0.0331,-0.62978 0.0661,-1.25956 0.0992,-1.88933 0.2454,-3.91082 0.58542,-7.81549 1.19205,-11.68926 0.60267,-3.78517 1.37677,-7.53739 2.32298,-11.25253 0.95163,-3.78167 1.98664,-7.54046 3.03203,-11.29715 1.09975,-3.9125 2.21577,-7.8214 3.42531,-11.70156 1.23532,-3.96877 2.50599,-7.92883 3.93009,-11.83448 1.49564,-4.01715 3.05819,-8.01112 4.77472,-11.9397 1.65745,-3.80566 3.37006,-7.5878 5.23994,-11.29473 1.68834,-3.33796 3.50157,-6.61244 5.49008,-9.78217 1.69588,-2.72282 3.4285,-5.43072 5.42004,-7.95009 1.69804,-2.15357 3.44575,-4.2678 5.26427,-6.32109 1.21785,-1.40134 2.41147,-2.8262 3.71475,-4.15029 0.24104,-0.33154 4.92971,3.07726 4.68867,3.4088 z"
       inkscape:connector-curvature="0"
       inkscape:export-xdpi="54.722099"
       inkscape:export-ydpi="54.722099" />
    <path
       style="fill:#000000;fill-opacity:1;stroke:none;stroke-width:5;stroke-linecap:round;stroke-linejoin:round;stroke-miterlimit:4;stroke-dasharray:5, 10;stroke-dashoffset:0;stroke-opacity:0.21568627"
       id="path4136-3"
       d="m -380.81154,680.44568 c -3.26397,0.47802 -6.55805,0.70325 -9.84006,1.01993 -5.63257,0.37157 -11.08064,1.70567 -16.44414,3.39226 -7.91089,2.61395 -15.17793,6.71289 -22.19156,11.14043 -7.71414,4.95827 -14.69807,10.90965 -21.2851,17.26181 -6.01784,5.84723 -11.07195,12.53653 -15.66372,19.53071 -4.22628,6.53845 -7.62715,13.53615 -10.48971,20.76203 -2.81744,7.06514 -4.29358,14.49594 -5.27258,22.00524 -1.0274,7.97747 -0.86336,16.0251 -0.27405,24.02555 0.63529,8.20416 2.43283,16.22352 4.5965,24.13963 2.072,7.98885 5.51545,15.44476 9.55898,22.60108 4.10697,7.17391 9.26462,13.59961 14.97515,19.54257 6.28328,6.24513 13.85784,10.7808 21.59899,14.95223 8.78207,4.60818 18.19579,7.74392 27.71264,10.42116 10.0886,2.79674 20.50166,3.60109 30.92314,3.57578 9.11383,-0.20787 17.99361,-2.00506 26.75664,-4.37618 9.57996,-2.6969 18.55937,-6.96285 27.29942,-11.64683 7.89463,-4.35238 15.29841,-9.47969 22.32649,-15.10813 6.29264,-5.1023 11.85368,-10.98254 17.0683,-17.15914 4.77532,-5.71952 8.61634,-12.09371 12.08858,-18.66095 3.27322,-6.18458 5.63368,-12.76977 7.5257,-19.48908 1.70339,-6.076 2.43357,-12.32958 2.74572,-18.61191 0.18006,-5.8558 -0.64135,-11.64839 -1.76512,-17.37598 -1.18628,-5.63281 -3.12908,-11.05609 -5.18714,-16.41774 -1.87301,-5.007 -4.48749,-9.6516 -7.46741,-14.07067 -2.89375,-4.2117 -6.33323,-7.98948 -10.01898,-11.51264 -3.67849,-3.57271 -7.85823,-6.53016 -12.11341,-9.36202 -4.48134,-2.99725 -9.13931,-5.71982 -13.86759,-8.30573 -4.90488,-2.66026 -9.97756,-4.98011 -15.03344,-7.33243 -5.4022,-2.47115 -10.83826,-4.86707 -16.34019,-7.10783 -5.43123,-2.14216 -10.86975,-4.26475 -16.29679,-6.41751 -5.0205,-2.0249 -10.14511,-3.76581 -15.3214,-5.34339 -0.74082,-0.40956 5.05124,-10.88631 5.79206,-10.47675 l 0,0 c 5.39045,1.71404 10.72571,3.59224 15.97337,5.70707 5.48052,2.1556 10.98163,4.25888 16.44139,6.46713 5.62418,2.34386 11.19624,4.81107 16.71789,7.38751 5.25163,2.46818 10.49463,4.96051 15.57267,7.77476 4.94931,2.78349 9.83322,5.68971 14.52197,8.8974 4.70491,3.22476 9.27627,6.6499 13.33134,10.68204 4.11747,4.09063 7.97149,8.44618 11.19426,13.28908 3.31915,5.07987 6.25752,10.39321 8.3794,16.09611 2.24761,5.91292 4.32491,11.9089 5.60041,18.11814 1.25232,6.52899 2.16538,13.13098 1.94533,19.7998 -0.3404,7.03219 -1.13383,14.03608 -2.99181,20.849 -2.03469,7.42794 -4.57336,14.71699 -8.13858,21.56543 -3.76169,7.23016 -7.9247,14.25472 -13.08622,20.59155 -5.56054,6.74495 -11.50042,13.1687 -18.2318,18.77505 -7.43372,6.1239 -15.2742,11.71581 -23.65608,16.48376 -9.3591,5.16551 -18.96356,9.92263 -29.2498,12.97686 -11.65071,3.34369 -23.52289,5.76289 -35.72289,5.40267 -11.34596,-0.23319 -22.65526,-1.38921 -33.57666,-4.64906 -10.18588,-3.05176 -20.24671,-6.60909 -29.59453,-11.74906 -8.5831,-4.82525 -16.87965,-10.18705 -23.7398,-17.34331 -6.19303,-6.65465 -11.81688,-13.80206 -16.28473,-21.74919 -4.35828,-7.93253 -8.05821,-16.18341 -10.33714,-24.97629 -2.31632,-8.56449 -4.19911,-17.2478 -4.87228,-26.11626 -0.60846,-8.69474 -0.771,-17.4369 0.35146,-26.10357 1.10158,-8.33282 2.75818,-16.56707 5.83431,-24.42568 3.05565,-7.89724 6.68749,-15.55508 11.23869,-22.71373 4.94072,-7.66682 10.36809,-15.02144 16.84667,-21.47817 7.00966,-6.92806 14.45205,-13.43408 22.72369,-18.83412 7.71937,-4.97704 15.75257,-9.52812 24.48541,-12.4961 6.0528,-1.96753 12.20984,-3.62263 18.59059,-4.05211 3.22155,-0.261 6.4433,-0.48251 9.67126,-0.64809 0.76904,-0.28045 4.73533,10.59542 3.96629,10.87588 z"
       inkscape:connector-curvature="0"
       inkscape:export-xdpi="54.722099"
       inkscape:export-ydpi="54.722099" />
    <path
       style="fill:#000000;fill-opacity:1;stroke:none;stroke-width:5;stroke-linecap:round;stroke-linejoin:round;stroke-miterlimit:4;stroke-dasharray:5, 10;stroke-dashoffset:0;stroke-opacity:0.21568627"
       id="path4138-6"
       d="m -388.88322,663.49327 c 0.469,-1.21511 0.76168,-2.48733 1.03963,-3.75672 0.40584,-1.942 0.78228,-3.88864 1.109,-5.8455 0.4109,-2.55503 0.7018,-5.12671 0.95859,-7.70109 0.28801,-3.10933 0.5278,-6.22336 0.90743,-9.3232 0.38711,-3.26525 0.99201,-6.48607 1.98796,-9.62018 1.06252,-3.12317 3.1375,-5.31091 5.98147,-6.865 3.50109,-1.57533 7.35075,-1.34913 11.05747,-0.80529 3.65572,0.56361 7.22142,1.55943 10.76237,2.60634 3.44138,1.03447 6.88547,2.05946 10.30852,3.15336 3.274,1.04274 6.42323,2.39333 9.43974,4.0318 2.78002,1.51253 5.17054,3.54798 7.35082,5.81845 2.07579,2.19562 3.5485,4.83334 4.85844,7.53133 1.38366,2.75809 1.74224,5.71165 1.53459,8.74838 -0.31362,2.97165 -1.3838,5.75604 -2.54127,8.48375 -1.25196,2.84616 -2.71062,5.59575 -4.12995,8.36066 -1.4806,2.93349 -3.01062,5.84142 -4.51855,8.7608 -1.46834,2.84239 -2.92128,5.69275 -4.36518,8.54762 -0.69872,1.38913 -1.36252,2.79535 -2.03808,4.19577 -0.15664,0.39598 -5.75656,-1.8193 -5.59992,-2.21527 l 0,0 c 0.68648,-1.4305 1.35786,-2.86828 2.0667,-4.28793 1.44512,-2.86864 2.90574,-5.72953 4.37488,-8.58594 1.49978,-2.92654 3.0334,-5.83559 4.52277,-8.76753 1.3798,-2.65563 2.80109,-5.29445 4.03929,-8.01986 0.97081,-2.20892 1.91674,-4.45263 2.24089,-6.86383 0.20085,-2.147 -0.12198,-4.18898 -1.13703,-6.12045 -1.09627,-2.21017 -2.31957,-4.37126 -4.0724,-6.13764 -1.86355,-1.85766 -3.91498,-3.4881 -6.27237,-4.68706 -2.79414,-1.42229 -5.70686,-2.57589 -8.70497,-3.49785 -3.39469,-1.06112 -6.80349,-2.07588 -10.21413,-3.08437 -3.305,-0.94775 -6.63502,-1.84693 -10.04446,-2.33446 -2.30129,-0.27058 -3.12082,-0.50685 -5.45685,0.002 -1.80598,0.61646 -2.98345,1.7483 -3.64251,3.57956 -0.91776,2.82813 -1.4188,5.74864 -1.78513,8.69654 -0.38478,3.06402 -0.63583,6.14252 -0.93426,9.21578 -0.28506,2.68393 -0.5993,5.36602 -1.05335,8.0275 -0.35652,2.03599 -0.77134,4.05962 -1.2062,6.08022 -0.35414,1.56432 -0.73771,3.12875 -1.3439,4.61805 -0.13712,0.3875 -5.61717,-1.55167 -5.48005,-1.93917 z"
       inkscape:connector-curvature="0"
       inkscape:export-xdpi="54.722099"
       inkscape:export-ydpi="54.722099" />
    <path
       style="fill:#000000;fill-opacity:1;stroke:none;stroke-width:5;stroke-linecap:round;stroke-linejoin:round;stroke-miterlimit:4;stroke-dasharray:5, 10;stroke-dashoffset:0;stroke-opacity:0.21568627"
       id="path4140-7"
       d="m -305.70693,549.78724 c -1.18468,1.3345 -2.32515,2.70674 -3.47378,4.07207 -1.74848,2.02699 -3.45586,4.08822 -5.1187,6.18592 -1.8814,2.36354 -3.50841,4.91122 -5.09736,7.47589 -1.90227,3.04572 -3.63282,6.19338 -5.2502,9.39812 -1.81645,3.62498 -3.48967,7.31818 -5.11296,11.0328 -1.67628,3.84507 -3.2073,7.75149 -4.67853,11.6789 -1.4025,3.81442 -2.65968,7.68113 -3.87633,11.55829 -1.19169,3.83603 -2.29572,7.69892 -3.39158,11.56325 -1.04398,3.70881 -2.07039,7.42177 -3.02004,11.15594 -0.92088,3.56159 -1.67316,7.15969 -2.24201,10.79329 -0.57559,3.71782 -0.91039,7.46337 -1.15384,11.21545 -0.0335,0.61246 -0.0671,1.22491 -0.10064,1.83737 -0.0193,0.42979 -6.09751,0.15608 -6.07815,-0.27371 l 0,0 c 0.0331,-0.62978 0.0661,-1.25956 0.0992,-1.88933 0.2454,-3.91082 0.58542,-7.81549 1.19205,-11.68926 0.60267,-3.78517 1.37677,-7.53739 2.32298,-11.25253 0.95163,-3.78167 1.98664,-7.54046 3.03203,-11.29715 1.09975,-3.9125 2.21577,-7.8214 3.42531,-11.70156 1.23532,-3.96877 2.50599,-7.92883 3.93009,-11.83448 1.49564,-4.01715 3.05819,-8.01112 4.77472,-11.9397 1.65745,-3.80566 3.37006,-7.5878 5.23994,-11.29473 1.68834,-3.33796 3.50157,-6.61244 5.49008,-9.78217 1.69588,-2.72282 3.4285,-5.43072 5.42004,-7.95009 1.69804,-2.15357 3.44575,-4.2678 5.26427,-6.32109 1.21785,-1.40134 2.41147,-2.8262 3.71475,-4.15029 0.24104,-0.33154 4.92971,3.07726 4.68867,3.4088 z"
       inkscape:connector-curvature="0"
       inkscape:export-xdpi="54.722099"
       inkscape:export-ydpi="54.722099" />
    <path
       style="fill:#000000;fill-opacity:1;stroke:none;stroke-width:5;stroke-linecap:round;stroke-linejoin:round;stroke-miterlimit:4;stroke-dasharray:5, 10;stroke-dashoffset:0;stroke-opacity:0.21568627"
       id="path4163"
       d="m -879.6418,776.17234 c -1.50817,-0.0874 -3.01669,-0.16883 -4.5254,-0.24633 -2.54453,-0.11397 -2.80938,-0.0798 -4.99183,0.0318 -2.02403,0.0995 -3.9807,0.57548 -5.86753,1.29184 -1.53731,0.64568 -2.96792,1.51272 -4.05534,2.78731 -1.05463,1.41897 -1.45497,3.13399 -1.69748,4.85158 -0.22104,1.97534 0.12671,3.91314 0.69272,5.79808 0.61094,1.875 1.65751,3.52716 2.87968,5.05582 0.84464,0.97592 1.82381,1.85621 3.13565,2.04167 0.54898,-0.1474 1.80091,4.6e-4 -0.36168,-0.13312 -0.53746,-0.0332 0.65436,-0.0903 1.28153,-0.31674 1.2418,-0.48119 2.17556,-1.37789 3.04286,-2.35452 1.27858,-1.47668 2.20569,-3.18436 3.00098,-4.95578 1.0865,-2.56878 1.70805,-5.29257 2.26905,-8.01415 0.71489,-3.69777 1.19242,-7.43627 1.58518,-11.18028 0.38453,-3.95406 0.60726,-7.92117 0.79395,-11.8887 0.18139,-4.26148 0.28467,-8.52573 0.3886,-12.78964 0.0168,-0.72787 0.0336,-1.45573 0.0504,-2.1836 0.008,-0.43467 6.15548,-0.31794 6.14723,0.11674 l 0,0 c -0.0162,0.73104 -0.0324,1.46208 -0.0485,2.19312 -0.10552,4.30374 -0.22757,8.60736 -0.43064,12.90779 -0.19614,4.06545 -0.41272,8.13164 -0.80773,12.18354 -0.41534,3.91799 -0.93821,7.82771 -1.72066,11.69119 -0.66011,3.06998 -1.40395,6.13586 -2.642,9.03301 -0.99714,2.21689 -2.14986,4.36077 -3.72246,6.23136 -1.3392,1.55655 -2.7861,2.99638 -4.66898,3.88816 -2.23479,1.01969 -4.6563,1.52093 -7.05438,0.66278 -2.11508,-0.86675 -3.89988,-2.20471 -5.29915,-4.03055 -1.53848,-2.06807 -2.84951,-4.28597 -3.59716,-6.77192 -0.71755,-2.57477 -1.13497,-5.21361 -0.81212,-7.89171 0.37744,-2.61301 1.06571,-5.16712 2.62539,-7.34639 1.55715,-1.97063 3.47465,-3.50234 5.77353,-4.54855 2.33081,-1.02033 4.75999,-1.76507 7.30779,-1.98923 2.84946,-0.24394 5.71416,-0.23598 8.56576,-0.0161 1.59592,0.11293 3.19597,0.21884 4.77746,0.46983 0.38338,0.14246 -1.63133,5.5642 -2.01471,5.42174 z"
       inkscape:connector-curvature="0"
       inkscape:export-xdpi="54.722099"
       inkscape:export-ydpi="54.722099" />
    <path
       style="fill:#000000;fill-opacity:1;stroke:none;stroke-width:5;stroke-linecap:round;stroke-linejoin:round;stroke-miterlimit:4;stroke-dasharray:5, 10;stroke-dashoffset:0;stroke-opacity:0.21568627"
       id="path4165"
       d="m -863.74326,778.90294 c -0.15074,1.40819 -0.3878,2.80371 -0.52281,4.21378 -0.13014,1.87294 -0.0266,3.74732 0.0963,5.61703 0.10621,1.85973 0.48158,3.67069 1.21158,5.38307 0.51719,1.08759 1.19059,2.13488 2.22474,2.78744 -0.0984,0.13645 1.07498,-0.14806 1.02022,-0.15468 -0.53509,-0.0647 -1.76455,0.0493 -0.9099,-0.0243 0.85657,-0.18282 1.42619,-0.82442 1.93388,-1.49033 0.88014,-1.28279 1.41666,-2.75045 1.91358,-4.21284 0.63159,-1.91078 1.04829,-3.87683 1.34717,-5.86376 0.33985,-2.19335 0.43783,-4.40501 0.354,-6.61992 -0.0133,-0.42001 5.9266,-0.60814 5.9399,-0.18812 l 0,0 c 0.0951,2.52989 0.004,5.05864 -0.39873,7.56278 -0.35198,2.27382 -0.83171,4.52502 -1.55541,6.71287 -0.65863,1.942 -1.39758,3.87071 -2.54429,5.58562 -1.1374,1.5817 -2.46474,2.96481 -4.31378,3.70149 -2.49579,0.82898 -4.98707,0.56783 -7.07583,-1.02738 -1.52638,-1.3679 -2.74961,-2.98159 -3.5373,-4.88938 -0.87411,-2.23096 -1.41717,-4.55131 -1.53433,-6.95291 -0.12616,-2.13964 -0.21734,-4.28573 -0.0286,-6.42542 0.15408,-1.4476 0.39098,-2.88067 0.59244,-4.32177 0.0429,-0.40921 5.83001,0.19751 5.78711,0.60672 z"
       inkscape:connector-curvature="0"
       inkscape:export-xdpi="54.722099"
       inkscape:export-ydpi="54.722099" />
    <path
       style="fill:#000000;fill-opacity:1;stroke:none;stroke-width:5;stroke-linecap:round;stroke-linejoin:round;stroke-miterlimit:4;stroke-dasharray:5, 10;stroke-dashoffset:0;stroke-opacity:0.21568627"
       id="path4163-5"
       d="m -815.4542,781.88818 c -1.50817,-0.0874 -3.01669,-0.16883 -4.5254,-0.24633 -2.54453,-0.11397 -2.80938,-0.0798 -4.99183,0.0318 -2.02403,0.0995 -3.9807,0.57548 -5.86753,1.29184 -1.53731,0.64568 -2.96792,1.51272 -4.05534,2.78731 -1.05463,1.41897 -1.45497,3.13399 -1.69748,4.85158 -0.22104,1.97534 0.12671,3.91314 0.69272,5.79808 0.61094,1.875 1.65751,3.52716 2.87968,5.05582 0.84464,0.97592 1.82381,1.85621 3.13565,2.04167 0.54898,-0.1474 1.80091,4.6e-4 -0.36168,-0.13312 -0.53746,-0.0332 0.65436,-0.0903 1.28153,-0.31674 1.2418,-0.48119 2.17556,-1.37789 3.04286,-2.35452 1.27858,-1.47668 2.20569,-3.18436 3.00098,-4.95578 1.0865,-2.56878 1.70805,-5.29257 2.26905,-8.01415 0.71489,-3.69777 1.19242,-7.43627 1.58518,-11.18028 0.38453,-3.95406 0.60726,-7.92117 0.79395,-11.8887 0.18139,-4.26148 0.28467,-8.52573 0.3886,-12.78964 0.0168,-0.72787 0.0336,-1.45573 0.0504,-2.1836 0.008,-0.43467 6.15548,-0.31794 6.14723,0.11674 l 0,0 c -0.0162,0.73104 -0.0324,1.46208 -0.0485,2.19312 -0.10552,4.30374 -0.22757,8.60736 -0.43064,12.90779 -0.19614,4.06545 -0.41272,8.13164 -0.80773,12.18354 -0.41534,3.91799 -0.93821,7.82771 -1.72066,11.69119 -0.66011,3.06998 -1.40395,6.13586 -2.642,9.03301 -0.99714,2.21689 -2.14986,4.36077 -3.72246,6.23136 -1.3392,1.55655 -2.7861,2.99638 -4.66898,3.88816 -2.23479,1.01969 -4.6563,1.52093 -7.05438,0.66278 -2.11508,-0.86675 -3.89988,-2.20471 -5.29915,-4.03055 -1.53848,-2.06807 -2.84951,-4.28597 -3.59716,-6.77192 -0.71755,-2.57477 -1.13497,-5.21361 -0.81212,-7.89171 0.37744,-2.61301 1.06571,-5.16712 2.62539,-7.34639 1.55715,-1.97063 3.47465,-3.50234 5.77353,-4.54855 2.33081,-1.02033 4.75999,-1.76507 7.30779,-1.98923 2.84946,-0.24394 5.71416,-0.23598 8.56576,-0.0161 1.59592,0.11293 3.19597,0.21884 4.77746,0.46983 0.38338,0.14246 -1.63133,5.5642 -2.01471,5.42174 z"
       inkscape:connector-curvature="0"
       inkscape:export-xdpi="54.722099"
       inkscape:export-ydpi="54.722099" />
    <path
       style="fill:#000000;fill-opacity:1;stroke:none;stroke-width:5;stroke-linecap:round;stroke-linejoin:round;stroke-miterlimit:4;stroke-dasharray:5, 10;stroke-dashoffset:0;stroke-opacity:0.21568627"
       id="path4184"
       d="m -419.76807,746.01221 c -0.23437,1.62647 -0.41809,3.2596 -0.59576,4.89304 -0.27132,2.56716 -0.44421,5.14319 -0.61279,7.7187 -0.19452,3.10927 -0.33012,6.22176 -0.45886,9.33431 -0.13845,3.28167 -0.23372,6.56482 -0.3193,9.84822 -0.0616,3.47597 -0.1648,6.94985 -0.32209,10.42276 -0.17,3.4447 -0.34019,6.88937 -0.50081,10.33452 -0.15649,3.34718 -0.28861,6.69542 -0.40981,10.04404 -0.12149,3.25776 -0.20544,6.51664 -0.28049,9.77574 -0.0489,2.23566 -0.0178,1.11204 -0.0936,3.37085 -0.0122,0.42737 -6.05608,0.2554 -6.04392,-0.17197 l 0,0 c 0.0753,-2.2029 0.0438,-1.09609 0.0944,-3.32046 0.0815,-3.27829 0.17532,-6.55629 0.28512,-9.83376 0.11661,-3.36705 0.24384,-6.73375 0.39776,-10.09932 0.15778,-3.44329 0.33205,-6.88575 0.4972,-10.32868 0.15423,-3.44258 0.25929,-6.88614 0.32819,-10.33151 0.0932,-3.30829 0.19989,-6.61625 0.33479,-9.92312 0.13441,-3.15583 0.28322,-6.3113 0.50074,-9.46268 0.18597,-2.6526 0.38996,-5.30467 0.70359,-7.94579 0.20678,-1.71475 0.41674,-3.43173 0.7582,-5.12597 0.0566,-0.40571 5.79415,0.39537 5.7375,0.80108 z"
       inkscape:connector-curvature="0"
       inkscape:export-xdpi="54.722099"
       inkscape:export-ydpi="54.722099" />
    <path
       style="fill:#000000;fill-opacity:1;stroke:none;stroke-width:5;stroke-linecap:round;stroke-linejoin:round;stroke-miterlimit:4;stroke-dasharray:5, 10;stroke-dashoffset:0;stroke-opacity:0.21568627"
       id="path4186"
       d="m -403.94814,790.02815 c 0.0843,1.45373 0.20649,2.90507 0.31207,4.35739 0.15014,2.07425 0.26708,4.15068 0.37111,6.22769 0.12662,2.43577 0.17998,4.87455 0.29567,7.3107 0.14162,2.4972 0.32864,4.99154 0.49952,7.48684 0.12223,2.12947 0.15024,4.26261 0.17185,6.39497 0.003,0.42158 -5.95857,0.471 -5.96206,0.0494 l 0,0 c -0.0195,-2.03553 -0.0443,-4.072 -0.16698,-6.1045 -0.17055,-2.52943 -0.35737,-5.05788 -0.49971,-7.58912 -0.11578,-2.43771 -0.16103,-4.87818 -0.27234,-7.3162 -0.0879,-2.04301 -0.18832,-4.08543 -0.31973,-6.12618 -0.0974,-1.56269 -0.21365,-3.12529 -0.24741,-4.69101 0,-0.41139 5.81801,-0.41139 5.81801,0 z"
       inkscape:connector-curvature="0"
       inkscape:export-xdpi="54.722099"
       inkscape:export-ydpi="54.722099" />
    <path
       style="fill:#000000;fill-opacity:1;stroke:none;stroke-width:5;stroke-linecap:round;stroke-linejoin:round;stroke-miterlimit:4;stroke-dasharray:5, 10;stroke-dashoffset:0;stroke-opacity:0.21568627"
       id="path4188"
       d="m -388.23169,787.19281 c 0.0745,1.69257 0.30108,3.37352 0.48761,5.05622 0.32812,2.62233 0.66575,5.24316 1.05677,7.85688 0.44829,2.69337 0.98288,5.37121 1.55498,8.04066 0.56725,2.73215 1.20754,5.4481 1.81594,8.17118 0.616,2.72576 1.1213,5.47418 1.61794,8.22359 0.37007,1.62354 0.4389,3.35533 1.13172,4.88936 -0.45246,-0.14666 0.23872,0.29992 0.2121,0.20521 -0.45448,-1.61712 -3.25005,-0.54736 -3.693,-0.50504 0.47727,-0.72317 0.63979,-1.61517 0.81636,-2.44931 0.33152,-1.78493 0.49614,-3.5928 0.59228,-5.40372 0.0909,-2.38263 0.0902,-4.76751 0.0913,-7.15149 -0.0502,-2.67786 0.1007,-5.35039 0.30519,-8.0188 0.22676,-2.81762 0.74395,-5.59813 1.39932,-8.3442 0.72997,-2.95466 1.93693,-5.7507 3.14736,-8.53199 0.83332,-1.82213 0.41511,-0.91867 1.25431,-2.71051 0.15279,-0.39602 5.7533,1.76479 5.6005,2.16081 l 0,0 c -0.81069,1.72768 -0.40935,0.86565 -1.20412,2.58605 -1.10121,2.51247 -2.23822,5.02396 -2.92417,7.69002 -0.61646,2.47711 -1.10669,4.98609 -1.31302,7.53434 -0.19605,2.54371 -0.33773,5.09142 -0.29755,7.64417 -0.009,2.47454 -0.0167,4.95034 -0.13733,7.4225 -0.12342,2.0733 -0.3267,4.14331 -0.7454,6.18057 -0.36396,1.61755 -0.79523,3.24101 -1.75436,4.62221 -2.34848,2.87517 -5.64657,1.8814 -6.86416,-1.00512 -0.7734,-1.89033 -1.13452,-3.89478 -1.51665,-5.89443 -0.51607,-2.68517 -1.00612,-5.37595 -1.60978,-8.04338 -0.6124,-2.73824 -1.25086,-5.47068 -1.82121,-8.21818 -0.59113,-2.77365 -1.14437,-5.55597 -1.60704,-8.35425 -0.39631,-2.68941 -0.73506,-5.38635 -1.02459,-8.08944 -0.17331,-1.85089 -0.38899,-3.70258 -0.39361,-5.56391 0,-0.41171 5.82233,-0.41171 5.82233,0 z"
       inkscape:connector-curvature="0"
       inkscape:export-xdpi="54.722099"
       inkscape:export-ydpi="54.722099" />
    <path
       style="fill:#000000;fill-opacity:1;stroke:none;stroke-width:5;stroke-linecap:round;stroke-linejoin:round;stroke-miterlimit:4;stroke-dasharray:5, 10;stroke-dashoffset:0;stroke-opacity:0.21568627"
       id="path4190"
       d="m -353.02298,792.53006 c -0.68341,1.29469 -1.22653,2.65839 -1.75921,4.02022 -0.8833,2.33952 -1.71558,4.69708 -2.46498,7.08284 -0.88071,2.74758 -1.38043,5.5923 -1.83252,8.43536 -0.45534,2.95282 -0.57212,5.93922 -0.51917,8.92197 0.0269,2.3545 0.49129,4.62982 1.45703,6.77229 0.77674,1.46669 1.9617,2.39222 3.51764,2.88769 1.95212,0.5135 3.27012,0.31359 4.17598,0.26594 2.45539,-0.24318 4.76778,-1.12785 7.01603,-2.0941 2.53823,-1.12396 4.82146,-2.69407 6.98286,-4.4171 1.13747,-1.004 2.3279,-2.00388 3.15905,-3.28869 0.17573,-0.37621 5.49614,2.10894 5.32041,2.48515 l 0,0 c -1.02414,1.88599 -2.44214,3.45403 -4.05977,4.86314 -2.46378,2.06602 -5.08543,3.94134 -8.01003,5.30891 -2.73088,1.23484 -5.53415,2.33818 -8.51691,2.78522 -3.19583,0.35617 -6.43461,0.22131 -9.43064,-1.03135 -2.53421,-1.31495 -4.55856,-3.14188 -5.77105,-5.78132 -1.13891,-2.76527 -1.81237,-5.65159 -1.85062,-8.65719 -0.0694,-3.28409 0.0453,-6.57413 0.5521,-9.82518 0.50049,-3.08524 1.06355,-6.17012 2.01794,-9.15294 0.79473,-2.50274 1.66834,-4.97829 2.6295,-7.42233 0.65167,-1.59853 1.32697,-3.1956 2.18286,-4.69752 0.17954,-0.36794 5.38303,2.17105 5.2035,2.53899 z"
       inkscape:connector-curvature="0"
       inkscape:export-xdpi="54.722099"
       inkscape:export-ydpi="54.722099" />
    <path
       style="fill:#000000;fill-opacity:1;stroke:none;stroke-width:5;stroke-linecap:round;stroke-linejoin:round;stroke-miterlimit:4;stroke-dasharray:5, 10;stroke-dashoffset:0;stroke-opacity:0.21568627"
       id="path4192"
       d="m -369.34303,812.43068 c 1.87365,-0.19438 3.73898,-0.44002 5.59411,-0.76696 2.89833,-0.54907 5.77816,-1.19022 8.65286,-1.85048 3.10975,-0.73413 6.2204,-1.4641 9.3171,-2.2518 1.98139,-0.54084 0.99159,-0.26245 2.96935,-0.8353 0.37555,-0.20145 3.22439,5.10959 2.84884,5.31103 l 0,0 c -2.06399,0.6198 -1.02425,0.31282 -3.11933,0.92059 -3.13067,0.82127 -6.28168,1.55842 -9.43138,2.30255 -2.9561,0.69399 -5.92418,1.33877 -8.90887,1.89827 -1.99589,0.36557 -4.00532,0.67696 -6.03549,0.76226 -0.38822,0.13344 -2.2754,-5.35672 -1.88719,-5.49016 z"
       inkscape:connector-curvature="0"
       inkscape:export-xdpi="54.722099"
       inkscape:export-ydpi="54.722099" />
    <path
       style="fill:#000000;fill-opacity:1;stroke:none;stroke-width:5;stroke-linecap:round;stroke-linejoin:round;stroke-miterlimit:4;stroke-dasharray:5, 10;stroke-dashoffset:0;stroke-opacity:0.21568627"
       id="path4194"
       d="m -359.96332,793.83658 c 1.66302,-0.057 1.61248,-0.0738 4.234,-0.20149 2.52322,-0.0993 5.03812,-0.3305 7.55256,-0.55407 2.72141,-0.22841 5.44017,-0.48726 8.15017,-0.82595 2.93741,-0.40651 5.85133,-0.95718 8.75994,-1.52995 1.97404,-0.39035 0.99528,-0.19757 2.93625,-0.57841 0.38829,-0.17218 2.82325,5.31914 2.43496,5.49131 l 0,0 c -1.9477,0.39798 -0.96689,0.20087 -2.94246,0.59108 -3.00777,0.59909 -6.01708,1.19165 -9.05235,1.63769 -2.77938,0.3986 -5.5786,0.63512 -8.37564,0.87449 -2.58542,0.22839 -5.17047,0.49032 -7.76438,0.59771 -2.45691,0.10393 -4.91751,0.218 -7.37671,0.12026 -0.39758,-0.10208 1.04607,-5.72475 1.44366,-5.62267 z"
       inkscape:connector-curvature="0"
       inkscape:export-xdpi="54.722099"
       inkscape:export-ydpi="54.722099" />
    <text
       xml:space="preserve"
       style="font-style:normal;font-weight:normal;font-size:40px;line-height:125%;font-family:sans-serif;letter-spacing:0px;word-spacing:0px;fill:#000000;fill-opacity:1;stroke:none;stroke-width:1px;stroke-linecap:butt;stroke-linejoin:miter;stroke-opacity:1"
       x="-215.71428"
       y="639.50507"
       id="text4196"
       sodipodi:linespacing="125%"
       inkscape:export-xdpi="54.722099"
       inkscape:export-ydpi="54.722099"><tspan
         sodipodi:role="line"
         id="tspan4198"
         x="-215.71428"
         y="639.50507">photon</tspan><tspan
         sodipodi:role="line"
         x="-215.71428"
         y="689.50507"
         id="tspan4200">detector</tspan></text>
    <path
       style="fill:#bdbdbd;fill-opacity:1;stroke:none;stroke-width:5;stroke-linecap:round;stroke-linejoin:round;stroke-miterlimit:4;stroke-dasharray:5, 10;stroke-dashoffset:0;stroke-opacity:0.21568627"
       id="path4206"
       d="m -153.25128,739.65847 c -0.4983,1.56246 -1.32962,2.98273 -1.84003,4.53832 -0.74899,2.28265 0.31592,-0.14046 0.39016,-0.37905 0.72028,-1.40303 2.44283,-0.76507 3.4787,-1.57341 0.21131,-0.1649 -0.93152,-0.26365 -0.69615,-0.38448 0.89549,-0.45975 1.941,-0.44483 2.89297,-0.74338 0.98577,-0.30914 1.94237,-0.71838 2.91356,-1.07757 2.67222,-1.3096 5.3784,-2.79399 7.42238,-5.12414 0.36316,-0.414 -0.26681,1.10485 -0.38156,1.66204 1.74435,0.0962 -0.003,3.37877 1.13312,4.10522 0.68564,0.43843 1.93104,-0.27298 2.35109,0.4593 0.31883,0.55579 -1.15249,0.40233 -1.70582,0.6656 -1.99812,0.95067 -2.32015,1.30558 -4.16447,2.62296 -1.98378,1.66351 -3.94133,3.38057 -5.73081,5.28937 -0.21226,0.22642 -0.51972,1.03261 -0.59643,0.72091 -0.11106,-0.45131 0.49699,-0.84918 0.4506,-1.31351 -0.15654,-1.56728 -0.69371,-3.06211 -1.04057,-4.59317 -1.3309,-0.62234 -3.3424,-0.46459 -3.9927,-1.86705 -0.41867,-0.9029 1.73809,-0.7431 2.57602,-1.18815 1.35587,-0.72013 2.68662,-1.49646 3.99959,-2.30433 5.02993,-3.0949 9.84005,-6.59136 14.67894,-10.01706 0.32043,-0.22464 5.71343,-4.02278 6.59847,-4.58888 4.51933,-2.89069 4.50324,0.76555 8.83838,9.63092 0.35374,0.72342 -1.08943,1.13563 -1.64334,1.69285 -0.8622,0.86736 -1.73655,1.72048 -2.60482,2.58072 -2.96489,2.99663 -6.07435,5.82722 -8.99765,8.87262 -0.66948,0.69746 -1.32743,1.40923 -1.95387,2.15206 -0.26646,0.31597 -0.54561,1.40291 -0.72053,1.01928 -0.22032,-0.4832 0.32588,-1.01832 0.48881,-1.52748 -0.19912,-1.14048 -0.39824,-2.28097 -0.59736,-3.42144 0.11138,-0.46785 0.40322,-0.92624 0.33413,-1.40354 -0.0452,-0.3122 -0.8967,-0.52206 -0.63229,-0.65612 1.22786,-0.62252 2.64578,-0.6473 3.95513,-1.02855 4.08023,-1.18805 5.23426,-1.6947 9.24077,-3.17449 1.39183,-0.60218 2.79634,-1.17107 4.17548,-1.80655 1.68325,-0.77559 3.22579,-1.88214 4.91295,-2.64773 0.0746,-0.0338 0.0512,0.17019 0.0471,0.25762 -0.0837,1.82229 -0.5606,3.65906 -0.31,5.46332 0.17007,1.22442 1.02042,2.21643 1.53062,3.32464 0.36981,0.28944 1.44635,0.53513 1.10944,0.86833 -1.13903,1.12646 -2.80753,1.38989 -4.17497,2.16341 -1.82794,1.034 -3.61814,2.14502 -5.40676,3.25667 -5.89722,3.66516 -11.51352,7.64137 -17.07684,11.86579 -2.94232,2.47909 -4.87064,3.94473 -7.47359,6.65593 -0.60252,0.62758 -1.70161,2.94781 -1.65081,2.04442 0.20704,-3.68232 0.20664,-1.90982 0.0986,-4.96674 1.7736,0.94671 1.91521,-1.34694 2.99065,-1.71674 1.7296,-0.59473 3.54052,-0.86759 5.2976,-1.35897 5.49204,-1.53588 10.81653,-3.44252 16.13078,-5.57252 1.20466,-0.56385 2.42454,-1.09107 3.61399,-1.69156 0.71884,-0.36291 1.39418,-0.82043 2.10711,-1.19676 0.10422,-0.055 0.35641,-0.21706 0.33697,-0.0933 -0.5239,3.33484 -2.13925,3.88397 0.69781,7.47249 0.64085,0.81058 1.86757,0.6832 2.80136,1.0248 -7.66268,2.63158 -15.13759,5.9931 -22.57534,9.30714 -3.40287,1.57918 -6.74563,3.3096 -10.02552,5.1683 -0.54364,0.30808 -1.01157,0.83781 -1.61553,0.9554 -0.2213,0.0431 0.22023,-0.44281 0.2312,-0.68588 0.0927,-2.05519 0.0522,-4.11489 0.0782,-6.17233 3.8409,-2.50191 -3.10144,-2.16745 -2.15542,-2.84022 0.81163,-0.57721 1.91928,-0.33378 2.86499,-0.57281 1.09656,-0.27714 2.18158,-0.60956 3.25604,-0.97422 3.03266,-1.02923 3.86479,-1.48991 6.79034,-2.81131 2.87848,-1.53503 2.48923,-1.24156 4.88463,-2.78274 0.28253,-0.18177 0.79453,-0.92602 0.83209,-0.57261 0.0713,0.67148 -0.77511,1.21402 -0.69272,1.88402 0.89615,7.28781 0.66082,5.8262 5.90854,7.28002 -5.2997,2.52977 -9.95182,6.41499 -14.33465,10.45802 -0.71853,0.68987 -1.4464,1.3685 -2.15557,2.06961 -0.56867,0.56222 -1.12708,1.13671 -1.67742,1.71988 -0.3791,0.40173 -1.20787,1.75082 -1.16055,1.1789 0.37292,-4.50748 0.79162,-1.78592 -0.66447,-6.18407 2.75372,-0.69915 -0.60107,-1.02826 -0.25659,-1.20076 0.92108,-0.46124 2.00649,-0.33753 3.00061,-0.55862 3.44048,-0.76511 6.74415,-1.86844 10.05421,-3.11931 0.93804,-0.4161 1.87609,-0.8322 2.81413,-1.2483 0.65653,-0.31865 1.30441,-0.65902 1.96958,-0.95594 0.16851,-0.0752 0.56976,-0.35019 0.52686,-0.15845 -0.23215,1.03761 -1.25265,1.88841 -1.1515,2.95039 0.60282,6.32893 0.92281,5.6503 4.56741,7.07405 -13.21762,5.20727 -25.80151,12.2009 -38.43166,18.87185 -5.49118,3.00562 -10.98895,6.02716 -16.2328,9.52267 -0.6605,0.44029 -1.21581,1.08523 -1.93554,1.39843 -0.18902,0.0823 0.16875,-0.41285 0.17699,-0.63318 0.0576,-1.54051 0.0132,-3.08353 0.0198,-4.62529 2.99884,-2.67381 -2.9893,-1.97235 -2.17804,-2.83076 0.67953,-0.71902 1.86908,-0.37738 2.79396,-0.61369 3.79477,-0.96958 7.53302,-2.22101 11.26597,-3.43125 3.55024,-1.12701 6.91927,-2.84629 10.53229,-3.74889 0.45859,-0.11457 1.12029,-0.70695 1.38681,-0.28709 2.23506,3.52085 3.73279,7.528 5.59918,11.29201 -4.98376,3.69821 -10.86239,5.63768 -16.64605,7.30393 -7.92026,1.75655 -9.64562,3.55759 -12.61431,-10.21905 -0.25351,-1.17642 1.75585,-1.49311 2.66332,-2.19638 1.25951,-0.97609 2.55704,-1.89339 3.83556,-2.84009 15.01851,-10.67204 29.63324,-21.98071 44.5136,-32.87281 6.78478,-4.74316 7.87873,-5.68522 14.61057,-9.76506 0.0734,-0.0445 6.81897,-4.07556 8.06259,-4.27803 0.26513,-0.0432 -0.0131,0.61387 0.13039,0.85903 2.13228,3.64463 4.44019,7.16535 6.66028,10.74803 -10.52675,9.21882 -21.15382,18.30637 -31.26083,28.06751 -3.02721,-0.83718 -2.51666,4.45337 -4.63953,5.05229 -0.4375,0.12344 0.42476,-0.95121 0.31877,-1.42693 -0.42532,-1.9089 -0.70975,-4.02237 -1.86939,-5.53251 -0.70688,-0.92053 -2.97414,0.13885 -3.17613,-1.03799 -0.1842,-1.07329 1.84872,-0.87359 2.77308,-1.31038 6.42022,-2.87769 12.17268,-7.26669 18.52384,-10.26688 2.16723,3.81852 5.48647,7.11091 6.50169,11.45555 0.32939,1.40964 -2.13509,1.76541 -3.20778,2.64079 -1.495,1.22001 -3.00662,2.41621 -4.49524,3.64534 -6.93145,5.7232 -13.65155,11.71628 -20.38225,17.71144 -2.56557,2.32017 -5.14197,4.62637 -7.69669,6.9605 -3.4904,3.18902 -9.54379,8.76351 -13.03979,12.25191 -1.42758,1.42448 -2.8287,2.88223 -4.17458,4.397 -0.64956,0.73107 -1.08421,1.68461 -1.80492,2.33286 -0.27917,0.2511 0.2801,-0.72488 0.42016,-1.08732 5.80405,0.3103 -2.64126,-5.32964 -0.93562,-6.53312 1.95061,-1.37631 4.39343,-1.67644 6.55353,-2.6174 3.04408,-1.32602 6.06465,-2.71762 9.05432,-4.18147 9.78018,-4.78875 11.21887,-5.82275 20.82683,-11.32468 10.45053,-6.79592 21.2032,-13.75346 29.77799,-23.29476 1.90101,-2.11529 2.67175,-4.14541 2.08539,-2.65322 -7.156,3.52929 3.603599,4.69646 2.21221,6.40913 -1.02623,1.2632 -2.97023,0.99688 -4.42758,1.58117 -2.06086,0.82625 -4.09463,1.73083 -6.12219,2.64851 -5.81182,2.63048 -7.54835,3.58511 -13.2503,6.46771 -1.91298,1.02241 -3.83524,2.02473 -5.73894,3.06723 -1.45739,0.79809 -2.89753,1.63254 -4.3437,2.45418 -0.82709,0.46992 -1.54728,1.31222 -2.47603,1.42047 -0.37621,0.0439 0.41147,-0.76921 0.34149,-1.17168 -1.53998,-8.85671 0.12753,-7.16715 -3.6759,-9.73521 10.11935,-4.9245 19.59769,-11.46715 28.19222,-19.04817 3.50718,-4.05978 -0.52825,-0.4001 2.75364,4.3931 0.82744,1.2085 3.47761,0.28763 3.8478,1.73745 0.30296,1.18648 -1.96179,1.2479 -2.91339,1.92205 -1.53603,1.08818 -3.0314,2.24215 -4.5471,3.36322 -8.46615,7.29347 -17.37897,14.67721 -23.63509,24.37884 0.0377,0.87745 0.0206,-3.67705 0.61415,-4.07289 0.75112,-0.50095 1.75355,-0.2573 2.60486,-0.50808 0.2499,-0.0737 0.39958,-0.40621 0.65505,-0.45225 1.54089,-0.27762 3.10861,-0.33726 4.66291,-0.5059 4.14409,-0.51084 8.25411,-1.30867 12.31623,-2.32745 0.72305,-0.18135 1.42975,-0.43822 2.1576,-0.59547 0.16718,-0.0361 0.56282,-0.15692 0.51113,0.0189 -0.31676,1.07725 -0.93842,2.01999 -1.40762,3.02999 7.0203,19.58246 -1.65303,1.19662 5.53107,7.53718 0.44064,0.3889 -1.07367,0.411 -1.58945,0.66992 -2.83746,1.42444 -5.41972,3.289 -8.00948,5.16716 -4.29712,3.66228 -9.47735,6.84958 -12.50428,11.95022 0.7993,-1.7141 -0.70129,1.67514 0.36218,-2.97447 0.067,-0.29299 0.31874,-0.56466 0.58768,-0.64444 1.49583,-0.44378 5.6187,0.091 7.23054,0.11841 5.50513,-0.0559 10.87294,0.8177 15.6624,3.83368 1.91218,1.562 1.04332,0.79561 2.62545,2.27383 0.60098,0.67272 -8.1891,9.87152 -8.79008,9.19879 l 0,0 c -0.78857,-0.51323 -0.39217,-0.30297 -1.18188,-0.64672 -4.05142,-0.95921 -8.19218,-0.71849 -12.31161,-1.01349 -7.10406,-0.81531 -14.794,-2.02562 -16.4042,-11.18741 -0.23282,-1.32471 0.26054,-2.68215 0.39081,-4.02323 0.45075,-1.11635 0.79203,-2.29237 1.35226,-3.34907 3.20876,-6.05223 8.90496,-10.08706 13.8554,-14.25578 3.25082,-2.32737 10.00059,-7.18131 13.86213,-7.68675 2.24512,-0.29385 4.84458,-1.34382 6.78397,-0.0848 2.30948,1.49922 2.92773,4.89305 4.3916,7.33956 -0.55306,1.44787 -0.88141,3.02224 -1.65916,4.34362 -2.90401,4.93381 -14.45175,6.77157 -19.21255,7.61734 -6.50185,0.6453 -18.51941,2.58041 -23.44297,-3.77568 -1.2771,-1.64866 -1.97541,-3.81968 -2.34785,-5.93302 -0.27622,-1.56741 0.30887,-3.17377 0.4633,-4.76065 0.59776,-1.48688 1.05918,-3.0471 1.79329,-4.46062 5.67328,-10.92379 15.40053,-18.86638 24.60171,-26.01413 1.5234,-0.93205 8.94548,-5.73317 11.06106,-6.08046 3.11014,-0.51057 6.63066,-1.39837 9.43624,0.14155 4.274119,2.34595 4.305277,7.7681 2.961644,11.53235 -0.544944,1.52669 -1.540035,2.81715 -2.310053,4.22572 -1.227081,1.43433 -2.361861,2.96809 -3.681251,4.30299 -6.45139,6.52719 -15.53277,12.66612 -23.70586,16.2394 -1.89847,0.83002 -3.89388,1.37201 -5.84082,2.058 -2.83295,0.22542 -6.03514,2.20658 -8.49883,0.67625 -2.81019,-1.74555 -4.04519,-5.68066 -4.96917,-9.0419 -0.34822,-1.26678 0.79097,-2.53786 1.48761,-3.62335 2.91624,-4.544 9.17321,-7.42695 13.25007,-10.2833 7.05302,-3.73206 14.05701,-7.30194 21.62692,-9.67433 5.10691,-1.60049 11.676423,-3.52215 16.876641,-0.69157 2.39137,1.30167 3.200646,4.6447 4.80097,6.96704 -0.101948,1.91464 0.151949,3.89121 -0.305842,5.74392 -1.052896,4.2611 -4.705619,9.27858 -7.26304,12.2993 -7.628229,9.01013 -16.998139,15.99078 -26.617369,22.24739 -3.80002,2.13492 -7.52648,4.43073 -11.40004,6.40477 -7.33532,3.7382 -14.02204,6.47382 -21.77319,8.89555 -5.27965,1.64953 -14.28237,4.27151 -19.70492,2.08252 -2.64254,-1.06675 -3.93186,-4.37752 -5.89779,-6.56627 0.0134,-2.00525 -0.33841,-4.05277 0.0403,-6.01574 0.75175,-3.89701 4.02288,-8.21345 6.23971,-10.9836 6.23039,-7.7855 13.62814,-14.36672 20.93327,-20.90641 8.93611,-7.36792 17.91077,-14.7587 27.91552,-20.38414 1.15994,-0.65221 2.38819,-2.40448 3.56042,-1.77857 3.89903,2.08183 6.68277,6.02123 10.02415,9.03185 -5.69029,5.47494 -12.5566,9.19503 -19.53648,12.35107 -3.66512,1.36439 -8.62894,3.70606 -12.5105,1.88734 -2.32383,-1.08885 -3.74215,-3.90942 -4.73242,-6.43189 -1.59378,-4.05975 3.33325,-10.6255 5.19972,-13.34724 1.58064,-1.8396 3.08279,-3.76201 4.7419,-5.51879 8.76845,-9.28462 18.87634,-17.25237 29.78352,-23.30798 3.59639,2.69511 7.45711,5.0179 10.789174,8.08531 0.355365,0.32713 -0.156819,1.04004 -0.446927,1.43548 -0.671387,0.91511 -1.525957,1.65971 -2.364197,2.39618 -5.7286,5.0331 -12.13038,9.11244 -18.06919,13.82888 -15.17583,11.41938 -30.23986,23.15445 -46.91892,31.93162 -1.5779,0.7518 -3.11265,1.62015 -4.73369,2.2554 -0.68633,0.26896 -1.6501,1.01707 -2.15125,0.44268 -10.20051,-11.69107 -8.88528,-9.9178 -1.5421,-12.02514 2.94066,-0.76168 5.8581,-1.54694 8.74084,-2.541 0.25714,-0.0887 4.27034,-1.56571 4.75574,-1.68754 0.33066,-0.0829 0.67819,-0.0327 1.01728,-0.0491 2.26204,3.49362 4.37644,7.10486 6.78612,10.48086 0.1225,0.17164 0.74222,-0.28833 0.5837,-0.15566 -0.33242,0.27821 -0.75135,0.4075 -1.1273,0.61062 -2.99971,1.62069 -6.02646,3.18751 -9.17588,4.44639 -6.70351,2.3677 -17.22814,6.29192 -24.16962,4.37526 -1.73976,-0.48037 -3.0679,-2.01992 -4.60185,-3.02988 -0.54774,-2.26426 -1.58822,-4.45296 -1.64321,-6.79279 -0.0589,-2.50829 2.48706,-5.9076 3.94389,-7.47011 4.77988,-5.1266 10.89414,-8.60349 16.57879,-12.33508 13.6168,-7.57562 27.70984,-14.78198 42.77888,-18.20309 2.6516,-0.0135 5.5794,-1.31605 7.95483,-0.0406 2.32331,1.24743 3.83606,4.10566 4.60756,6.78559 1.4208,4.93534 -6.08879,9.28132 -9.05167,10.76515 -7.33276,3.41886 -15.20471,5.86206 -23.3024,4.92272 -1.28708,-0.14931 -2.47494,-0.82223 -3.7124,-1.23334 -1.22138,-1.45038 -2.91734,-2.5629 -3.66412,-4.35114 -2.46755,-5.90874 2.9626,-11.13404 6.23425,-14.74867 5.63011,-5.76797 11.85002,-11.03333 19.34401,-13.60633 2.59236,0.13341 5.55816,-1.05664 7.77709,0.40024 2.07197,1.36039 2.86485,4.3926 3.41376,6.94735 0.96876,4.50879 -6.56058,9.77364 -9.36821,11.34163 -6.58104,3.29915 -16.27508,7.44035 -23.64767,5.592 -1.72367,-0.43213 -3.08659,-1.87304 -4.62988,-2.80956 -0.37816,-2.53514 -1.23664,-5.03984 -1.13448,-7.60544 0.0448,-1.12503 0.90406,-2.05043 1.55399,-2.92977 3.0975,-4.1909 8.89889,-6.22853 13.03273,-8.81025 8.46288,-4.13123 17.24233,-7.71193 26.27818,-10.05847 2.52825,0.19853 5.29309,-0.57709 7.58475,0.59561 2.00583,1.02642 3.52298,3.24512 4.30911,5.49071 2.24331,6.40801 -5.61027,11.98198 -9.57063,14.3781 -1.78938,0.89631 -3.54061,1.88784 -5.36813,2.68892 -8.74675,3.83406 -18.57687,6.44946 -28.06125,6.18802 -1.74879,-0.0483 -3.44411,-0.66636 -5.16616,-0.99953 -1.53302,-1.21211 -3.50167,-1.95955 -4.59906,-3.63632 -5.87857,-8.98227 4.15455,-18.22121 9.51623,-23.41992 7.92959,-6.6666 15.88933,-12.44992 25.2077,-16.66898 1.88483,-0.85338 3.77763,-1.74649 5.76902,-2.24088 2.71484,-0.674 5.51757,-0.83071 8.27636,-1.24608 1.92758,1.12331 4.55389,1.40896 5.78273,3.36994 1.26315,2.01569 1.06549,4.81952 0.8697,7.24587 -0.37948,4.7028 -9.77159,9.67327 -13.0399,11.16141 -5.1443,2.05369 -10.53293,4.32496 -16.06325,4.81256 -3.20553,0.28263 -9.52274,1.04132 -12.63139,-1.84236 -1.50941,-1.40019 -2.17266,-3.60389 -3.259,-5.40584 0.0715,-1.65941 -0.11206,-3.3551 0.21467,-4.97826 1.22732,-6.0972 9.37048,-12.3672 13.46039,-16.27575 1.05884,-0.87152 2.09461,-1.77692 3.17653,-2.61457 0.94674,-0.73299 1.84965,-2.62305 2.90652,-2.09505 9.15841,4.57543 13.00469,5.66394 8.84621,10.46858 -1.75347,2.02594 -4.38809,4.24391 -6.28775,5.94651 -5.22959,4.13882 -10.49598,8.03577 -16.33357,11.13418 -1.65724,0.87961 -8.14701,4.06443 -10.3817,4.10924 -2.91122,0.0583 -5.77261,-0.83104 -8.65891,-1.24656 -1.01612,-1.99903 -2.51727,-3.78909 -3.04834,-5.99708 -1.26067,-5.24138 6.08196,-11.6077 9.19389,-14.36314 5.18598,-3.89086 10.06418,-6.86354 16.74036,-6.1097 1.37598,0.15536 2.77446,0.75894 3.8328,1.72329 1.28866,1.17422 1.96028,2.96565 2.94041,4.44847 0.085,1.50982 0.42654,3.02832 0.25472,4.52945 -0.78235,6.83517 -7.62558,10.67287 -12.43402,13.72763 -7.12812,3.05539 -16.59781,6.03833 -23.61713,1.01446 -1.11831,-0.8004 -1.95684,-1.98416 -2.93527,-2.97624 -0.57742,-1.36526 -1.3906,-2.64054 -1.73229,-4.0958 -0.97668,-4.1598 0.76817,-8.34258 2.98936,-11.60627 0.32374,-0.85374 11.47908,4.10167 11.15533,4.95541 z"
       inkscape:connector-curvature="0"
       inkscape:export-xdpi="54.722099"
       inkscape:export-ydpi="54.722099" />
    <path
       style="fill:#000000;fill-opacity:1;stroke:none;stroke-width:5;stroke-linecap:round;stroke-linejoin:round;stroke-miterlimit:4;stroke-dasharray:5, 10;stroke-dashoffset:0;stroke-opacity:0.21568627"
       id="path4182"
       d="m -249.23006,792.46488 c 1.41459,-0.20056 2.82514,-0.42786 4.23984,-0.62801 2.28151,-0.31745 4.5738,-0.54558 6.86798,-0.74759 2.66878,-0.2148 5.34725,-0.25465 8.02317,-0.28736 2.69125,-0.009 5.38155,-0.0201 8.07176,-0.0997 2.81789,-0.10491 5.63605,-0.20811 8.45276,-0.3415 3.08619,-0.17963 6.16876,-0.41489 9.25367,-0.61491 3.42488,-0.22363 6.8529,-0.393 10.28168,-0.54305 2.45621,-0.082 4.90553,-0.30747 7.30025,-0.86917 1.40332,-0.35051 2.66903,-0.99683 3.77146,-1.92351 0.97421,-0.85298 1.50693,-1.99376 1.97236,-3.17364 0.62385,-1.72943 0.9545,-3.54493 1.25543,-5.35296 0.40935,-2.3566 0.5426,-4.74505 0.65468,-7.13028 0.10561,-2.51909 -0.005,-5.0365 -0.17631,-7.54944 -0.19409,-2.43822 -0.66022,-4.84354 -1.1467,-7.23712 -0.52419,-2.63946 -1.14285,-5.25844 -1.72972,-7.88431 -0.61708,-2.75018 -1.17508,-5.51223 -1.54089,-8.30755 -0.3245,-2.68545 -0.0191,-5.33272 0.76668,-7.90498 0.82398,-2.41824 2.44916,-4.31523 4.30305,-6.00857 1.8431,-1.62534 4.04469,-2.69688 6.29975,-3.61686 2.40723,-0.94159 4.92591,-1.51214 7.46374,-1.96205 2.88619,-0.45745 5.81137,-0.56519 8.72722,-0.66285 3.81994,-0.13674 7.64245,-0.0228 11.46165,0.0798 3.74002,0.0998 7.47914,0.20393 11.21624,0.38371 3.85998,0.1947 7.71854,0.40635 11.57282,0.69285 3.69073,0.26782 7.37783,0.57094 11.04913,1.03779 3.38086,0.45193 6.74767,1.02071 10.09614,1.66988 2.992098,0.55729 5.846696,1.58653 8.571714,2.9221 2.458003,1.25627 4.320057,3.19394 5.905578,5.40822 1.512865,2.20226 2.480853,4.6764 3.270306,7.21028 0.806146,2.65372 1.251928,5.38765 1.589787,8.13394 0.348545,3.14464 0.539488,6.30457 0.646765,9.46582 0.08329,3.51749 0.04845,7.0364 0.0118,10.55426 -0.04054,3.48451 -0.09846,6.96879 -0.144434,10.45323 -0.03807,3.42572 -0.110029,6.8512 -0.101309,10.27721 0.05519,3.53704 0.03494,7.07468 0.01995,10.61195 -0.0195,3.59675 -0.05101,7.19342 -0.08081,10.79009 -0.02892,3.43017 -0.05499,6.86036 -0.07899,10.29057 -0.03202,3.26553 -0.0191,6.53152 -0.07974,9.79668 -0.0021,3.28149 -0.368712,6.53436 -0.960372,9.75682 -0.624216,3.29244 -1.653972,6.47962 -2.876567,9.59298 -1.140283,3.01344 -2.92956,5.58905 -5.303862,7.74104 -2.416571,2.02618 -5.317015,2.74696 -8.382673,3.02184 -3.867153,0.22837 -7.694313,-0.35974 -11.499163,-0.9611 -3.79683,-0.60566 -7.57717,-1.30891 -11.34999,-2.04804 -3.85563,-0.78276 -7.72963,-1.46739 -11.61157,-2.105 -3.78198,-0.62416 -7.58338,-1.11758 -11.38845,-1.57584 -3.67506,-0.43343 -7.36079,-0.76364 -11.03995,-1.1591 -3.51582,-0.4035 -7.04148,-0.71601 -10.55692,-1.12134 -3.21446,-0.34174 -6.33515,-1.14332 -9.36479,-2.24769 -2.68047,-1.00094 -5.06093,-2.55255 -7.2595,-4.35734 -1.96528,-1.65387 -3.51083,-3.6891 -4.86619,-5.85252 -1.25538,-2.04352 -2.11571,-4.27476 -2.82969,-6.55358 -0.68902,-2.27321 -1.02449,-4.63186 -1.24211,-6.99101 -0.17638,-2.33579 -0.18066,-4.67969 -0.18064,-7.02069 0.008,-2.42544 0.038,-4.85073 0.0656,-7.276 0.0328,-2.58828 0.0543,-5.17667 0.0759,-7.76507 0.0233,-2.77016 0.0425,-5.54036 0.0601,-8.31057 0.0112,-1.87508 0.006,-0.93702 0.0163,-2.81416 0.002,-0.42383 5.99583,-0.39442 5.99375,0.0294 l 0,0 c -0.0114,1.87986 -0.005,0.94043 -0.0177,2.81832 -0.0194,2.77538 -0.0408,5.55076 -0.0709,8.32606 -0.029,2.59269 -0.0639,5.18531 -0.0976,7.77794 -0.0321,2.40658 -0.0673,4.81317 -0.081,7.21995 -0.005,2.18506 -0.0101,4.3732 0.15256,6.55362 0.18776,2.00543 0.46053,4.01376 1.05738,5.9439 0.59538,1.86145 1.31837,3.6813 2.36751,5.34034 1.09545,1.68121 2.35298,3.24417 3.93624,4.49727 1.81138,1.39024 3.77266,2.54825 5.95336,3.26696 2.72098,0.88008 5.51497,1.46026 8.36732,1.71495 3.51542,0.365 7.0332,0.70742 10.5467,1.09112 3.70737,0.38536 7.42,0.72205 11.12031,1.17312 3.87673,0.47621 7.74795,0.99875 11.60085,1.6428 3.92594,0.6579 7.84076,1.37725 11.74341,2.16217 3.71018,0.71902 7.42597,1.41307 11.15662,2.01816 2.5749,0.39901 5.11792,0.58055 7.70542,0.81249 0.0737,0.007 -0.14377,0.0349 -0.21566,0.0524 2.00934,-0.0207 3.983042,-0.0761 5.693162,-1.27805 1.910488,-1.441 3.144925,-3.42668 4.021368,-5.6417 1.119886,-2.80584 2.057853,-5.68141 2.651334,-8.64856 0.56046,-2.94275 0.881054,-5.91807 0.879811,-8.91781 0.05691,-3.24498 0.03651,-6.49076 0.06346,-9.73608 0.01774,-3.43262 0.03709,-6.86523 0.06008,-10.29782 0.02404,-3.59326 0.04982,-7.1865 0.07506,-10.77976 0.02353,-3.52416 0.04324,-7.04864 -0.0044,-10.57271 -0.0068,-3.45288 0.0627,-6.90538 0.100452,-10.35798 0.04896,-3.47921 0.09458,-6.95847 0.136548,-10.43777 0.03702,-3.44674 0.07836,-6.89427 0.0069,-10.34088 -0.08648,-3.01056 -0.237817,-6.02151 -0.554353,-9.0176 -0.294141,-2.44602 -0.684085,-4.88072 -1.405189,-7.24304 -0.629401,-2.0116 -1.396787,-3.97776 -2.627297,-5.70926 -1.133092,-1.51255 -2.474015,-2.77443 -4.22836,-3.54789 -2.407254,-1.04774 -4.916026,-1.80562 -7.509996,-2.2369 -3.25028,-0.58317 -6.50791,-1.14058 -9.7887,-1.52426 -3.60504,-0.39354 -7.22029,-0.67135 -10.83742,-0.92835 -3.8146,-0.26377 -7.63295,-0.46465 -11.45201,-0.65195 -3.70377,-0.16819 -7.40964,-0.27568 -11.11537,-0.39075 -2.72772,-0.0804 -5.45426,-0.18703 -8.18235,-0.13201 -2.70804,0.0637 -5.42056,0.12545 -8.11655,0.40787 -2.22637,0.31971 -4.43801,0.73451 -6.5692,1.47403 -1.75668,0.61184 -3.49805,1.32723 -4.98134,2.47503 -1.24715,1.01062 -2.43116,2.12304 -3.04139,3.6456 -0.64481,1.83816 -0.7738,3.76931 -0.5455,5.70257 0.36545,2.64904 0.90752,5.26758 1.48661,7.87752 0.59334,2.66085 1.21224,5.31627 1.73614,7.99206 0.51856,2.6092 1.00001,5.23254 1.21465,7.88715 0.18431,2.70775 0.30459,5.42022 0.18833,8.13457 -0.13039,2.58507 -0.29528,5.17248 -0.752,7.72449 -0.37221,2.13836 -0.78584,4.28018 -1.53007,6.3259 -0.73282,1.88862 -1.61862,3.71375 -3.08387,5.15459 -1.60509,1.51695 -3.42366,2.72099 -5.54466,3.40217 -2.69068,0.81809 -5.46697,1.25589 -8.2783,1.37951 -3.4047,0.18016 -6.81063,0.33651 -10.21469,0.52886 -3.10418,0.18242 -6.20744,0.37848 -9.30985,0.58892 -2.84965,0.16463 -5.70366,0.23559 -8.55546,0.35511 -2.72794,0.0954 -5.4554,0.14852 -8.18522,0.12366 -2.56136,0.0161 -5.124,0.0353 -7.68233,0.17278 -2.22528,0.1646 -4.45007,0.34204 -6.66618,0.60618 -1.4343,0.16731 -2.86466,0.37394 -4.29964,0.52674 -0.38338,0.14246 -2.39809,-5.27928 -2.01472,-5.42175 z"
       inkscape:connector-curvature="0"
       inkscape:export-xdpi="54.722099"
       inkscape:export-ydpi="54.722099" />
    <rect
       style="fill:none;fill-opacity:1;stroke:#ff035c;stroke-width:12.80000019;stroke-linecap:round;stroke-linejoin:round;stroke-miterlimit:4;stroke-dasharray:none;stroke-dashoffset:0;stroke-opacity:1"
       id="rect4294"
       width="1353.6044"
       height="1353.6044"
       x="-864.69055"
       y="-2050.8264" />
    <rect
       style="fill:#ffffff;fill-opacity:1;stroke:none;stroke-width:10.93200016;stroke-linecap:round;stroke-linejoin:round;stroke-miterlimit:4;stroke-dasharray:none;stroke-dashoffset:0;stroke-opacity:1"
       id="rect4323"
       width="349.36014"
       height="470.57843"
       x="-332.26382"
       y="-970.47058" />
    <path
       style="fill:#000000;fill-opacity:1;stroke:none;stroke-width:5;stroke-linecap:round;stroke-linejoin:round;stroke-miterlimit:4;stroke-dasharray:5, 10;stroke-dashoffset:0;stroke-opacity:0.21568627"
       id="path4136-35"
       d="m -169.04778,-808.12885 c -3.26397,0.47802 -6.55805,0.70325 -9.84006,1.01993 -5.63257,0.37157 -11.08064,1.70567 -16.44414,3.39226 -7.91089,2.61395 -15.17793,6.71289 -22.19156,11.14043 -7.71414,4.95828 -14.69807,10.90966 -21.2851,17.26182 -6.01784,5.84722 -11.07195,12.53652 -15.66372,19.5307 -4.22628,6.53845 -7.62715,13.53615 -10.48971,20.76203 -2.81744,7.06514 -4.29358,14.49594 -5.27258,22.00524 -1.0274,7.97747 -0.86336,16.0251 -0.27405,24.02555 0.63529,8.20417 2.43283,16.22353 4.5965,24.13964 2.072,7.98885 5.51545,15.44476 9.55898,22.60108 4.10697,7.17391 9.26462,13.59961 14.97515,19.54257 6.28328,6.24513 13.85784,10.7808 21.59899,14.95223 8.78207,4.60818 18.19579,7.74392 27.71264,10.42116 10.0886,2.79674 20.50166,3.60109 30.92314,3.57578 9.11383,-0.20787 17.99361,-2.00506 26.75664,-4.37618 9.57996,-2.6969 18.55937,-6.96285 27.29942,-11.64683 7.894631,-4.35238 15.298411,-9.47969 22.326488,-15.10813 6.29264,-5.1023 11.85368,-10.98254 17.0683,-17.15914 4.77532,-5.71952 8.61634,-12.09371 12.08858,-18.66095 3.27322,-6.18458 5.63368,-12.76977 7.5257,-19.48908 1.70339,-6.07601 2.43357,-12.32959 2.74572,-18.61192 0.18006,-5.8558 -0.64135,-11.64839 -1.76512,-17.37598 -1.18628,-5.63281 -3.12908,-11.05609 -5.18714,-16.41774 -1.87301,-5.007 -4.48749,-9.6516 -7.46741,-14.07067 -2.89375,-4.2117 -6.33323,-7.98948 -10.01898,-11.51264 -3.67849,-3.57271 -7.85823,-6.53016 -12.11341,-9.36202 -4.48134,-2.99725 -9.139307,-5.71981 -13.867587,-8.30572 -4.904881,-2.66026 -9.977561,-4.98011 -15.033441,-7.33243 -5.4022,-2.47115 -10.83826,-4.86707 -16.34019,-7.10783 -5.43123,-2.14217 -10.86975,-4.26476 -16.29679,-6.41752 -5.0205,-2.0249 -10.14511,-3.76581 -15.3214,-5.34339 -0.74082,-0.40956 5.05124,-10.88631 5.79206,-10.47675 l 0,0 c 5.39045,1.71404 10.72571,3.59224 15.97337,5.70707 5.48052,2.1556 10.98163,4.25888 16.44139,6.46713 5.62418,2.34386 11.19624,4.81107 16.71789,7.38751 5.251631,2.46819 10.494631,4.96052 15.572671,7.77477 4.949307,2.78349 9.833217,5.68971 14.521967,8.8974 4.70491,3.22476 9.27627,6.64989 13.33134,10.68203 4.11747,4.09063 7.97149,8.44618 11.19426,13.28908 3.31915,5.07987 6.25752,10.39321 8.3794,16.09611 2.24761,5.91292 4.32491,11.9089 5.60041,18.11814 1.25232,6.52899 2.16538,13.13098 1.94533,19.7998 -0.3404,7.03219 -1.13383,14.03608 -2.99181,20.84901 -2.03469,7.42794 -4.57336,14.71699 -8.13858,21.56543 -3.76169,7.23016 -7.9247,14.25472 -13.08622,20.59155 -5.56054,6.74495 -11.50042,13.1687 -18.2318,18.77505 -7.43372,6.1239 -15.274197,11.71581 -23.656077,16.48376 -9.359101,5.16551 -18.963561,9.92263 -29.249801,12.97686 -11.65071,3.34369 -23.52289,5.76289 -35.72289,5.40267 -11.34596,-0.23319 -22.65526,-1.38921 -33.57666,-4.64906 -10.18588,-3.05176 -20.24671,-6.60909 -29.59453,-11.74906 -8.5831,-4.82525 -16.87965,-10.18705 -23.7398,-17.34331 -6.19303,-6.65465 -11.81688,-13.80206 -16.28473,-21.74919 -4.35828,-7.93253 -8.05821,-16.18341 -10.33714,-24.97629 -2.31632,-8.56449 -4.19911,-17.2478 -4.87228,-26.11627 -0.60846,-8.69474 -0.771,-17.4369 0.35146,-26.10357 1.10158,-8.33282 2.75818,-16.56707 5.83431,-24.42568 3.05565,-7.89724 6.68749,-15.55508 11.23869,-22.71373 4.94072,-7.66682 10.36809,-15.02143 16.84667,-21.47816 7.00966,-6.92806 14.45205,-13.43409 22.72369,-18.83413 7.71937,-4.97704 15.75257,-9.52812 24.48541,-12.4961 6.0528,-1.96753 12.20984,-3.62263 18.59059,-4.05211 3.22155,-0.261 6.4433,-0.48251 9.67126,-0.64809 0.76904,-0.28045 4.73533,10.59542 3.96629,10.87588 z"
       inkscape:connector-curvature="0"
       inkscape:export-xdpi="54.722099"
       inkscape:export-ydpi="54.722099" />
    <path
       style="fill:#000000;fill-opacity:1;stroke:none;stroke-width:5;stroke-linecap:round;stroke-linejoin:round;stroke-miterlimit:4;stroke-dasharray:5, 10;stroke-dashoffset:0;stroke-opacity:0.21568627"
       id="path4138-62"
       d="m -177.11946,-825.08126 c 0.469,-1.21511 0.76168,-2.48733 1.03963,-3.75672 0.40584,-1.942 0.78228,-3.88864 1.109,-5.8455 0.4109,-2.55503 0.7018,-5.12671 0.95859,-7.70108 0.28801,-3.10933 0.5278,-6.22336 0.90743,-9.3232 0.38711,-3.26525 0.99201,-6.48607 1.98796,-9.62018 1.06252,-3.12317 3.1375,-5.31091 5.98147,-6.865 3.50109,-1.57533 7.35075,-1.34913 11.05747,-0.80529 3.65572,0.56361 7.22142,1.55943 10.76237,2.60634 3.44138,1.03447 6.88547,2.05946 10.30852,3.15336 3.274,1.04274 6.42323,2.39333 9.43974,4.0318 2.78002,1.51253 5.17054,3.54798 7.35082,5.81845 2.07579,2.19562 3.5485,4.83334 4.85844,7.53133 1.38366,2.75809 1.74224,5.71164 1.53459,8.74837 -0.31362,2.97165 -1.3838,5.75604 -2.54127,8.48375 -1.25196,2.84616 -2.71062,5.59575 -4.12995,8.36066 -1.4806,2.93349 -3.01062,5.84142 -4.51855,8.7608 -1.46834,2.84239 -2.92128,5.69275 -4.36518,8.54762 -0.69872,1.38913 -1.36252,2.79535 -2.03808,4.19577 -0.15664,0.39598 -5.75656,-1.8193 -5.59992,-2.21527 l 0,0 c 0.68648,-1.4305 1.35786,-2.86828 2.0667,-4.28793 1.44512,-2.86864 2.90574,-5.72953 4.37488,-8.58594 1.49978,-2.92654 3.0334,-5.83559 4.52277,-8.76753 1.3798,-2.65563 2.80109,-5.29445 4.03929,-8.01986 0.97081,-2.20892 1.91674,-4.45263 2.24089,-6.86383 0.20085,-2.147 -0.12198,-4.18898 -1.13703,-6.12044 -1.09627,-2.21017 -2.31957,-4.37126 -4.0724,-6.13764 -1.86355,-1.85766 -3.91498,-3.4881 -6.27237,-4.68706 -2.79414,-1.42229 -5.70686,-2.57589 -8.70497,-3.49785 -3.39469,-1.06112 -6.80349,-2.07588 -10.21413,-3.08437 -3.305,-0.94775 -6.63502,-1.84693 -10.04446,-2.33446 -2.30129,-0.27058 -3.12082,-0.50685 -5.45685,0.002 -1.80598,0.61646 -2.98345,1.7483 -3.64251,3.57956 -0.91776,2.82813 -1.4188,5.74864 -1.78513,8.69654 -0.38478,3.06402 -0.63583,6.14252 -0.93426,9.21577 -0.28506,2.68393 -0.5993,5.36602 -1.05335,8.0275 -0.35652,2.03599 -0.77134,4.05962 -1.2062,6.08022 -0.35414,1.56432 -0.73771,3.12875 -1.3439,4.61805 -0.13712,0.3875 -5.61717,-1.55167 -5.48005,-1.93917 z"
       inkscape:connector-curvature="0"
       inkscape:export-xdpi="54.722099"
       inkscape:export-ydpi="54.722099" />
    <path
       style="fill:#000000;fill-opacity:1;stroke:none;stroke-width:5;stroke-linecap:round;stroke-linejoin:round;stroke-miterlimit:4;stroke-dasharray:5, 10;stroke-dashoffset:0;stroke-opacity:0.21568627"
       id="path4140-9"
       d="m -93.943169,-938.78728 c -1.18468,1.3345 -2.32515,2.70674 -3.47378,4.07207 -1.74848,2.02699 -3.455861,4.08822 -5.118701,6.18592 -1.8814,2.36354 -3.50841,4.91122 -5.09736,7.47589 -1.90227,3.04572 -3.63282,6.19338 -5.2502,9.39812 -1.81645,3.62498 -3.48967,7.31818 -5.11296,11.0328 -1.67628,3.84507 -3.2073,7.75149 -4.67853,11.6789 -1.4025,3.81442 -2.65968,7.68113 -3.87633,11.55829 -1.19169,3.83603 -2.29572,7.69892 -3.39158,11.56325 -1.04398,3.70881 -2.07039,7.42177 -3.02004,11.15594 -0.92088,3.56159 -1.67316,7.15969 -2.24201,10.79329 -0.57559,3.71781 -0.91039,7.46336 -1.15384,11.21544 -0.0335,0.61246 -0.0671,1.22491 -0.10064,1.83737 -0.0193,0.42979 -6.09751,0.15608 -6.07815,-0.27371 l 0,0 c 0.0331,-0.62978 0.0661,-1.25956 0.0992,-1.88933 0.2454,-3.91082 0.58542,-7.81549 1.19205,-11.68925 0.60267,-3.78517 1.37677,-7.53739 2.32298,-11.25253 0.95163,-3.78167 1.98664,-7.54046 3.03203,-11.29715 1.09975,-3.9125 2.21577,-7.8214 3.42531,-11.70156 1.23532,-3.96877 2.50599,-7.92883 3.93009,-11.83448 1.49564,-4.01715 3.05819,-8.01112 4.77472,-11.9397 1.65745,-3.80566 3.37006,-7.5878 5.23994,-11.29473 1.68834,-3.33796 3.50157,-6.61244 5.49008,-9.78217 1.69588,-2.72282 3.4285,-5.43072 5.42004,-7.95009 1.69804,-2.15357 3.44575,-4.2678 5.26427,-6.32109 1.21785,-1.40134 2.411471,-2.8262 3.714751,-4.15029 0.24104,-0.33154 4.92971,3.07726 4.68867,3.4088 z"
       inkscape:connector-curvature="0"
       inkscape:export-xdpi="54.722099"
       inkscape:export-ydpi="54.722099" />
    <path
       style="fill:#ff00ca;fill-opacity:1;stroke:none;stroke-width:5;stroke-linecap:round;stroke-linejoin:round;stroke-miterlimit:4;stroke-dasharray:5, 10;stroke-dashoffset:0;stroke-opacity:0.21568627"
       id="path4272"
       d="m -194.86003,-731.82113 c 1.16913,-1.35872 2.35026,-2.70651 3.55028,-4.03805 1.74281,-1.90949 3.55652,-3.75079 5.41768,-5.54444 2.00312,-1.8926 4.12488,-3.65468 6.27326,-5.37871 2.19617,-1.77644 4.57462,-3.29661 7.02731,-4.68889 2.57729,-1.46401 5.34549,-2.50379 8.19239,-3.29708 3.47867,-0.90978 7.0589,-0.93454 10.62632,-0.93685 3.24893,0.14113 6.34079,1.03574 9.34688,2.21314 3.01186,1.22222 5.6698,3.07706 8.15793,5.13767 2.36576,1.9509 4.21104,4.3534 5.76616,6.97364 1.32708,2.33421 2.11405,4.87898 2.51095,7.52087 0.31606,2.66718 -0.21291,5.26134 -1.03401,7.78401 -0.83276,2.45394 -2.0632,4.73095 -3.39972,6.9402 -1.44001,2.41162 -3.33903,4.47111 -5.3199,6.4408 -2.00813,2.00929 -4.33397,3.63206 -6.72633,5.14275 -2.43601,1.52054 -4.97863,2.85232 -7.57648,4.07121 -2.75547,1.2352 -5.62464,2.19441 -8.49584,3.11975 -2.11969,0.62834 -4.22067,1.3038 -6.22307,2.24602 -1.09455,0.52998 -2.08703,1.19933 -2.84342,2.15547 -0.64333,0.93792 -0.91172,2.05304 -1.16555,3.14464 -0.35605,1.61591 -0.41703,3.27656 -0.48508,4.9241 -0.0939,2.04204 -0.073,4.08403 0.003,6.12586 0.0735,1.37686 0.22162,2.74809 0.36497,4.11895 0.0452,0.52233 -7.3417,1.16148 -7.38689,0.63915 l 0,0 c -0.1536,-1.5101 -0.31043,-3.02073 -0.38758,-4.53717 -0.0751,-2.20875 -0.0969,-4.41766 0.0229,-6.62574 0.098,-2.02853 0.2093,-4.06907 0.65983,-6.05601 0.44133,-1.8742 0.98279,-3.73656 2.01968,-5.38086 1.2399,-1.8163 2.77604,-3.32108 4.71606,-4.39264 2.2422,-1.23324 4.60298,-2.18932 7.05976,-2.91208 2.64987,-0.81519 5.2795,-1.70973 7.86336,-2.71482 2.40369,-1.04156 4.73827,-2.23268 6.97871,-3.59294 2.04205,-1.18825 4.03836,-2.47442 5.75649,-4.11056 1.65572,-1.57771 3.28685,-3.20099 4.5094,-5.15065 1.13521,-1.78522 2.19878,-3.62111 2.92278,-5.618 0.5686,-1.55863 0.99062,-3.16796 0.81722,-4.84381 -0.26704,-1.81985 -0.8923,-3.55341 -1.8383,-5.13452 -1.24025,-1.96761 -2.73856,-3.72712 -4.57624,-5.17046 -2.01847,-1.57333 -4.167,-2.98007 -6.59233,-3.84965 -2.37358,-0.82211 -4.81894,-1.3909 -7.34763,-1.38091 0.20785,-0.01 0.83154,-0.0234 0.62355,-0.0301 -2.01591,-0.0647 -4.03668,0.14632 -6.02642,0.44631 -2.37411,0.50888 -4.66873,1.29709 -6.82676,2.42174 -2.18543,1.1666 -4.3063,2.45205 -6.25742,3.986 -2.0218,1.58295 -3.99957,3.22371 -5.90306,4.9476 -1.78436,1.67842 -3.51891,3.40562 -5.20012,5.18772 -1.24112,1.32323 -2.46011,2.66694 -3.7166,3.97539 -0.30251,0.41422 -6.16036,-3.86384 -5.85786,-4.27805 z"
       inkscape:connector-curvature="0"
       inkscape:export-xdpi="54.722099"
       inkscape:export-ydpi="54.722099" />
    <path
       style="fill:#ff00ca;fill-opacity:1;stroke:none;stroke-width:5;stroke-linecap:round;stroke-linejoin:round;stroke-miterlimit:4;stroke-dasharray:5, 10;stroke-dashoffset:0;stroke-opacity:0.21568627"
       id="path4276"
       d="m -173.29105,-649.39245 c -2.61209,0.1432 2.40848,-0.20083 -0.21165,0.23186 -1.19876,0.27058 -2.18492,0.97133 -3.09386,1.76482 -0.95824,0.90362 -1.74101,1.95471 -2.22844,3.17842 -0.11868,0.54039 -0.54813,1.64555 0.015,2.07435 0.72915,0.50335 1.54206,0.88627 2.35012,1.24768 0.70867,0.59181 5.00955,0.65795 1.56105,0.47556 0.36526,0.01 0.82657,0.12679 1.12357,-0.13292 0.47495,-0.58465 0.59483,-1.34015 0.69901,-2.06324 0.12252,-1.36416 -0.0743,-2.72638 -0.24268,-4.07754 -0.30662,-2.02577 -0.53394,-4.05257 -0.55663,-6.10205 0.003,-0.33498 0.005,-0.66997 0.008,-1.00496 0.002,-0.52184 7.38249,-0.48729 7.38004,0.0346 l 0,0 c -8.2e-4,0.30316 -0.002,0.60631 -0.002,0.90947 0.0147,1.82364 0.262,3.62512 0.4969,5.43143 0.21733,1.90633 0.42504,3.82868 0.17755,5.74432 -0.29587,1.85967 -0.79199,3.67352 -1.92564,5.21538 -1.38303,1.6854 -3.05315,2.85353 -5.271,3.12145 -2.84936,-0.0579 -5.44739,-0.25539 -7.95828,-1.73355 -1.98475,-1.15612 -3.80025,-2.5249 -4.75596,-4.69196 -0.76265,-2.21134 -0.86755,-4.4213 -0.10944,-6.66695 0.79541,-2.12527 1.94074,-4.04292 3.56417,-5.65079 1.58671,-1.52923 3.33165,-2.87017 5.43725,-3.60689 2.49946,-0.78682 5.19763,-0.9339 7.59454,0.26951 0.42653,0.28647 -3.62482,6.31851 -4.05135,6.03204 z"
       inkscape:connector-curvature="0"
       inkscape:export-xdpi="54.722099"
       inkscape:export-ydpi="54.722099" />
    <rect
       style="fill:#ffffff;fill-opacity:1;stroke:#ff035c;stroke-width:12.80000019;stroke-linecap:round;stroke-linejoin:round;stroke-miterlimit:4;stroke-dasharray:none;stroke-dashoffset:0;stroke-opacity:1"
       id="rect4292"
       width="111.42857"
       height="414.28571"
       x="-1103.1605"
       y="-167.12433"
       transform="matrix(0.74516966,0.66687494,-0.66687494,0.74516966,0,0)" />
    <rect
       style="fill:#ffffff;fill-opacity:1;stroke:#ff035c;stroke-width:12.80000019;stroke-linecap:round;stroke-linejoin:round;stroke-miterlimit:4;stroke-dasharray:none;stroke-dashoffset:0;stroke-opacity:1"
       id="rect4292-0"
       width="111.42857"
       height="414.28571"
       x="-1069.0172"
       y="-2036.2006"
       transform="matrix(0.74516966,0.66687494,-0.66687494,0.74516966,0,0)" />
    <rect
       style="fill:#ffffff;fill-opacity:1;stroke:#ff035c;stroke-width:12.80000019;stroke-linecap:round;stroke-linejoin:round;stroke-miterlimit:4;stroke-dasharray:none;stroke-dashoffset:0;stroke-opacity:1"
       id="rect4292-9"
       width="111.42857"
       height="414.28571"
       x="-86.618721"
       y="-1071.7617"
       transform="matrix(0.74516966,0.66687494,-0.66687494,0.74516966,0,0)" />
    <rect
       style="fill:#ffffff;fill-opacity:1;stroke:#ff035c;stroke-width:12.80000019;stroke-linecap:round;stroke-linejoin:round;stroke-miterlimit:4;stroke-dasharray:none;stroke-dashoffset:0;stroke-opacity:1"
       id="rect4292-3"
       width="111.42857"
       height="414.28571"
       x="-2129.5117"
       y="-1179.3125"
       transform="matrix(0.74516966,0.66687494,-0.66687494,0.74516966,0,0)" />
    <path
       style="fill:#0b7bff;fill-opacity:1;stroke:#0b7bff;stroke-width:0;stroke-linecap:round;stroke-linejoin:round;stroke-miterlimit:4;stroke-dasharray:none;stroke-dashoffset:0;stroke-opacity:1"
       id="path4327"
       d="m -1378.9053,-709.23838 c 2.7346,0.88035 5.6366,1.30897 8.5081,1.24886 0.5872,-0.0167 2.346,0.007 1.7614,-0.0501 -3.8046,-0.37039 -4.6401,0.0334 -1.681,-0.14313 2.1338,-0.12727 4.24,-0.51052 6.3419,-0.87538 5.341,-1.01342 10.5253,-2.66541 15.7001,-4.29986 6.3843,-2.01942 12.7323,-4.15558 19.0185,-6.46261 6.4576,-2.20438 12.28,-5.59315 17.8077,-9.52995 6.1717,-4.41153 11.4782,-9.80327 16.3005,-15.6241 5.1444,-6.34757 9.0466,-13.5228 12.6297,-20.82786 3.625,-7.55082 6.4338,-15.44517 8.9949,-23.40771 2.4619,-8.24921 4.8177,-16.52722 7.3716,-24.74884 2.4928,-8.39792 6.0063,-16.39522 10.2471,-24.04245 3.9456,-6.82005 8.7861,-13.01487 14.1325,-18.7779 5.1733,-5.47855 11.2673,-9.88554 17.6362,-13.85014 6.1555,-3.74229 12.842,-6.33887 19.8308,-7.98872 8.6503,-1.67802 16.9645,-0.3224 24.9733,2.89366 5.9885,2.61262 10.9854,6.70245 15.522,11.32047 4.5088,4.77413 7.8426,10.41852 10.8029,16.23496 2.9797,6.04663 5.0854,12.45468 6.969,18.91006 1.9217,6.76879 3.2805,13.67534 4.504,20.59847 1.2543,7.28113 2.1572,14.61536 2.9567,21.95825 0.8262,7.83131 1.4101,15.68498 1.9407,23.54093 0.4802,7.37915 1.3087,14.72649 2.6146,22.00454 1.0002,6.4944 3.1149,12.65805 5.7005,18.66607 2.1762,5.07863 5.3444,9.54223 9.0599,13.59108 3.4968,3.77154 7.7921,6.45445 12.346,8.74073 4.9699,2.4859 10.3112,3.90373 15.7097,5.08307 6.2161,1.25996 12.5044,2.13208 18.8241,2.64753 6.774,0.60388 13.1865,0.3351 14.6598,0.31604 6.9656,-0.15457 13.9285,-0.42657 20.8889,-0.73489 3.2924,-0.18975 6.5877,-0.3194 9.8828,-0.44942 1.4195,-0.42603 7.4445,19.64931 6.025,20.07534 l 0,0 c -3.235,0.18286 -6.4702,0.36259 -9.7064,0.52308 -7.16,0.48225 -14.3378,0.62861 -21.5082,0.89802 -9.0733,0.24345 -18.1707,0.27005 -27.2032,-0.74405 -7.0798,-0.84844 -14.1438,-1.92571 -21.068,-3.65841 -6.7785,-1.82117 -13.4301,-4.10195 -19.5666,-7.57038 -6.1573,-3.59796 -11.9007,-7.80583 -16.5695,-13.25844 -4.7103,-5.62069 -8.8,-11.69639 -11.6354,-18.49722 -3.0445,-7.25881 -5.5174,-14.72003 -6.7584,-22.52072 -1.3903,-7.91618 -2.3026,-15.90032 -2.8415,-23.92051 -0.5081,-7.62293 -1.0659,-15.24361 -1.8409,-22.84482 -0.728,-6.94707 -1.5563,-13.88558 -2.7437,-20.77149 -1.1042,-6.28589 -2.3238,-12.55904 -4.0714,-18.70313 -1.5755,-5.37595 -3.3179,-10.72233 -5.8448,-15.73974 -2.1658,-4.13974 -4.5724,-8.17925 -7.9294,-11.48228 -2.8858,-2.70018 -6.0429,-5.10205 -9.8475,-6.35178 -1.8563,-0.53101 -3.6575,-0.94962 -5.591,-1.0958 -0.6786,-0.0513 -2.7085,0.0492 -2.04,-0.0785 1.0966,-0.20946 2.2488,0.0411 3.345,-0.17079 0.6332,-0.12237 -1.288,-0.0682 -1.932,-0.10229 -5.073,0.26941 -9.7783,2.41882 -14.2458,4.71349 -5.155,2.92775 -10.1256,6.19191 -14.3581,10.38498 -4.5039,4.56345 -8.4997,9.55465 -11.8162,15.05719 -3.7427,6.48716 -6.7195,13.34344 -8.8588,20.53178 -2.5767,8.25798 -4.9701,16.56736 -7.3988,24.86978 -2.7809,8.78803 -5.838,17.50014 -9.773,25.84895 -4.1264,8.57353 -8.6547,16.97834 -14.5593,24.48444 -5.7004,7.09344 -11.9529,13.71173 -19.2952,19.14714 -6.7093,4.93886 -13.6492,9.52422 -21.5427,12.37985 -6.5942,2.56944 -13.322,4.75286 -20.0557,6.92529 -5.7602,1.72266 -11.4603,3.68026 -17.3457,4.95077 -7.0961,1.57102 -14.2775,2.68302 -21.573,1.63536 -4.5646,-0.72048 -9.0844,-1.75389 -13.2636,-3.7956 -1.2064,-0.81027 10.2525,-17.87146 11.4589,-17.06119 z"
       inkscape:connector-curvature="0" />
    <path
       style="fill:#9f9f9f;fill-opacity:1;stroke:#0b7bff;stroke-width:0;stroke-linecap:round;stroke-linejoin:round;stroke-miterlimit:4;stroke-dasharray:none;stroke-dashoffset:0;stroke-opacity:1"
       id="path4329"
       d="m -951.68594,-799.22361 c -0.1017,-4.34036 -0.42815,-8.67116 -0.69255,-13.00385 -0.42761,-7.13784 -1.08462,-14.26216 -1.81451,-21.3749 -1.05288,-9.52071 -1.92062,-19.06021 -2.89473,-28.58887 -1.01159,-10.03054 -2.21094,-20.03831 -3.49182,-30.03744 -1.27177,-10.19626 -2.55551,-20.39029 -3.8948,-30.57795 -1.34147,-10.03624 -2.55009,-20.08914 -3.67052,-30.15224 -1.03653,-10.22199 -1.53836,-20.48688 -1.96986,-30.74889 -0.39639,-10.03769 -0.6363,-20.08055 -0.85194,-30.12345 -0.17212,-9.5435 -0.40168,-19.087 -0.40396,-28.6323 0.0262,-6.1891 0.17483,-12.3757 0.42051,-18.5595 0.0499,-1.5067 21.35759,-0.8015 21.30772,0.7052 l 0,0 c -0.23208,5.9422 -0.35918,11.8873 -0.37576,17.8344 0.0191,9.4168 0.27518,18.8312 0.46349,28.2457 0.23562,9.926 0.49565,19.85174 0.89201,29.77282 0.41366,9.84916 0.85455,19.70443 1.85859,29.51475 1.1045,9.94255 2.35108,19.86822 3.68209,29.78297 1.3494,10.20715 2.61176,20.42429 3.87524,30.64233 1.30616,10.15792 2.53005,20.3244 3.53881,30.51686 0.96049,9.5737 1.77059,19.16222 2.68547,28.74043 0.62805,7.36851 1.24529,14.74389 1.56655,22.13282 0.19647,4.63281 0.4409,9.2747 0.21751,13.91111 0,1.44586 -20.44754,1.44586 -20.44754,0 z"
       inkscape:connector-curvature="0" />
    <path
       style="fill:#9f9f9f;fill-opacity:1;stroke:#0b7bff;stroke-width:0;stroke-linecap:round;stroke-linejoin:round;stroke-miterlimit:4;stroke-dasharray:none;stroke-dashoffset:0;stroke-opacity:1"
       id="path4331"
       d="m -1033.551,-1008.8917 c 2.0323,-5.0652 5.0509,-9.612 8.2471,-14.0014 4.9151,-6.436 10.5806,-12.2361 16.2485,-18.0006 6.3935,-6.6731 12.947,-13.1768 19.81772,-19.3579 6.55782,-6.0515 13.45607,-11.6238 21.30109,-15.9004 8.82717,-4.3415 18.51027,-4.1455 27.27118,0.2029 6.00028,3.3942 10.1211,8.8559 13.88218,14.472 3.51326,5.6555 6.6919,11.5041 9.63008,17.4757 2.56417,5.4359 4.85699,10.9949 7.05865,16.5857 0.46288,1.4171 -19.57756,7.9633 -20.04044,6.5462 l 0,0 c -2.02985,-5.1322 -4.11835,-10.2469 -6.50148,-15.2273 -2.59725,-5.2341 -5.35206,-10.3985 -8.47437,-15.3412 -1.98143,-2.8622 -4.00094,-5.9616 -7.32327,-7.3738 -8.28921,-2.4512 9.33637,-0.2895 -2.87867,-0.5105 -6.79442,2.9901 -12.20476,8.1129 -17.73194,12.9582 -6.67639,5.8621 -13.00752,12.0811 -19.19339,18.4576 -5.22324,5.1862 -10.46034,10.3755 -15.20174,16.0147 -2.5883,3.1094 -4.9267,6.3867 -6.8573,9.9504 -0.4915,1.3614 -19.7454,-5.5889 -19.2539,-6.9503 z"
       inkscape:connector-curvature="0" />
    <path
       style="fill:#9f9f9f;fill-opacity:1;stroke:#0b7bff;stroke-width:0;stroke-linecap:round;stroke-linejoin:round;stroke-miterlimit:4;stroke-dasharray:none;stroke-dashoffset:0;stroke-opacity:1"
       id="path4333"
       d="m -755.97872,-2012.2565 c 4.90132,0.2526 9.8049,0.4622 14.70721,0.6969 7.3158,0.5505 14.6273,1.157 21.94155,1.7278 8.06975,0.6289 16.14561,1.1755 24.22672,1.6348 8.7149,0.5091 17.43879,0.8316 26.16234,1.1474 9.2057,0.3356 18.41397,0.5878 27.623,0.8099 9.47077,0.2207 18.94284,0.3821 28.41485,0.539 6.45296,0 14.43244,-0.2104 22.60903,-0.3537 1.60892,-0.015 3.21777,-0.04 4.82675,-0.044 6.66373,-0.019 13.32553,0.01 19.98867,0.077 4.97701,0.051 6.59252,0.1391 4.42694,0.029 9.89514,-0.014 19.78773,-0.276 29.67985,-0.4957 1.46203,-0.405 7.18925,20.2713 5.72721,20.6763 l 0,0 c -10.02223,0.2282 -20.04493,0.4472 -30.06916,0.5656 -10.00133,-0.019 -20.66246,-0.124 -29.05805,-0.1674 -11.24682,0.07 -22.49037,0.6026 -33.73989,0.3467 -9.52172,-0.1612 -19.04305,-0.3454 -28.56273,-0.6027 -9.28303,-0.2521 -18.56562,-0.5293 -27.84485,-0.8979 -8.84223,-0.3676 -17.68186,-0.7983 -26.51424,-1.3581 -8.18887,-0.5364 -16.37601,-1.1024 -24.55279,-1.8025 -7.15086,-0.609 -14.29517,-1.3026 -21.45424,-1.8087 -4.54295,-0.297 -9.08349,-0.695 -13.63087,-0.8855 -1.40252,-0.3601 3.69017,-20.1949 5.0927,-19.8348 z"
       inkscape:connector-curvature="0" />
    <path
       style="fill:#9f9f9f;fill-opacity:1;stroke:#0b7bff;stroke-width:0;stroke-linecap:round;stroke-linejoin:round;stroke-miterlimit:4;stroke-dasharray:none;stroke-dashoffset:0;stroke-opacity:1"
       id="path4335"
       d="m -569.97623,-2087.0109 c 2.18395,2.9391 4.50244,5.7712 6.93178,8.5111 4.12039,4.3588 8.04375,8.8942 12.05081,13.3559 4.82438,5.532 9.29787,11.3511 13.88416,17.0777 4.80647,6.0597 9.70859,12.0426 14.5702,18.0584 5.30776,6.411 10.49475,12.9155 15.28929,19.7204 5.02749,7.1119 9.06737,14.7839 11.99785,22.9737 3.14159,9.2818 1.47785,17.6667 -3.78808,25.6768 -5.66551,6.8723 -13.5471,10.9579 -21.48687,14.6154 -7.74586,3.3115 -15.72752,6.0259 -23.66612,8.8295 -6.52236,2.1738 -12.75435,5.0725 -18.96282,7.9982 -1.22078,0.8786 -13.64701,-16.3858 -12.42623,-17.2644 l 0,0 c 6.73501,-3.2245 13.44233,-6.5597 20.51923,-8.9873 7.54587,-2.6769 15.14008,-5.221 22.61922,-8.0827 5.40695,-2.2164 10.80356,-4.5797 15.53989,-8.0598 2.99926,-2.3095 2.71823,-5.0834 1.4814,-8.5523 -2.56198,-6.6487 -6.14175,-12.8031 -10.25431,-18.6163 -4.64891,-6.471 -9.67882,-12.6479 -14.70867,-18.8248 -4.8625,-6.0586 -9.77122,-12.0801 -14.58378,-18.1785 -4.3431,-5.498 -8.62051,-11.053 -13.23173,-16.3323 -4.05698,-4.5973 -8.12806,-9.1826 -12.15471,-13.8059 -2.78214,-3.4097 -5.48969,-6.893 -7.76681,-10.6674 -0.66789,-1.2832 17.47841,-10.7286 18.1463,-9.4454 z"
       inkscape:connector-curvature="0" />
    <path
       style="fill:#9f9f9f;fill-opacity:1;stroke:#0b7bff;stroke-width:0;stroke-linecap:round;stroke-linejoin:round;stroke-miterlimit:4;stroke-dasharray:none;stroke-dashoffset:0;stroke-opacity:1"
       id="path4337"
       d="m -667.14884,-642.48221 c 3.8126,-0.10598 7.62702,-0.12768 11.44081,-0.15692 5.88057,-0.0526 11.7613,-0.0874 17.64205,-0.11235 7.25552,-0.1349 14.5041,0.0577 21.75377,0.32609 7.87847,0.31942 15.75566,0.6688 23.63406,0.98998 8.94066,0.14018 11.40846,0.0364 19.49644,-0.0516 8.69103,-0.10418 17.37178,-0.58244 26.04997,-1.03473 8.73829,-0.46689 17.4771,-0.923 26.21859,-1.32582 8.81364,-0.40105 17.63091,-0.71396 26.44894,-0.9996 5.78342,-0.18519 11.56781,-0.33693 17.35231,-0.48329 1.44856,-0.40442 7.16799,20.08123 5.71944,20.48566 l 0,0 c -5.74352,0.14097 -11.48692,0.28711 -17.22944,0.46475 -8.74402,0.27333 -17.48728,0.57268 -26.22766,0.94645 -8.69358,0.374 -17.38574,0.7781 -26.07341,1.27288 -8.92647,0.48458 -17.85293,1.00023 -26.7894,1.2633 -10.31779,0.092 -20.64195,0.20002 -30.95455,-0.2082 -7.83763,-0.33677 -15.67401,-0.70343 -23.51287,-1.01095 -7.03635,-0.24082 -14.07293,-0.29902 -21.11336,-0.2764 -5.86152,-0.025 -11.72302,-0.0597 -17.58436,-0.11235 -3.78693,-0.0291 -7.57451,-0.0505 -11.36023,-0.15692 -1.40148,-0.35984 3.68742,-20.17978 5.0889,-19.81994 z"
       inkscape:connector-curvature="0" />
    <path
       style="fill:#9f9f9f;fill-opacity:1;stroke:#0b7bff;stroke-width:0;stroke-linecap:round;stroke-linejoin:round;stroke-miterlimit:4;stroke-dasharray:none;stroke-dashoffset:0;stroke-opacity:1"
       id="path4339"
       d="m -487.51206,-717.56136 c 2.36975,3.62386 4.51232,7.38987 6.62423,11.16794 3.20344,5.62638 6.41329,11.24934 9.56025,16.90768 3.60619,6.63175 7.17014,13.28741 10.83929,19.88464 4.07201,6.82546 7.27842,14.02601 9.43717,21.66604 2.09297,8.84516 0.838,17.65095 -1.36067,26.31341 -2.32826,8.87947 -6.93143,16.70802 -12.12731,24.16804 -5.05382,7.18613 -10.99369,13.65557 -17.13415,19.91176 -3.98385,3.98222 -1.97007,2.00043 -6.04193,5.94477 -0.93993,1.16978 -17.48313,-12.12289 -16.54319,-13.29267 l 0,0 c 3.84374,-3.65426 1.92938,-1.79883 5.74193,-5.56748 5.50378,-5.54535 10.95301,-11.16711 15.55093,-17.51025 4.10124,-5.65235 8.00729,-11.42423 9.88949,-18.25119 1.56443,-5.50663 2.81423,-11.12475 1.52784,-16.83828 -1.83747,-6.3374 -4.9017,-12.13711 -8.21024,-17.82777 -3.64781,-6.61543 -7.21732,-13.27399 -10.80216,-19.92368 -3.11294,-5.67845 -6.24818,-11.34465 -9.34923,-17.0295 -1.7752,-3.27968 -3.52501,-6.57658 -5.45859,-9.76681 -0.70404,-1.26263 17.1523,-11.21928 17.85634,-9.95665 z"
       inkscape:connector-curvature="0" />
    <path
       style="fill:#9f9f9f;fill-opacity:1;stroke:#0b7bff;stroke-width:0;stroke-linecap:round;stroke-linejoin:round;stroke-miterlimit:4;stroke-dasharray:none;stroke-dashoffset:0;stroke-opacity:1"
       id="path4341"
       d="m 426.32636,-763.92471 c 0.34479,-3.9193 0.56816,-7.84755 0.77333,-11.77619 0.34615,-6.69562 0.22438,-13.40555 0.1361,-20.10642 -0.0706,-8.14489 -0.55246,-16.2791 -0.99565,-24.41015 -0.50253,-8.85797 -0.97827,-17.71733 -1.39053,-26.57998 -0.36133,-9.59449 -0.34859,-19.19566 -0.0831,-28.79155 0.30601,-9.47994 0.78498,-18.95319 1.23475,-28.42709 0.45519,-9.3893 0.82161,-18.7825 1.15613,-28.17677 0.42459,-9.74189 1.02593,-19.47449 1.82206,-29.1928 0.80278,-9.44481 1.7604,-18.87592 2.48435,-28.32728 0.39386,-5.67107 0.20654,-2.87636 0.56314,-8.38407 0.0708,-1.49948 21.2767,-0.49758 21.20586,1.0019 l 0,0 c -0.27391,5.70084 -0.12103,2.80093 -0.46155,8.69957 -0.67354,9.50634 -1.6359,18.98853 -2.44042,28.48434 -0.78029,9.44436 -1.38454,18.90141 -1.79494,28.36954 -0.34915,9.45727 -0.74019,18.91291 -1.18734,28.36609 -0.43321,9.35831 -0.89593,18.71567 -1.2268,28.07833 -0.24887,9.1664 -0.25119,18.33696 0.0648,27.50259 0.3738,8.80793 0.78008,17.61438 1.28393,26.41599 0.44814,8.40343 0.92698,16.81192 0.92807,25.23012 0.0202,7.12502 0.0881,14.26328 -0.45422,21.37302 -0.32047,4.22874 -0.65123,8.4606 -1.25228,12.6607 -0.14212,1.44007 -20.50779,-0.56982 -20.36567,-2.00989 z"
       inkscape:connector-curvature="0" />
    <path
       style="fill:#9f9f9f;fill-opacity:1;stroke:#0b7bff;stroke-width:0;stroke-linecap:round;stroke-linejoin:round;stroke-miterlimit:4;stroke-dasharray:none;stroke-dashoffset:0;stroke-opacity:1"
       id="path4347"
       d="m 354.63076,-960.56499 c 1.67177,-3.52329 3.73942,-6.83153 5.81511,-10.12558 3.01033,-4.67461 6.54363,-8.97894 10.22246,-13.13659 4.26892,-4.88833 9.21905,-9.06479 14.37274,-12.97706 5.59561,-4.24248 11.70591,-7.69528 17.97061,-10.83218 6.4094,-3.1411 13.02787,-5.8213 19.62821,-8.5275 6.864,-3.0183 14.01064,-5.1106 21.40526,-6.2793 8.34137,-1.1355 16.726,-0.5558 24.9838,0.8285 6.41311,1.0405 12.18315,3.8131 17.75558,7.0134 5.32228,3.1959 9.93209,7.2976 14.12124,11.8435 4.06462,4.47268 7.8564,9.18413 11.65001,13.88627 3.97566,5.03068 7.82702,10.15573 11.50603,15.40723 0.63118,0.99721 1.26236,1.99443 1.89353,2.99165 0.68579,1.31612 -17.927,11.01465 -18.61279,9.69853 l 0,0 c -0.51144,-0.77816 -1.02288,-1.55632 -1.53432,-2.33448 -3.4928,-4.91331 -7.12454,-9.72406 -10.88586,-14.43541 -3.51299,-4.3378 -6.97251,-8.72973 -10.79991,-12.79893 -3.06547,-3.11186 -6.44645,-5.8928 -10.32342,-7.94971 -3.90607,-2.00625 -8.00366,-3.40535 -12.40223,-3.85415 -9.88531,-1.1969 -1.74775,-0.4372 -10.1279,-0.6102 -5.94539,0.3889 -11.64499,1.866 -17.10963,4.2674 -6.2866,2.56779 -12.63185,5.00562 -18.79419,7.86547 -5.38384,2.46893 -10.65457,5.1977 -15.49239,8.6404 -4.34403,3.10935 -8.61615,6.33281 -12.2258,10.30521 -3.1678,3.34776 -6.14966,6.87244 -8.82075,10.63194 -1.81541,2.71447 -3.60089,5.44667 -5.28402,8.24335 -0.54884,1.33724 -19.46021,-6.42453 -18.91137,-7.76176 z"
       inkscape:connector-curvature="0" />
    <path
       style="fill:#9f9f9f;fill-opacity:1;stroke:#0b7bff;stroke-width:0;stroke-linecap:round;stroke-linejoin:round;stroke-miterlimit:4;stroke-dasharray:none;stroke-dashoffset:0;stroke-opacity:1"
       id="path4341-6"
       d="m 410.29399,-2096.2654 c 0.34479,-3.9193 0.56816,-7.8476 0.77333,-11.7762 0.34615,-6.6957 0.22438,-13.4056 0.1361,-20.1065 -0.0706,-8.1448 -0.55246,-16.2791 -0.99565,-24.4101 -0.50253,-8.858 -0.97827,-17.7173 -1.39053,-26.58 -0.36133,-9.5945 -0.34859,-19.1956 -0.0831,-28.7915 0.30601,-9.48 0.78498,-18.9532 1.23475,-28.4271 0.45519,-9.3893 0.82161,-18.7825 1.15613,-28.1768 0.42459,-9.7419 1.02593,-19.4745 1.82206,-29.1928 0.80278,-9.4448 1.7604,-18.8759 2.48435,-28.3273 0.39386,-5.6711 0.20654,-2.8763 0.56314,-8.3841 0.0708,-1.4994 21.2767,-0.4975 21.20586,1.0019 l 0,0 c -0.27391,5.7009 -0.12103,2.801 -0.46155,8.6996 -0.67354,9.5064 -1.6359,18.9885 -2.44042,28.4844 -0.78029,9.4443 -1.38454,18.9014 -1.79494,28.3695 -0.34915,9.4573 -0.74019,18.9129 -1.18734,28.3661 -0.43321,9.3583 -0.89593,18.7157 -1.2268,28.0783 -0.24887,9.1664 -0.25119,18.337 0.0648,27.5026 0.3738,8.8079 0.78008,17.6144 1.28393,26.416 0.44814,8.4034 0.92698,16.8119 0.92807,25.2301 0.0202,7.125 0.0881,14.2633 -0.45422,21.373 -0.32047,4.2288 -0.65123,8.4606 -1.25228,12.6607 -0.14212,1.4401 -20.50779,-0.5698 -20.36567,-2.0098 z"
       inkscape:connector-curvature="0" />
    <path
       style="fill:#9f9f9f;fill-opacity:1;stroke:#0b7bff;stroke-width:0;stroke-linecap:round;stroke-linejoin:round;stroke-miterlimit:4;stroke-dasharray:none;stroke-dashoffset:0;stroke-opacity:1"
       id="path4347-0"
       d="m 338.59839,-2292.9057 c 1.67177,-3.5233 3.73942,-6.8316 5.81511,-10.1256 3.01033,-4.6746 6.54363,-8.979 10.22246,-13.1366 4.26892,-4.8883 9.21905,-9.0648 14.37274,-12.9771 5.59561,-4.2424 11.70591,-7.6952 17.97061,-10.8321 6.4094,-3.1411 13.02787,-5.8213 19.62821,-8.5275 6.864,-3.0183 14.01064,-5.1106 21.40526,-6.2793 8.34137,-1.1355 16.726,-0.5558 24.9838,0.8285 6.41311,1.0405 12.18315,3.8131 17.75558,7.0134 5.32228,3.1959 9.93209,7.2976 14.12124,11.8435 4.06462,4.4726 7.8564,9.1841 11.65001,13.8862 3.97566,5.0307 7.82702,10.1558 11.50603,15.4073 0.63118,0.9972 1.26236,1.9944 1.89353,2.9916 0.68579,1.3161 -17.927,11.0147 -18.61279,9.6985 l 0,0 c -0.51144,-0.7781 -1.02288,-1.5563 -1.53432,-2.3344 -3.4928,-4.9134 -7.12454,-9.7241 -10.88586,-14.4355 -3.51299,-4.3378 -6.97251,-8.7297 -10.79991,-12.7989 -3.06547,-3.1118 -6.44645,-5.8928 -10.32342,-7.9497 -3.90607,-2.0062 -8.00366,-3.4053 -12.40223,-3.8541 -9.88531,-1.1969 -1.74775,-0.4372 -10.1279,-0.6102 -5.94539,0.3889 -11.64499,1.866 -17.10963,4.2674 -6.2866,2.5677 -12.63185,5.0056 -18.79419,7.8654 -5.38384,2.469 -10.65457,5.1977 -15.49239,8.6404 -4.34403,3.1094 -8.61615,6.3328 -12.2258,10.3052 -3.1678,3.3478 -6.14966,6.8725 -8.82075,10.632 -1.81541,2.7144 -3.60089,5.4466 -5.28402,8.2433 -0.54884,1.3373 -19.46021,-6.4245 -18.91137,-7.7617 z"
       inkscape:connector-curvature="0" />
    <path
       style="fill:#9f9f9f;fill-opacity:1;stroke:#0b7bff;stroke-width:0;stroke-linecap:round;stroke-linejoin:round;stroke-miterlimit:4;stroke-dasharray:none;stroke-dashoffset:0;stroke-opacity:1"
       id="path4333-2"
       d="m 538.21208,-1985.7466 c 4.90132,0.2526 9.8049,0.4622 14.70721,0.6969 7.3158,0.5505 14.6273,1.157 21.94155,1.7278 8.06975,0.6289 16.14561,1.1755 24.22672,1.6348 8.7149,0.5091 17.43879,0.8316 26.16234,1.1474 9.2057,0.3356 18.41397,0.5878 27.623,0.8099 9.47077,0.2207 18.94284,0.3821 28.41485,0.539 6.45296,0 14.43244,-0.2104 22.60903,-0.3537 1.60892,-0.015 3.21777,-0.04 4.82675,-0.044 6.66373,-0.019 13.32553,0.01 19.98867,0.077 4.97701,0.051 6.59252,0.1391 4.42694,0.029 9.89514,-0.014 19.78773,-0.276 29.67985,-0.4957 1.46203,-0.405 7.18925,20.2713 5.72721,20.6763 l 0,0 c -10.02223,0.2282 -20.04493,0.4472 -30.06916,0.5656 -10.00133,-0.019 -20.66246,-0.124 -29.05805,-0.1674 -11.24682,0.07 -22.49037,0.6026 -33.73989,0.3467 -9.52172,-0.1612 -19.04305,-0.3454 -28.56273,-0.6027 -9.28303,-0.2521 -18.56562,-0.5293 -27.84485,-0.8979 -8.84223,-0.3676 -17.68186,-0.7983 -26.51424,-1.3581 -8.18887,-0.5364 -16.37601,-1.1024 -24.55279,-1.8025 -7.15086,-0.609 -14.29517,-1.3026 -21.45424,-1.8087 -4.54295,-0.297 -9.08349,-0.695 -13.63087,-0.8855 -1.40252,-0.3601 3.69017,-20.1949 5.0927,-19.8348 z"
       inkscape:connector-curvature="0" />
    <path
       style="fill:#9f9f9f;fill-opacity:1;stroke:#0b7bff;stroke-width:0;stroke-linecap:round;stroke-linejoin:round;stroke-miterlimit:4;stroke-dasharray:none;stroke-dashoffset:0;stroke-opacity:1"
       id="path4335-6"
       d="m 724.21457,-2060.501 c 2.18395,2.9391 4.50244,5.7712 6.93178,8.5111 4.12039,4.3588 8.04375,8.8942 12.05081,13.3559 4.82438,5.532 9.29787,11.3511 13.88416,17.0777 4.80647,6.0597 9.70859,12.0426 14.5702,18.0584 5.30776,6.411 10.49475,12.9155 15.28929,19.7204 5.02749,7.1119 9.06737,14.7839 11.99785,22.9737 3.14159,9.2818 1.47785,17.6667 -3.78808,25.6768 -5.66551,6.8723 -13.5471,10.9579 -21.48687,14.6154 -7.74586,3.3115 -15.72752,6.0259 -23.66612,8.8295 -6.52236,2.1738 -12.75435,5.0725 -18.96282,7.9982 -1.22078,0.8786 -13.64701,-16.3858 -12.42623,-17.2644 l 0,0 c 6.73501,-3.2245 13.44233,-6.5597 20.51923,-8.9873 7.54587,-2.6769 15.14008,-5.221 22.61922,-8.0827 5.40695,-2.2164 10.80356,-4.5797 15.53989,-8.0598 2.99926,-2.3095 2.71823,-5.0834 1.4814,-8.5523 -2.56198,-6.6487 -6.14175,-12.8031 -10.25431,-18.6163 -4.64891,-6.471 -9.67882,-12.6479 -14.70867,-18.8248 -4.8625,-6.0586 -9.77122,-12.0801 -14.58378,-18.1785 -4.3431,-5.498 -8.62051,-11.053 -13.23173,-16.3323 -4.05698,-4.5973 -8.12806,-9.1826 -12.15471,-13.8059 -2.78214,-3.4097 -5.48969,-6.893 -7.76681,-10.6674 -0.66789,-1.2832 17.47841,-10.7286 18.1463,-9.4454 z"
       inkscape:connector-curvature="0" />
    <ellipse
       style="fill:#b500ff;fill-opacity:1;stroke:#0b7bff;stroke-width:0;stroke-linecap:round;stroke-linejoin:round;stroke-miterlimit:4;stroke-dasharray:none;stroke-dashoffset:0;stroke-opacity:1"
       id="path4400"
       cx="422.24377"
       cy="-2626.6133"
       rx="163.64471"
       ry="151.52289" />
    <rect
       style="fill:#ffffff;fill-opacity:1;stroke:none;stroke-width:10.93200016;stroke-linecap:round;stroke-linejoin:round;stroke-miterlimit:4;stroke-dasharray:none;stroke-dashoffset:0;stroke-opacity:1"
       id="rect4323-1"
       width="349.36014"
       height="183.69511"
       x="249.58401"
       y="-2657.8518" />
    <path
       style="fill:#b500ff;fill-opacity:1;stroke:#0b7bff;stroke-width:0;stroke-linecap:round;stroke-linejoin:round;stroke-miterlimit:4;stroke-dasharray:none;stroke-dashoffset:0;stroke-opacity:1"
       id="path4429"
       d="m 371.86457,-2924.8244 c 1.41781,-1.8528 3.03256,-3.5307 4.70881,-5.148 2.65057,-2.5321 5.55032,-4.7775 8.47579,-6.9782 3.39097,-2.5538 6.92077,-4.9026 10.60246,-7.0134 4.20175,-2.4541 8.77658,-3.7642 13.56873,-4.3714 6.43759,-0.651 12.35429,1.0408 18.2048,3.5058 5.18239,2.2779 9.63008,5.7335 13.63681,9.6762 3.75387,3.9624 6.5009,8.6592 8.65143,13.6412 1.89526,4.6024 2.50713,9.4651 2.39452,14.4002 -0.22946,4.8632 -1.98322,9.2816 -4.29183,13.4941 -2.35605,4.0517 -5.47144,7.5595 -8.66781,10.9562 -3.11188,3.2601 -6.44406,6.2976 -9.72053,9.3889 -3.50608,3.3554 -7.25762,6.4248 -11.15927,9.3044 -4.09938,3.0203 -8.53566,5.5136 -13.07292,7.8028 -4.36471,2.1605 -8.90573,3.9266 -13.51418,5.4879 -4.17102,1.4177 -8.50889,2.1379 -12.89008,2.443 -4.8092,0.34 -9.19694,-0.4242 -13.28899,-2.9453 -3.10047,-2.1306 -4.50504,-5.0579 -4.66799,-8.7394 0.29316,-3.3855 2.22875,-6.0042 4.37604,-8.4811 2.19212,-2.4761 4.8723,-4.376 7.71608,-6.0219 3.63886,-1.997 7.63001,-3.1775 11.62612,-4.2149 5.20106,-1.3078 10.54693,-1.503 15.87714,-1.1038 4.23279,0.3256 8.28572,1.514 12.1988,3.1021 3.6505,1.5315 6.82377,3.8519 9.73813,6.492 2.58633,2.5758 4.93681,5.3773 7.28225,8.1708 2.34246,2.8298 4.7861,5.5688 7.25244,8.29 2.49901,2.7063 5.11059,5.3053 7.75873,7.8647 1.30102,1.3194 2.68118,2.5566 4.03636,3.8193 0.47497,0.5769 -7.68419,7.2939 -8.15916,6.717 l 0,0 c -1.39818,-1.3067 -2.7975,-2.6126 -4.1548,-3.9621 -2.7636,-2.7064 -5.49312,-5.4485 -8.0918,-8.3151 -2.53986,-2.8064 -5.01894,-5.6647 -7.43439,-8.5792 -2.04901,-2.4503 -4.07971,-4.9403 -6.42529,-7.1165 -2.21841,-1.8582 -4.63255,-3.4419 -7.37536,-4.4248 -3.14677,-1.0936 -6.38841,-1.8222 -9.73237,-1.9327 -1.19028,-0.038 -4.66614,-0.2934 -8.1692,0.5388 -3.31165,0.714 -6.61279,1.5715 -9.74171,2.8894 -2.08823,1.0219 -4.09605,2.1686 -5.7374,3.8492 -0.76077,0.7738 -1.73144,2.1245 -2.52408,2.5381 -0.47061,-0.7011 0.51105,0.5486 0.88432,0.5222 0.70844,0.2879 7.34099,1.3549 3.76641,0.9287 3.59094,-0.03 7.15339,-0.5313 10.59488,-1.5836 4.23949,-1.3549 8.40986,-2.9269 12.4357,-4.832 4.12904,-1.9963 8.18608,-4.1538 11.92741,-6.8237 3.64948,-2.5911 7.16153,-5.3552 10.42301,-8.4274 3.1701,-2.9716 6.36992,-5.9146 9.42743,-9.003 2.74269,-2.8315 5.4595,-5.7216 7.57194,-9.0704 1.71739,-2.8757 3.13136,-5.8518 3.32446,-9.2607 0.11654,-3.6139 -0.3775,-7.1629 -1.82047,-10.5104 -1.76253,-3.8781 -3.95878,-7.5468 -6.99095,-10.58 -3.27495,-3.0574 -6.89032,-5.7122 -11.07875,-7.3931 -1.99852,-0.7619 -3.96816,-1.4686 -6.07532,-1.8772 -1.24989,-0.2423 -2.55362,-0.1355 -3.79802,-0.4047 -0.2678,-0.058 0.54235,-0.078 0.81352,-0.1176 -3.62503,0.056 -7.04817,0.7877 -10.2599,2.5461 -3.40947,1.814 -6.64031,3.9157 -9.75382,6.2009 -2.70525,1.9762 -5.41225,3.9612 -7.91987,6.1879 -1.49291,1.3141 -2.95605,2.6556 -4.25578,4.1653 -0.40246,0.6012 -8.90493,-5.0904 -8.50248,-5.6916 z"
       inkscape:connector-curvature="0" />
    <ellipse
       style="fill:#b500ff;fill-opacity:1;stroke:#0b7bff;stroke-width:0;stroke-linecap:round;stroke-linejoin:round;stroke-miterlimit:4;stroke-dasharray:none;stroke-dashoffset:0;stroke-opacity:1"
       id="path4400-8"
       cx="-2023.0188"
       cy="-1078.7087"
       rx="163.64471"
       ry="151.52289"
       transform="matrix(-0.03039144,0.99953807,-0.99953807,-0.03039144,0,0)" />
    <rect
       style="fill:#ffffff;fill-opacity:1;stroke:none;stroke-width:10.93200016;stroke-linecap:round;stroke-linejoin:round;stroke-miterlimit:4;stroke-dasharray:none;stroke-dashoffset:0;stroke-opacity:1"
       id="rect4323-1-7"
       width="349.36014"
       height="183.69511"
       x="-2195.6785"
       y="-1109.9473"
       transform="matrix(-0.03039144,0.99953807,-0.99953807,-0.03039144,0,0)" />
    <path
       style="fill:#b500ff;fill-opacity:1;stroke:#0b7bff;stroke-width:0;stroke-linecap:round;stroke-linejoin:round;stroke-miterlimit:4;stroke-dasharray:none;stroke-dashoffset:0;stroke-opacity:1"
       id="path4454"
       d="m 1360.927,-1983.9234 c 0.7169,-1.6028 1.5073,-3.1684 2.3597,-4.7028 1.3942,-2.434 2.9277,-4.781 4.5208,-7.0883 1.9698,-2.7595 3.897,-5.5462 5.6577,-8.4442 1.9734,-3.2039 3.7389,-6.5288 5.3876,-9.9094 1.9122,-4.0422 3.3666,-8.2762 4.7346,-12.5267 1.2329,-4.0512 2.3462,-8.1381 3.8719,-12.0917 1.1013,-2.1814 2.8162,-6.0645 5.7073,-6.4067 1.6441,-0.1946 3.3081,0.1428 4.9621,0.2141 3.102,1.8334 4.3062,4.9323 5.3397,8.1948 0.9778,3.2443 1.7947,6.5345 2.5658,9.8331 0.9724,4.1752 1.6749,8.4044 2.3074,12.6421 0.7115,4.8769 1.1999,9.7816 1.6483,14.6884 0.4667,5.2339 0.7947,10.4788 1.0973,15.7243 0.3241,4.9945 0.7221,9.9838 1.0955,14.9748 0.3025,4.7128 0.7348,9.415 1.1735,14.1166 0.4321,4.5256 0.8247,9.0547 1.1853,13.5866 0.3334,4.392 0.6595,8.7855 0.845,13.1865 0.2932,4.4423 -0.5467,8.7137 -2.1986,12.8129 -1.8103,4.0493 -4.9466,6.9987 -8.4741,9.5499 -3.8928,2.6156 -8.293,4.2621 -12.7102,5.7453 -4.6257,1.5061 -9.37,2.5897 -14.1332,3.5538 -4.3631,0.8575 -8.7567,1.5408 -13.1501,2.2204 -2.1045,-0.043 -4.7615,1.8832 -2.54,-0.5768 -0.3994,-2.421 -0.9431,-4.8224 -1.198,-7.2628 -0.02,-0.1912 2.7363,-0.104 2.0506,-0.1921 -0.5669,-0.073 -3.1438,0.015 -0.2557,-0.062 3.2493,-0.1455 6.4913,-0.4461 9.7213,-0.8224 3.9641,-0.5098 7.8864,-1.2939 11.8072,-2.0588 4.2406,-0.8173 8.4651,-1.7076 12.6598,-2.7345 4.3243,-1.1026 8.6611,-2.1552 13.0047,-3.1789 4.6188,-1.1015 9.2765,-2.0219 13.9495,-2.8588 4.8412,-0.8653 9.7173,-1.5078 14.5994,-2.0898 2.5034,-0.3224 5.0214,-0.4619 7.5405,-0.581 0.7263,-0.2088 3.6791,10.0629 2.9528,10.2717 l 0,0 c -2.2835,0.043 -4.5673,0.1045 -6.8385,0.3726 -4.72,0.5324 -9.4373,1.1024 -14.1242,1.8804 -4.5221,0.7725 -9.0351,1.6043 -13.5043,2.6451 -4.3014,0.9851 -8.5997,1.9864 -12.8759,3.0756 -4.3314,1.1164 -8.6851,2.1354 -13.0871,2.9378 -4.1162,0.8087 -8.2402,1.6008 -12.3885,2.2246 -3.5194,0.4767 -7.0584,0.7536 -10.6036,0.9591 -2.1587,0.054 -8.8309,0.049 -9.1281,-0.5362 -1.2251,-2.4117 -1.8216,-5.0941 -2.7324,-7.6412 1.8958,-2.1392 4.0522,-3.0005 6.8742,-3.4694 4.3041,-0.8847 8.649,-1.5513 12.9742,-2.3227 4.4394,-0.8276 8.8681,-1.7388 13.1955,-3.0463 3.6784,-1.1246 7.3675,-2.3122 10.7453,-4.1874 2.2748,-1.378 4.4441,-2.9212 5.7481,-5.3114 1.3187,-2.8115 1.7135,-5.8229 1.4993,-8.9195 -0.2021,-4.2936 -0.5189,-8.5807 -0.8534,-12.8658 -0.3653,-4.4903 -0.7634,-8.9778 -1.2009,-13.4618 -0.4533,-4.7547 -0.8967,-9.5103 -1.2173,-14.2762 -0.3905,-5.0427 -0.8064,-10.0837 -1.1389,-15.1307 -0.3056,-5.1523 -0.6352,-10.3036 -1.0634,-15.4474 -0.4157,-4.742 -0.8725,-9.4824 -1.5304,-14.1978 -0.5702,-4.0007 -1.2071,-7.9938 -2.0968,-11.9378 -0.7028,-3.0905 -1.4247,-6.1793 -2.2808,-9.2314 -0.3162,-1.0554 -1.8254,-3.5213 0.1424,-1.6541 1.3086,-0.019 2.6374,0.1727 3.9258,-0.057 1.0315,-0.184 1.3939,-2.6491 0.033,0.2332 -1.3982,3.8422 -2.3328,7.827 -3.5583,11.725 -1.4925,4.6695 -3.0946,9.316 -5.2228,13.741 -1.779,3.6034 -3.6667,7.157 -5.7592,10.5894 -1.8569,3.0933 -3.8827,6.0739 -6.0172,8.9828 -1.498,2.0584 -2.9483,4.1501 -4.281,6.3197 -0.8257,1.349 -1.5501,2.7508 -2.2641,4.1612 -0.2744,0.6687 -9.7301,-3.2122 -9.4557,-3.8808 z"
       inkscape:connector-curvature="0" />
  </g>
</svg>
