<?xml version="1.0" encoding="UTF-8" standalone="no"?>
<!-- Created with Inkscape (http://www.inkscape.org/) -->

<svg
   xmlns:dc="http://purl.org/dc/elements/1.1/"
   xmlns:cc="http://creativecommons.org/ns#"
   xmlns:rdf="http://www.w3.org/1999/02/22-rdf-syntax-ns#"
   xmlns:svg="http://www.w3.org/2000/svg"
   xmlns="http://www.w3.org/2000/svg"
   xmlns:sodipodi="http://sodipodi.sourceforge.net/DTD/sodipodi-0.dtd"
   xmlns:inkscape="http://www.inkscape.org/namespaces/inkscape"
   width="50mm"
   height="30mm"
   viewBox="0 0 177.16535 106.29921"
   id="svg2"
   version="1.1"
   inkscape:version="0.91 r13725"
   inkscape:export-filename="/home/noon/dev/silky.github.com/src/images/wave-down.png"
   inkscape:export-xdpi="48.0396"
   inkscape:export-ydpi="48.0396"
   sodipodi:docname="wave-down.svg">
  <defs
     id="defs4" />
  <sodipodi:namedview
     id="base"
     pagecolor="#ffffff"
     bordercolor="#666666"
     borderopacity="1.0"
     inkscape:pageopacity="0.0"
     inkscape:pageshadow="2"
     inkscape:zoom="1.979899"
     inkscape:cx="49.944335"
     inkscape:cy="81.490157"
     inkscape:document-units="px"
     inkscape:current-layer="layer1"
     showgrid="false"
     inkscape:window-width="1375"
     inkscape:window-height="1438"
     inkscape:window-x="0"
     inkscape:window-y="0"
     inkscape:window-maximized="0" />
  <metadata
     id="metadata7">
    <rdf:RDF>
      <cc:Work
         rdf:about="">
        <dc:format>image/svg+xml</dc:format>
        <dc:type
           rdf:resource="http://purl.org/dc/dcmitype/StillImage" />
        <dc:title></dc:title>
      </cc:Work>
    </rdf:RDF>
  </metadata>
  <g
     inkscape:label="Layer 1"
     inkscape:groupmode="layer"
     id="layer1"
     transform="translate(0,-946.06299)">
    <rect
       style="fill:#ffffff;fill-opacity:1;stroke:none;stroke-width:2.5999999;stroke-linecap:square;stroke-linejoin:bevel;stroke-miterlimit:4;stroke-dasharray:none;stroke-dashoffset:0;stroke-opacity:1"
       id="rect4273"
       width="180.81731"
       height="103.03556"
       x="-1.1229422"
       y="948.34442" />
    <path
       style="fill:#005fff;fill-opacity:1;stroke:none;stroke-width:2.5999999;stroke-linecap:square;stroke-linejoin:bevel;stroke-miterlimit:4;stroke-dasharray:none;stroke-dashoffset:0;stroke-opacity:1"
       id="path4154"
       d="m 10.294571,965.43579 c 1.5163,-0.234 3.0432,-0.3915 4.569,-0.5497 2.3438,-0.2772 4.6978,-0.395 7.0553,-0.4678 1.5485,-0.034 3.5517,0.1618 5.6786,0.5702 2.3311,0.4979 4.542,1.3961 6.6817,2.4273 2.2677,1.1157 4.3539,2.5394 6.3577,4.0691 2.1219,1.6338 4.0006,3.5446 5.7939,5.5252 1.9425,2.1907 3.6386,4.5791 5.2765,7.0008 1.6816,2.4386 3.0774,5.0484 4.3564,7.7148 1.273,2.7218 2.4379,5.4932 3.5845,8.2702 1.0746,2.67221 2.0754,5.37371 3.0191,8.09471 0.9792,2.7655 1.8589,5.5646 2.7909,8.346 0.9525,2.8554 1.9865,5.6826 3.0582,8.4952 1.0346,2.8165 2.1512,5.5952 3.4901,8.2812 1.2725,2.4766 2.8282,4.7777 4.5815,6.9349 1.6395,2.0131 3.6782,3.5934 5.8663,4.9596 2.132,1.3146 4.5032,1.9423 6.9709,2.1878 2.9373,0.2352 5.5434,-0.4813 8.1073,-1.8284 1.9275,-1.0828 3.453699,-2.6778 4.896599,-4.3223 1.4083,-1.6684 2.5427,-3.5407 3.6011,-5.4434 1.09994,-2.0518 2.0529,-4.1762 2.98511,-6.3079 0.98942,-2.3103 1.91767,-4.6457 2.83501,-6.9854 0.98014,-2.494 1.8017,-5.0456 2.62625,-7.594 0.84367,-2.6118 1.63828,-5.2385 2.43816,-7.8639 0.82548,-2.6679 1.5515,-5.3647 2.31475,-8.05081 0.73508,-2.6297 1.45406,-5.2639 2.20559,-7.889 0.73065,-2.6173 1.55737,-5.2059 2.45938,-7.7689 0.87538,-2.5105 1.79097,-5.0059 2.84073,-7.4491 0.96394,-2.2151 2.14386,-4.3148 3.49302,-6.3152 1.2435,-1.8275 2.81436,-3.3696 4.51246,-4.7679 1.70629,-1.368 3.63175,-2.4029 5.60094,-3.3333 1.9772,-0.8914 4.06859,-1.4732 6.16886,-1.9891 2.13277,-0.4696 4.30587,-0.7074 6.47653,-0.9182 2.29001,-0.2435 4.58838,-0.3199 6.88944,-0.3384 1.4338,0 3.49634,0.016 5.6747,0.068 0.40486,0.016 0.80971,0.032 1.21455,0.048 0.40315,0.12 2.09998,-5.5813 1.69683,-5.7013 l 0,0 c -0.42562,-0.021 -0.85125,-0.043 -1.27688,-0.064 -2.95183,-0.1188 -5.9083,-0.1018 -8.86187,-0.081 -2.44434,0.057 -4.88478,0.1966 -7.31487,0.4755 -2.40493,0.2747 -4.81079,0.5961 -7.1575,1.2069 -2.40591,0.6552 -4.79239,1.406 -7.03475,2.5134 -2.30322,1.1729 -4.54231,2.4806 -6.51372,4.1682 -2.00165,1.7542 -3.85234,3.671 -5.32019,5.9049 -1.48285,2.2739 -2.80225,4.6443 -3.87383,7.1422 -1.07939,2.551 -2.0463,5.1457 -2.9518,7.7633 -0.92486,2.6592 -1.78427,5.3404 -2.53376,8.0549 -0.74523,2.627 -1.46667,5.2608 -2.20579,7.8895 -0.75883,2.65741 -1.48131,5.32541 -2.29607,7.96651 -0.78572,2.598 -1.57657,5.1941 -2.40637,7.7785 -0.79283,2.4529 -1.58353,4.9083 -2.53011,7.3074 -0.8911,2.2802 -1.7888,4.5579 -2.7525,6.8085 -0.8654,1.9821 -1.7439,3.961 -2.7759,5.8635 -0.893699,1.5826 -1.839399,3.1483 -3.047199,4.5155 -1.0511,1.1516 -2.1428,2.2863 -3.5705,2.9701 -0.9202,0.4066 -1.8328,0.7168 -2.8395,0.8278 -0.2528,0.028 -0.6244,-0.1638 -0.7615,0.05 -0.1262,0.1974 0.4676,0.029 0.7014,0.044 -1.6974,0.034 -3.344,-0.2368 -4.8567,-1.0539 -1.7593,-0.9928 -3.4053,-2.1653 -4.7251,-3.7145 -1.556,-1.8342 -2.9074,-3.8165 -4.0261,-5.9496 -1.2829,-2.5266 -2.3162,-5.1576 -3.2979,-7.8142 -1.0552,-2.7443 -2.0673,-5.5055 -2.9995,-8.2942 -0.9403,-2.7938 -1.8291,-5.6049 -2.8096,-8.3851 -0.9674,-2.8142 -2,-5.6057 -3.0976,-8.37191 -1.1709,-2.866 -2.3647,-5.7247 -3.6697,-8.5326 -1.3708,-2.8989 -2.8659,-5.7392 -4.674,-8.394 -1.761,-2.6214 -3.5764,-5.2122 -5.6588,-7.5925 -1.9792,-2.2102 -4.049,-4.348 -6.3787,-6.1949 -2.2321,-1.7634 -4.5621,-3.4078 -7.0962,-4.7147 -2.4805,-1.2848 -5.0673,-2.364 -7.7765,-3.0689 -3.2289,-0.7511 -6.4988,-1.1075 -9.823,-0.8686 -2.4777,0.1157 -4.9501,0.3073 -7.41,0.633 -1.6185,0.2116 -3.2376996,0.4357 -4.8300996,0.8012 -0.3747,0.1616 1.91,5.4615 2.2847996,5.2999 z"
       inkscape:connector-curvature="0"
       inkscape:export-xdpi="48.0396"
       inkscape:export-ydpi="48.0396" />
  </g>
</svg>
