<?xml version="1.0" encoding="UTF-8" standalone="no"?>
<!-- Created with Inkscape (http://www.inkscape.org/) -->

<svg
   xmlns:dc="http://purl.org/dc/elements/1.1/"
   xmlns:cc="http://creativecommons.org/ns#"
   xmlns:rdf="http://www.w3.org/1999/02/22-rdf-syntax-ns#"
   xmlns:svg="http://www.w3.org/2000/svg"
   xmlns="http://www.w3.org/2000/svg"
   xmlns:sodipodi="http://sodipodi.sourceforge.net/DTD/sodipodi-0.dtd"
   xmlns:inkscape="http://www.inkscape.org/namespaces/inkscape"
   width="50mm"
   height="30mm"
   viewBox="0 0 177.16536 106.29921"
   id="svg2"
   version="1.1"
   inkscape:version="0.91 r13725"
   inkscape:export-filename="/home/noon/dev/silky.github.com/src/images/wave-up.png"
   inkscape:export-xdpi="48.0396"
   inkscape:export-ydpi="48.0396"
   sodipodi:docname="wave-up.svg">
  <defs
     id="defs4" />
  <sodipodi:namedview
     id="base"
     pagecolor="#ffffff"
     bordercolor="#666666"
     borderopacity="1.0"
     inkscape:pageopacity="0.0"
     inkscape:pageshadow="2"
     inkscape:zoom="1.4"
     inkscape:cx="182.14175"
     inkscape:cy="500.78708"
     inkscape:document-units="px"
     inkscape:current-layer="layer1"
     showgrid="false"
     fit-margin-top="0"
     fit-margin-left="0"
     fit-margin-right="0"
     fit-margin-bottom="0"
     showguides="false"
     inkscape:window-width="1375"
     inkscape:window-height="1438"
     inkscape:window-x="0"
     inkscape:window-y="0"
     inkscape:window-maximized="0" />
  <metadata
     id="metadata7">
    <rdf:RDF>
      <cc:Work
         rdf:about="">
        <dc:format>image/svg+xml</dc:format>
        <dc:type
           rdf:resource="http://purl.org/dc/dcmitype/StillImage" />
        <dc:title></dc:title>
      </cc:Work>
    </rdf:RDF>
  </metadata>
  <g
     inkscape:label="Layer 1"
     inkscape:groupmode="layer"
     id="layer1"
     transform="translate(245.84639,275.27943)">
    <rect
       style="fill:#ffffff;fill-opacity:1;stroke:none;stroke-width:2.5999999;stroke-linecap:square;stroke-linejoin:bevel;stroke-miterlimit:4;stroke-dasharray:none;stroke-dashoffset:0;stroke-opacity:1"
       id="rect4273"
       width="180.81731"
       height="103.03556"
       x="-246.85654"
       y="-273.02594" />
    <path
       style="fill:#ffcc00;fill-opacity:1;stroke:none;stroke-width:2.6;stroke-linecap:square;stroke-linejoin:bevel;stroke-miterlimit:4;stroke-dasharray:none;stroke-dashoffset:0;stroke-opacity:1"
       id="path4154"
       d="m -235.43907,-187.08162 c 1.51632,0.23395 3.04329,0.3915 4.56901,0.54963 2.34382,0.27723 4.69787,0.39504 7.05533,0.46785 1.54852,0.0335 3.55171,-0.16183 5.67857,-0.57018 2.33118,-0.4979 4.542,-1.3961 6.68172,-2.42736 2.26767,-1.11564 4.35393,-2.53938 6.35768,-4.06907 2.12194,-1.63381 4.00064,-3.54457 5.79397,-5.52523 1.94245,-2.19066 3.63858,-4.57913 5.27651,-7.00081 1.68156,-2.43861 3.07737,-5.04834 4.35636,-7.71479 1.27297,-2.72181 2.43794,-5.49322 3.58448,-8.27023 1.07463,-2.67217 2.07542,-5.37363 3.01907,-8.09463 0.97926,-2.76554 1.85892,-5.56459 2.79091,-8.34602 0.95251,-2.85542 1.98658,-5.68263 3.05822,-8.49522 1.03457,-2.81653 2.15118,-5.59516 3.49013,-8.28117 1.27251,-2.47666 2.8282,-4.77772 4.5815,-6.9349 1.63948,-2.01313 3.67815,-3.5934 5.86631,-4.95959 2.13193,-1.31468 4.50321,-1.9423 6.97087,-2.18786 2.93735,-0.23516 5.54336,0.48133 8.10735,1.82838 1.92745,1.08283 3.45365,2.67789 4.89658,4.32234 1.40826,1.66845 2.5427,3.54074 3.6011,5.44341 1.09991,2.05183 2.05287,4.17621 2.98508,6.30794 0.98942,2.3103 1.91767,4.64568 2.83501,6.98532 0.98014,2.49406 1.8017,5.04562 2.62625,7.59407 0.84367,2.6118 1.63828,5.23852 2.43816,7.86388 0.82548,2.66793 1.5515,5.36474 2.31475,8.05076 0.73508,2.6297 1.45406,5.26398 2.20559,7.88907 0.73065,2.6173 1.55737,5.20591 2.45938,7.76883 0.87538,2.5105 1.79097,5.00598 2.84073,7.44914 0.96394,2.21514 2.14386,4.31478 3.49302,6.31524 1.2435,1.82741 2.81436,3.36955 4.51246,4.76784 1.70629,1.368 3.63175,2.40291 5.60094,3.33331 1.9772,0.89145 4.06859,1.47316 6.16886,1.98913 2.13277,0.46956 4.30587,0.70734 6.47653,0.91814 2.290011,0.24353 4.588383,0.31994 6.889445,0.33841 1.433799,-0.003 3.496335,-0.0164 5.674702,-0.068 0.404859,-0.016 0.809704,-0.0322 1.21455,-0.0483 0.403143,-0.11998 2.099972,5.5813 1.696829,5.7013 l 0,0 c -0.425618,0.0214 -0.851248,0.0429 -1.276879,0.0643 -2.951831,0.11881 -5.908302,0.10178 -8.861875,0.0805 -2.444334,-0.0567 -4.884782,-0.1966 -7.314872,-0.47551 -2.40493,-0.27468 -4.81079,-0.59607 -7.1575,-1.20686 -2.40591,-0.65523 -4.79239,-1.40601 -7.03475,-2.51336 -2.30322,-1.17298 -4.54231,-2.48068 -6.51372,-4.16824 -2.00165,-1.75423 -3.85234,-3.67097 -5.32019,-5.90495 -1.48285,-2.27383 -2.80225,-4.64428 -3.87383,-7.14218 -1.07939,-2.55095 -2.0463,-5.14564 -2.9518,-7.76331 -0.92486,-2.65919 -1.78427,-5.3404 -2.53376,-8.05485 -0.74523,-2.62706 -1.46667,-5.2608 -2.20579,-7.88956 -0.75883,-2.65739 -1.48131,-5.32532 -2.29607,-7.96644 -0.78572,-2.59798 -1.57657,-5.19414 -2.40637,-7.77852 -0.79283,-2.45286 -1.58353,-4.90834 -2.53008,-7.30745 -0.89111,-2.28011 -1.78881,-4.55781 -2.7525,-6.8085 -0.86543,-1.98206 -1.74396,-3.96093 -2.77596,-5.86347 -0.89366,-1.58257 -1.83933,-3.1483 -3.04719,-4.51545 -1.05107,-1.15165 -2.14275,-2.28632 -3.57044,-2.97018 -0.92028,-0.40654 -1.83283,-0.71678 -2.83949,-0.82778 -0.25287,-0.0279 -0.62445,0.16387 -0.76153,-0.0504 -0.12622,-0.19733 0.46757,-0.0291 0.70136,-0.0437 -1.69742,-0.0341 -3.34395,0.23678 -4.85668,1.05394 -1.75933,0.99279 -3.40527,2.16527 -4.72511,3.71448 -1.556,1.83425 -2.90736,3.81648 -4.02612,5.94958 -1.28291,2.52659 -2.31612,5.15765 -3.29785,7.81423 -1.05522,2.74426 -2.06728,5.50554 -2.99956,8.2942 -0.94022,2.79376 -1.82905,5.60489 -2.80953,8.38513 -0.96746,2.81416 -2.00007,5.6057 -3.0976,8.37183 -1.17088,2.866 -2.36476,5.72475 -3.66971,8.53263 -1.37078,2.89892 -2.86594,5.73926 -4.674,8.39398 -1.76098,2.62148 -3.5764,5.2122 -5.65885,7.59257 -1.97917,2.21016 -4.04899,4.34794 -6.37868,6.19489 -2.2321,1.76342 -4.56211,3.40775 -7.0962,4.71464 -2.4805,1.28479 -5.06733,2.364 -7.77646,3.0689 -3.22888,0.75115 -6.49887,1.10749 -9.82304,0.86861 -2.47771,-0.11569 -4.95006,-0.30725 -7.40998,-0.63297 -1.61849,-0.21161 -3.23774,-0.43572 -4.83008,-0.80124 -0.37477,-0.16157 1.90997,-5.46145 2.28473,-5.29989 z"
       inkscape:connector-curvature="0"
       inkscape:export-xdpi="48.0396"
       inkscape:export-ydpi="48.0396" />
    <rect
       style="fill:#ffffff;fill-opacity:1;stroke:none;stroke-width:2.5999999;stroke-linecap:square;stroke-linejoin:bevel;stroke-miterlimit:4;stroke-dasharray:none;stroke-dashoffset:0;stroke-opacity:1"
       id="rect4367"
       width="75.714279"
       height="144.28571"
       x="-239.41782"
       y="-501.83737"
       inkscape:export-xdpi="48.0396"
       inkscape:export-ydpi="48.0396" />
    <path
       style="fill:#000000;fill-opacity:1;stroke:none;stroke-width:2.5999999;stroke-linecap:square;stroke-linejoin:bevel;stroke-miterlimit:4;stroke-dasharray:none;stroke-dashoffset:0;stroke-opacity:1"
       id="path4353"
       d="m -220.08412,-473.67498 c 0.0418,1.46552 0.0556,2.93171 0.0703,4.3977 0.0255,2.64427 0.0361,5.28866 0.0489,7.93301 0.0208,3.62624 0.0364,7.25251 0.0509,10.87878 0.0145,4.34289 0.02,8.6858 0.0186,13.02872 2.4e-4,4.31009 -0.007,8.62019 -0.0115,12.93028 -0.006,3.94328 -0.0148,7.88655 -0.0205,11.82983 1e-5,3.57189 -0.1438,7.14004 -0.37522,10.70367 -0.22299,3.25188 -0.63769,6.48491 -1.11973,9.70711 -0.45349,2.8934 -0.92793,5.78341 -1.3736,8.67804 -0.38168,2.49238 -0.75464,4.98635 -0.93512,7.50236 -0.098,1.62919 -0.0204,3.26135 0.38789,4.84377 0.25783,0.91936 0.75722,1.62025 1.54949,2.13625 0.92638,0.52838 1.96082,0.81182 2.99073,1.05796 1.43489,0.34866 2.90804,0.46918 4.37672,0.57307 1.82294,0.12082 3.64935,0.16992 5.47537,0.21566 2.21915,0.0485 4.43871,0.0737 6.65821,0.10035 2.35468,0.028 4.70943,0.0503 7.0642,0.0708 1.91176,-0.0224 3.82377,-0.0771 5.73505,-0.13617 2.24795,-0.0784 4.49665,-0.13343 6.74337,-0.24304 1.74192,-0.085 3.48485,-0.20793 5.20647,-0.49356 0.82742,-0.16278 1.6473,-0.39833 2.31537,-0.92813 0.52591,-0.47939 0.77303,-1.13126 0.98349,-1.79211 0.30781,-1.00787 0.37696,-2.0603 0.43871,-3.10563 0.0672,-1.40938 0.0763,-2.82067 0.0857,-4.23136 0.008,-1.62815 0.006,-3.25634 0.005,-4.88451 -0.002,-1.7623 -0.005,-3.5246 -0.008,-5.2869 -0.003,-1.84962 -0.005,-3.69925 -0.008,-5.54888 -0.002,-1.90725 -0.004,-3.81449 -0.006,-5.72173 -0.002,-1.94539 -0.003,-3.89077 -0.004,-5.83615 -0.001,-1.97066 -0.002,-3.94131 -0.003,-5.91196 -0.001,-1.99254 2.7e-4,-3.98507 -0.003,-5.97761 -0.002,-2.09877 -0.005,-4.19754 -0.007,-6.29631 -0.0264,-2.19806 -0.11778,-4.39472 -0.20166,-6.59116 -0.0875,-2.22707 -0.16833,-4.45439 -0.24268,-6.68194 -0.0723,-2.17593 -0.13036,-4.3523 -0.18326,-6.52878 -0.0511,-2.12755 -0.0904,-4.25535 -0.12605,-6.38321 -0.0346,-2.09233 -0.0607,-4.18478 -0.0845,-6.27726 -0.0231,-2.06828 -0.0404,-4.13662 -0.0562,-6.20496 -0.0153,-2.05217 -0.0268,-4.10436 -0.0372,-6.15655 -0.03,-2.03721 -0.009,-4.07335 0.0546,-6.1096 0.0507,-1.90241 0.19991,-3.80221 0.1658,-5.70579 -0.0308,-1.51236 -0.56944,-2.84166 -1.40622,-4.07463 -1.03147,-1.31723 -2.42097,-2.2641 -3.81961,-3.14896 -1.65377,-1.01012 -3.42379,-1.80407 -5.22981,-2.49679 -1.75578,-0.65161 -3.5735,-1.10695 -5.39851,-1.51475 -1.81974,-0.3591 -3.66579,-0.55337 -5.5107,-0.727 -1.91304,-0.17209 -3.83074,-0.28349 -5.74865,-0.38394 -1.65619,-0.0568 -3.28572,-0.036 -4.75338,-0.0224 -2.03513,0.0308 -4.06744,0.15268 -6.09922,0.26596 -2.17722,0.12805 -4.35535,0.23934 -6.53392,0.3417 -2.16881,0.0763 -4.33539,0.1713 -6.49436,0.39625 -1.36612,0.1475 -2.7223,0.39056 -4.01344,0.86763 -0.54511,0.20892 -0.93377,0.5306 -1.16282,1.06462 -0.20578,0.74153 -0.13541,1.52227 -0.0514,2.27675 0.17729,1.17594 0.38168,2.34873 0.6143,3.51503 0.23804,1.23995 0.59212,2.45287 1.01659,3.64075 0.50709,1.31597 0.98538,2.64173 1.41683,3.9844 0.49214,1.41174 0.91015,2.84681 1.34693,4.27602 0.48025,1.51293 0.90076,3.04306 1.28048,4.58399 0.41348,1.57439 0.80466,3.15407 1.15866,4.74288 0.21589,1.12109 0.11452,0.56111 0.30435,1.67992 0.0421,0.29403 -4.11621,0.88976 -4.15834,0.59572 l 0,0 c -0.17378,-1.00719 -0.0809,-0.50504 -0.27868,-1.50646 -0.34773,-1.56316 -0.73469,-3.11664 -1.13888,-4.66613 -0.36417,-1.47945 -0.77043,-2.94763 -1.22985,-4.40058 -0.42822,-1.41263 -0.84561,-2.82851 -1.32673,-4.22451 -0.42256,-1.31366 -0.89802,-2.60804 -1.38289,-3.89985 -0.46513,-1.35101 -0.86367,-2.72526 -1.12484,-4.13168 -0.24529,-1.27406 -0.46521,-2.55438 -0.63573,-3.84065 -0.12459,-1.34037 -0.15438,-2.69837 0.287,-3.99089 0.56496,-1.33939 1.39909,-2.44812 2.71749,-3.13167 1.54136,-0.75019 3.19719,-1.18865 4.89564,-1.41667 2.23826,-0.30603 4.48924,-0.45766 6.74794,-0.50348 2.16648,-0.0882 4.33227,-0.19123 6.49717,-0.31227 2.08623,-0.11775 4.17247,-0.24404 6.26135,-0.30478 2.36002,-0.0222 4.72242,-0.0473 7.08049,0.0716 1.96871,0.11275 3.93721,0.23833 5.89955,0.43587 1.98931,0.21013 3.97973,0.45037 5.93187,0.89913 1.98786,0.47605 3.96504,1.01107 5.86851,1.76486 2.0115,0.82034 3.98387,1.74711 5.80614,2.93891 1.7834,1.21056 3.50163,2.54514 4.71195,4.36094 1.09629,1.82409 1.8377,3.77091 1.87977,5.92811 0.0387,1.96254 -0.0954,3.92049 -0.15617,5.88167 -0.0597,1.99387 -0.0727,3.98764 -0.0458,5.98233 0.0108,2.04914 0.0226,4.09827 0.0385,6.14737 0.0162,2.06382 0.0341,4.12763 0.058,6.19138 0.0245,2.08591 0.0515,4.17179 0.0871,6.25754 0.0368,2.11875 0.0772,4.23744 0.12976,6.35587 0.0543,2.16559 0.11401,4.33107 0.18794,6.49609 0.0761,2.22236 0.15886,4.44448 0.24639,6.66642 0.0853,2.24174 0.17448,4.48381 0.19479,6.72731 -0.001,2.09871 -0.005,4.19741 -0.006,6.29612 -0.003,1.99245 -7.6e-4,3.98491 -0.001,5.97736 1.2e-4,1.97052 2.5e-4,3.94105 4.2e-4,5.91158 1.6e-4,1.9452 3.5e-4,3.8904 5.8e-4,5.8356 2.4e-4,1.90701 4.9e-4,3.81402 7.4e-4,5.72104 2.4e-4,1.84954 4.9e-4,3.69908 4e-4,5.54863 -1.8e-4,1.76361 -4.1e-4,3.52721 -0.003,5.29082 -0.003,1.63817 -0.006,3.27636 -0.021,4.91447 -0.0163,1.47351 -0.0336,2.94767 -0.11446,4.41935 -0.0876,1.32815 -0.20337,2.66144 -0.59522,3.94108 -0.39358,1.24968 -0.9053,2.45197 -1.83086,3.4098 -1.07154,1.02276 -2.31497,1.72277 -3.76352,2.07823 -1.86124,0.43917 -3.7673,0.63126 -5.67433,0.74561 -2.27021,0.13228 -4.54231,0.20203 -6.81534,0.26834 -2.66536,0.0895 -5.3315,0.18905 -7.99889,0.16694 -2.36092,-0.0194 -4.72185,-0.0407 -7.08261,-0.0749 -2.2352,-0.0344 -4.47042,-0.0747 -6.70472,-0.14908 -1.88614,-0.0653 -3.77304,-0.13988 -5.65373,-0.3028 -1.67129,-0.16527 -3.34255,-0.37474 -4.9593,-0.84939 -1.46436,-0.44532 -2.9152,-0.97411 -4.12406,-1.94483 -1.25211,-1.12307 -2.1646,-2.45705 -2.5991,-4.10301 -0.47998,-1.94556 -0.65973,-3.93766 -0.55068,-5.94182 0.16076,-2.61967 0.51586,-5.2177 0.91502,-7.81097 0.43426,-2.8919 0.8965,-5.7794 1.34248,-8.6695 0.46051,-3.12132 0.86041,-6.25233 1.06347,-9.40255 0.21574,-3.48639 0.35122,-6.97695 0.33123,-10.47087 -0.006,-3.94328 -0.0146,-7.88655 -0.0205,-11.82983 -0.005,-4.31009 -0.0118,-8.62019 -0.0115,-12.93028 -0.001,-4.34292 0.004,-8.68583 0.0186,-13.02872 0.0145,-3.62627 0.0301,-7.25254 0.0509,-10.87878 0.0128,-2.64435 0.0234,-5.28874 0.0489,-7.93301 0.0147,-1.46599 0.0285,-2.93218 0.0703,-4.3977 0,-0.29003 4.10173,-0.29003 4.10173,0 z"
       inkscape:connector-curvature="0"
       inkscape:export-xdpi="48.0396"
       inkscape:export-ydpi="48.0396" />
    <path
       style="fill:#000000;fill-opacity:1;stroke:none;stroke-width:2.5999999;stroke-linecap:square;stroke-linejoin:bevel;stroke-miterlimit:4;stroke-dasharray:none;stroke-dashoffset:0;stroke-opacity:1"
       id="path4365"
       d="m -183.84964,-452.74046 c -1.02084,-0.26088 -2.03601,-0.54208 -3.04806,-0.83544 -1.66596,-0.48567 -3.3317,-0.97107 -5.00641,-1.426 -1.69756,-0.47299 -3.43186,-0.75559 -5.1871,-0.88331 -1.27052,-0.11508 -2.49947,0.003 -3.75184,0.24287 -1.37096,0.29661 -2.60789,0.953 -3.79684,1.673 -1.31288,0.81878 -2.47294,1.83841 -3.54518,2.94693 -1.03746,1.09724 -1.89111,2.34239 -2.67415,3.62822 -0.69497,1.17973 -1.21866,2.44501 -1.62949,3.74809 -0.33781,1.09613 -0.42309,2.21976 -0.29672,3.35379 0.16677,1.07316 0.64652,2.02751 1.25851,2.91 0.75218,0.97158 1.69481,1.75891 2.67521,2.48794 1.04955,0.76298 2.2021,1.35928 3.37729,1.90069 1.20538,0.57096 2.44273,1.07012 3.67144,1.58777 1.31967,0.53345 2.6397,1.06379 3.94519,1.6314 1.45446,0.60627 2.86355,1.3114 4.26513,2.02932 1.38567,0.71842 2.70877,1.54669 4.00879,2.40815 1.38203,0.89266 2.69044,1.8884 3.93803,2.95927 1.20245,1.03881 2.24368,2.23616 3.19016,3.50769 0.85346,1.17238 1.44569,2.48483 1.86969,3.86423 0.3662,1.26753 0.47122,2.58136 0.46755,3.89437 -0.0119,1.27909 -0.32907,2.50769 -0.76684,3.69964 -0.45495,1.15781 -1.09878,2.21839 -1.81822,3.22764 -0.73979,1.02211 -1.6654,1.87362 -2.65387,2.64764 -0.99944,0.76272 -2.11563,1.34036 -3.2563,1.85767 -1.1662,0.51544 -2.38559,0.89006 -3.61312,1.2266 -1.31052,0.3505 -2.64644,0.59052 -3.98416,0.80895 -1.3903,0.23052 -2.79043,0.3821 -4.19537,0.48488 -1.65971,0.11306 -3.32344,0.0779 -4.97358,-0.12564 -1.35167,-0.1509 -2.65677,-0.5351 -3.93243,-0.99226 -1.22317,-0.44288 -2.3137,-1.13448 -3.32258,-1.94385 -0.91605,-0.78159 -1.67503,-1.72307 -2.38568,-2.68951 -0.1086,-0.14931 -0.2172,-0.29861 -0.3258,-0.44792 -0.106,-0.18086 2.45172,-1.67995 2.55772,-1.49909 l 0,0 c 0.10468,0.14252 0.20936,0.28505 0.31404,0.42757 0.58982,0.77876 1.21136,1.54504 1.98101,2.15516 0.81918,0.61032 1.7056,1.11067 2.68281,1.42499 1.11734,0.36157 2.25465,0.65246 3.4296,0.74839 1.25531,0.11024 1.91258,0.13147 3.06997,0.0881 1.3338,-0.0791 2.66425,-0.19329 3.98445,-0.40589 1.25897,-0.18994 2.51633,-0.39785 3.75565,-0.69302 1.11278,-0.28139 2.22006,-0.5928 3.28485,-1.02614 0.97718,-0.40865 1.93863,-0.86265 2.80677,-1.47637 0.82089,-0.5973 1.59364,-1.25859 2.213,-2.07008 0.61111,-0.81447 1.15442,-1.67425 1.54917,-2.61679 0.35603,-0.90399 0.61682,-1.83802 0.62952,-2.8177 0.003,-1.05917 -0.0824,-2.11901 -0.38324,-3.14012 -0.34781,-1.09987 -0.84654,-2.13663 -1.54734,-3.05921 -0.85697,-1.10864 -1.79895,-2.1486 -2.87457,-3.0514 -1.18525,-0.98816 -2.42588,-1.90549 -3.7208,-2.74583 -1.22797,-0.80229 -2.47892,-1.57111 -3.79188,-2.22827 -1.36074,-0.68723 -2.73469,-1.34799 -4.1387,-1.943 -1.29597,-0.56296 -2.60897,-1.08391 -3.91327,-1.62704 -1.26277,-0.53125 -2.52825,-1.05779 -3.7642,-1.64978 -1.31963,-0.64209 -2.61016,-1.34963 -3.77822,-2.24508 -1.17987,-0.92562 -2.3056,-1.93 -3.16264,-3.17321 -0.7868,-1.24542 -1.40356,-2.57663 -1.59273,-4.05424 -0.14238,-1.47101 -0.0601,-2.93389 0.36642,-4.35869 0.45851,-1.5006 1.04075,-2.96026 1.8249,-4.32359 0.86459,-1.4516 1.80838,-2.8584 2.95478,-4.10616 1.2039,-1.28194 2.50596,-2.46759 3.99149,-3.42032 1.41422,-0.88656 2.88631,-1.69673 4.51157,-2.12722 1.96205,-0.47742 3.96898,-0.59363 5.98176,-0.38922 1.90077,0.18982 3.77835,0.52876 5.6163,1.05746 1.68619,0.46995 3.36319,0.97062 5.03525,1.48861 0.97526,0.29996 1.95388,0.58868 2.92998,0.88589 0.18304,0.0924 -1.12363,2.68089 -1.30667,2.5885 z"
       inkscape:connector-curvature="0"
       inkscape:export-xdpi="48.0396"
       inkscape:export-ydpi="48.0396" />
    <rect
       style="fill:#ffffff;fill-opacity:1;stroke:none;stroke-width:2.5999999;stroke-linecap:square;stroke-linejoin:bevel;stroke-miterlimit:4;stroke-dasharray:none;stroke-dashoffset:0;stroke-opacity:1"
       id="rect4373"
       width="32.577419"
       height="127.78429"
       x="-424.95193"
       y="-457.24139"
       transform="matrix(0.70710678,0.70710678,-0.70710678,0.70710678,0,0)"
       inkscape:export-xdpi="48.0396"
       inkscape:export-ydpi="48.0396" />
    <rect
       style="fill:none;fill-opacity:1;stroke:#000000;stroke-width:2.035;stroke-linecap:square;stroke-linejoin:bevel;stroke-miterlimit:4;stroke-dasharray:none;stroke-dashoffset:0;stroke-opacity:1"
       id="rect4369"
       width="34.850704"
       height="126.99356"
       x="-424.14166"
       y="-456.89429"
       transform="matrix(0.70710678,0.70710678,-0.70710678,0.70710678,0,0)"
       inkscape:export-xdpi="48.0396"
       inkscape:export-ydpi="48.0396" />
    <rect
       style="fill:#000000;fill-opacity:1;stroke:none;stroke-width:2.035;stroke-linecap:square;stroke-linejoin:bevel;stroke-miterlimit:4;stroke-dasharray:none;stroke-dashoffset:0;stroke-opacity:1"
       id="rect4371"
       width="9.6428576"
       height="126.60714"
       x="-399.3949"
       y="-456.79041"
       transform="matrix(0.70710678,0.70710678,-0.70710678,0.70710678,0,0)"
       inkscape:export-xdpi="48.0396"
       inkscape:export-ydpi="48.0396" />
  </g>
</svg>
