<?xml version="1.0" encoding="UTF-8" standalone="no"?>
<!-- Created with Inkscape (http://www.inkscape.org/) -->

<svg
   xmlns:dc="http://purl.org/dc/elements/1.1/"
   xmlns:cc="http://creativecommons.org/ns#"
   xmlns:rdf="http://www.w3.org/1999/02/22-rdf-syntax-ns#"
   xmlns:svg="http://www.w3.org/2000/svg"
   xmlns="http://www.w3.org/2000/svg"
   xmlns:sodipodi="http://sodipodi.sourceforge.net/DTD/sodipodi-0.dtd"
   xmlns:inkscape="http://www.inkscape.org/namespaces/inkscape"
   width="45.312336mm"
   height="26.79825mm"
   viewBox="0 0 160.55552 94.954429"
   id="svg4529"
   version="1.1"
   inkscape:version="0.91 r13725"
   sodipodi:docname="wave-yellow.svg">
  <defs
     id="defs4531" />
  <sodipodi:namedview
     id="base"
     pagecolor="#ffffff"
     bordercolor="#666666"
     borderopacity="1.0"
     inkscape:pageopacity="0.0"
     inkscape:pageshadow="2"
     inkscape:zoom="1.979899"
     inkscape:cx="71.951153"
     inkscape:cy="-77.770823"
     inkscape:document-units="px"
     inkscape:current-layer="layer1"
     showgrid="false"
     fit-margin-top="0"
     fit-margin-left="0"
     fit-margin-right="0"
     fit-margin-bottom="0"
     inkscape:window-width="1580"
     inkscape:window-height="1438"
     inkscape:window-x="0"
     inkscape:window-y="0"
     inkscape:window-maximized="0" />
  <metadata
     id="metadata4534">
    <rdf:RDF>
      <cc:Work
         rdf:about="">
        <dc:format>image/svg+xml</dc:format>
        <dc:type
           rdf:resource="http://purl.org/dc/dcmitype/StillImage" />
        <dc:title></dc:title>
      </cc:Work>
    </rdf:RDF>
  </metadata>
  <g
     inkscape:label="Layer 1"
     inkscape:groupmode="layer"
     id="layer1"
     transform="translate(140.27776,-710.59927)">
    <path
       style="fill:#ffcc00;fill-opacity:1;stroke:none;stroke-width:2.5999999;stroke-linecap:square;stroke-linejoin:bevel;stroke-miterlimit:4;stroke-dasharray:none;stroke-dashoffset:0;stroke-opacity:1"
       id="path4154"
       d="m -137.95166,792.50306 c 1.51632,0.23395 3.04329,0.3915 4.56901,0.54963 2.34382,0.27723 4.69787,0.39504 7.05533,0.46785 1.54852,0.0335 3.55171,-0.16183 5.67857,-0.57018 2.33118,-0.4979 4.542,-1.3961 6.68172,-2.42736 2.26767,-1.11564 4.35393,-2.53938 6.35768,-4.06907 2.12194,-1.63381 4.00064,-3.54457 5.79397,-5.52523 1.942452,-2.19066 3.638582,-4.57913 5.276512,-7.00081 1.68156,-2.43861 3.07737,-5.04834 4.35636,-7.71479 1.27297,-2.72181 2.43794,-5.49322 3.58448,-8.27023 1.07463,-2.67217 2.07542,-5.37363 3.01907,-8.09463 0.97926,-2.76554 1.85892,-5.56459 2.79091,-8.34602 0.95251,-2.85542 1.98658,-5.68263 3.05822,-8.49522 1.03457,-2.81653 2.15118,-5.59516 3.49013,-8.28117 1.27251,-2.47666 2.8282,-4.77772 4.5815,-6.9349 1.63948,-2.01313 3.67815,-3.5934 5.86631,-4.95959 2.13193,-1.31468 4.50321,-1.9423 6.97087,-2.18786 2.93735,-0.23516 5.54336,0.48133 8.10735,1.82838 1.92745,1.08283 3.45365,2.67789 4.89658,4.32234 1.40826,1.66845 2.5427,3.54074 3.6011,5.44341 1.09991,2.05183 2.052867,4.17621 2.985077,6.30794 0.98942,2.3103 1.91767,4.64568 2.83501,6.98532 0.98014,2.49406 1.8017,5.04562 2.62625,7.59407 0.84367,2.6118 1.63828,5.23852 2.43816,7.86388 0.82548,2.66793 1.5515,5.36474 2.31475,8.05076 0.73508,2.6297 1.45406,5.26398 2.20559,7.88907 0.73065,2.6173 1.55737,5.20591 2.45938,7.76883 0.87538,2.5105 1.79097,5.00598 2.84073,7.44914 0.96394,2.21514 2.14386,4.31478 3.49302,6.31524 1.2435,1.82741 2.81436,3.36955 4.51246,4.76784 1.70629,1.368 3.6317504,2.40291 5.6009404,3.33331 1.9772,0.89145 4.06859,1.47316 6.16886,1.98913 2.13276997,0.46956 4.30587,0.70734 6.47653,0.91814 2.29001,0.24353 4.58839,0.31994 6.8894496,0.33841 1.4338,-0.003 3.49633,-0.0164 5.6747,-0.068 0.40486,-0.016 0.8097,-0.0322 1.21455,-0.0483 0.40314,-0.11998 2.09997,5.5813 1.69683,5.7013 l 0,0 c -0.42562,0.0214 -0.85125,0.0429 -1.27688,0.0643 -2.95183,0.11881 -5.9083,0.10178 -8.86188,0.0805 -2.4443296,-0.0567 -4.8847796,-0.1966 -7.3148696,-0.47551 -2.40493003,-0.27468 -4.81079,-0.59607 -7.1575,-1.20686 -2.40591,-0.65523 -4.79239,-1.40601 -7.0347504,-2.51336 -2.30322,-1.17298 -4.54231,-2.48068 -6.51372,-4.16824 -2.00165,-1.75423 -3.85234,-3.67097 -5.32019,-5.90495 -1.48285,-2.27383 -2.80225,-4.64428 -3.87383,-7.14218 -1.07939,-2.55095 -2.0463,-5.14564 -2.9518,-7.76331 -0.92486,-2.65919 -1.78427,-5.3404 -2.53376,-8.05485 -0.74523,-2.62706 -1.46667,-5.2608 -2.20579,-7.88956 -0.75883,-2.65739 -1.48131,-5.32532 -2.29607,-7.96644 -0.78572,-2.59798 -1.57657,-5.19414 -2.40637,-7.77852 -0.792827,-2.45286 -1.583527,-4.90834 -2.530077,-7.30745 -0.89111,-2.28011 -1.78881,-4.55781 -2.7525,-6.8085 -0.86543,-1.98206 -1.74396,-3.96093 -2.77596,-5.86347 -0.89366,-1.58257 -1.83933,-3.1483 -3.04719,-4.51545 -1.05107,-1.15165 -2.14275,-2.28632 -3.57044,-2.97018 -0.92028,-0.40654 -1.83283,-0.71678 -2.83949,-0.82778 -0.25287,-0.0279 -0.62445,0.16387 -0.76153,-0.0504 -0.12622,-0.19733 0.46757,-0.0291 0.70136,-0.0437 -1.69742,-0.0341 -3.34395,0.23678 -4.85668,1.05394 -1.75933,0.99279 -3.40527,2.16527 -4.72511,3.71448 -1.556,1.83425 -2.90736,3.81648 -4.02612,5.94958 -1.28291,2.52659 -2.31612,5.15765 -3.29785,7.81423 -1.05522,2.74426 -2.06728,5.50554 -2.99956,8.2942 -0.94022,2.79376 -1.82905,5.60489 -2.80953,8.38513 -0.96746,2.81416 -2.00007,5.6057 -3.0976,8.37183 -1.17088,2.866 -2.36476,5.72475 -3.66971,8.53263 -1.37078,2.89892 -2.86594,5.73926 -4.674,8.39398 -1.76098,2.62148 -3.5764,5.2122 -5.65885,7.59257 -1.97917,2.21016 -4.048992,4.34794 -6.378682,6.19489 -2.2321,1.76342 -4.56211,3.40775 -7.0962,4.71464 -2.4805,1.28479 -5.06733,2.364 -7.77646,3.0689 -3.22888,0.75115 -6.49887,1.10749 -9.82304,0.86861 -2.47771,-0.11569 -4.95006,-0.30725 -7.40998,-0.63297 -1.61849,-0.21161 -3.23774,-0.43572 -4.83008,-0.80124 -0.37477,-0.16157 1.90997,-5.46145 2.28473,-5.29989 z"
       inkscape:connector-curvature="0"
       inkscape:export-xdpi="48.0396"
       inkscape:export-ydpi="48.0396" />
  </g>
</svg>
