<?xml version="1.0" encoding="UTF-8" standalone="no"?>
<!-- Created with Inkscape (http://www.inkscape.org/) -->

<svg
   xmlns:dc="http://purl.org/dc/elements/1.1/"
   xmlns:cc="http://creativecommons.org/ns#"
   xmlns:rdf="http://www.w3.org/1999/02/22-rdf-syntax-ns#"
   xmlns:svg="http://www.w3.org/2000/svg"
   xmlns="http://www.w3.org/2000/svg"
   xmlns:sodipodi="http://sodipodi.sourceforge.net/DTD/sodipodi-0.dtd"
   xmlns:inkscape="http://www.inkscape.org/namespaces/inkscape"
   width="50mm"
   height="30mm"
   viewBox="0 0 177.16536 106.29921"
   id="svg2"
   version="1.1"
   inkscape:version="0.91 r13725"
   inkscape:export-filename="/home/noon/dev/silky.github.com/src/images/wave-up.png"
   inkscape:export-xdpi="48.0396"
   inkscape:export-ydpi="48.0396"
   sodipodi:docname="wave-up.svg">
  <defs
     id="defs4" />
  <sodipodi:namedview
     id="base"
     pagecolor="#ffffff"
     bordercolor="#666666"
     borderopacity="1.0"
     inkscape:pageopacity="0.0"
     inkscape:pageshadow="2"
     inkscape:zoom="0.7"
     inkscape:cx="126.68072"
     inkscape:cy="109.22573"
     inkscape:document-units="px"
     inkscape:current-layer="layer1"
     showgrid="false"
     fit-margin-top="0"
     fit-margin-left="0"
     fit-margin-right="0"
     fit-margin-bottom="0"
     showguides="false"
     inkscape:window-width="1375"
     inkscape:window-height="1438"
     inkscape:window-x="0"
     inkscape:window-y="0"
     inkscape:window-maximized="0" />
  <metadata
     id="metadata7">
    <rdf:RDF>
      <cc:Work
         rdf:about="">
        <dc:format>image/svg+xml</dc:format>
        <dc:type
           rdf:resource="http://purl.org/dc/dcmitype/StillImage" />
        <dc:title></dc:title>
      </cc:Work>
    </rdf:RDF>
  </metadata>
  <g
     inkscape:label="Layer 1"
     inkscape:groupmode="layer"
     id="layer1"
     transform="translate(245.84639,275.27943)">
    <rect
       style="fill:#ffffff;fill-opacity:1;stroke:none;stroke-width:2.5999999;stroke-linecap:square;stroke-linejoin:bevel;stroke-miterlimit:4;stroke-dasharray:none;stroke-dashoffset:0;stroke-opacity:1"
       id="rect4273"
       width="180.81731"
       height="103.03556"
       x="-246.85654"
       y="-273.02594" />
    <path
       style="fill:#ffcc00;fill-opacity:1;stroke:none;stroke-width:2.6;stroke-linecap:square;stroke-linejoin:bevel;stroke-miterlimit:4;stroke-dasharray:none;stroke-dashoffset:0;stroke-opacity:1"
       id="path4154"
       d="m -235.43907,-187.08162 c 1.51632,0.23395 3.04329,0.3915 4.56901,0.54963 2.34382,0.27723 4.69787,0.39504 7.05533,0.46785 1.54852,0.0335 3.55171,-0.16183 5.67857,-0.57018 2.33118,-0.4979 4.542,-1.3961 6.68172,-2.42736 2.26767,-1.11564 4.35393,-2.53938 6.35768,-4.06907 2.12194,-1.63381 4.00064,-3.54457 5.79397,-5.52523 1.94245,-2.19066 3.63858,-4.57913 5.27651,-7.00081 1.68156,-2.43861 3.07737,-5.04834 4.35636,-7.71479 1.27297,-2.72181 2.43794,-5.49322 3.58448,-8.27023 1.07463,-2.67217 2.07542,-5.37363 3.01907,-8.09463 0.97926,-2.76554 1.85892,-5.56459 2.79091,-8.34602 0.95251,-2.85542 1.98658,-5.68263 3.05822,-8.49522 1.03457,-2.81653 2.15118,-5.59516 3.49013,-8.28117 1.27251,-2.47666 2.8282,-4.77772 4.5815,-6.9349 1.63948,-2.01313 3.67815,-3.5934 5.86631,-4.95959 2.13193,-1.31468 4.50321,-1.9423 6.97087,-2.18786 2.93735,-0.23516 5.54336,0.48133 8.10735,1.82838 1.92745,1.08283 3.45365,2.67789 4.89658,4.32234 1.40826,1.66845 2.5427,3.54074 3.6011,5.44341 1.09991,2.05183 2.05287,4.17621 2.98508,6.30794 0.98942,2.3103 1.91767,4.64568 2.83501,6.98532 0.98014,2.49406 1.8017,5.04562 2.62625,7.59407 0.84367,2.6118 1.63828,5.23852 2.43816,7.86388 0.82548,2.66793 1.5515,5.36474 2.31475,8.05076 0.73508,2.6297 1.45406,5.26398 2.20559,7.88907 0.73065,2.6173 1.55737,5.20591 2.45938,7.76883 0.87538,2.5105 1.79097,5.00598 2.84073,7.44914 0.96394,2.21514 2.14386,4.31478 3.49302,6.31524 1.2435,1.82741 2.81436,3.36955 4.51246,4.76784 1.70629,1.368 3.63175,2.40291 5.60094,3.33331 1.9772,0.89145 4.06859,1.47316 6.16886,1.98913 2.13277,0.46956 4.30587,0.70734 6.47653,0.91814 2.290011,0.24353 4.588383,0.31994 6.889445,0.33841 1.433799,-0.003 3.496335,-0.0164 5.674702,-0.068 0.404859,-0.016 0.809704,-0.0322 1.21455,-0.0483 0.403143,-0.11998 2.099972,5.5813 1.696829,5.7013 l 0,0 c -0.425618,0.0214 -0.851248,0.0429 -1.276879,0.0643 -2.951831,0.11881 -5.908302,0.10178 -8.861875,0.0805 -2.444334,-0.0567 -4.884782,-0.1966 -7.314872,-0.47551 -2.40493,-0.27468 -4.81079,-0.59607 -7.1575,-1.20686 -2.40591,-0.65523 -4.79239,-1.40601 -7.03475,-2.51336 -2.30322,-1.17298 -4.54231,-2.48068 -6.51372,-4.16824 -2.00165,-1.75423 -3.85234,-3.67097 -5.32019,-5.90495 -1.48285,-2.27383 -2.80225,-4.64428 -3.87383,-7.14218 -1.07939,-2.55095 -2.0463,-5.14564 -2.9518,-7.76331 -0.92486,-2.65919 -1.78427,-5.3404 -2.53376,-8.05485 -0.74523,-2.62706 -1.46667,-5.2608 -2.20579,-7.88956 -0.75883,-2.65739 -1.48131,-5.32532 -2.29607,-7.96644 -0.78572,-2.59798 -1.57657,-5.19414 -2.40637,-7.77852 -0.79283,-2.45286 -1.58353,-4.90834 -2.53008,-7.30745 -0.89111,-2.28011 -1.78881,-4.55781 -2.7525,-6.8085 -0.86543,-1.98206 -1.74396,-3.96093 -2.77596,-5.86347 -0.89366,-1.58257 -1.83933,-3.1483 -3.04719,-4.51545 -1.05107,-1.15165 -2.14275,-2.28632 -3.57044,-2.97018 -0.92028,-0.40654 -1.83283,-0.71678 -2.83949,-0.82778 -0.25287,-0.0279 -0.62445,0.16387 -0.76153,-0.0504 -0.12622,-0.19733 0.46757,-0.0291 0.70136,-0.0437 -1.69742,-0.0341 -3.34395,0.23678 -4.85668,1.05394 -1.75933,0.99279 -3.40527,2.16527 -4.72511,3.71448 -1.556,1.83425 -2.90736,3.81648 -4.02612,5.94958 -1.28291,2.52659 -2.31612,5.15765 -3.29785,7.81423 -1.05522,2.74426 -2.06728,5.50554 -2.99956,8.2942 -0.94022,2.79376 -1.82905,5.60489 -2.80953,8.38513 -0.96746,2.81416 -2.00007,5.6057 -3.0976,8.37183 -1.17088,2.866 -2.36476,5.72475 -3.66971,8.53263 -1.37078,2.89892 -2.86594,5.73926 -4.674,8.39398 -1.76098,2.62148 -3.5764,5.2122 -5.65885,7.59257 -1.97917,2.21016 -4.04899,4.34794 -6.37868,6.19489 -2.2321,1.76342 -4.56211,3.40775 -7.0962,4.71464 -2.4805,1.28479 -5.06733,2.364 -7.77646,3.0689 -3.22888,0.75115 -6.49887,1.10749 -9.82304,0.86861 -2.47771,-0.11569 -4.95006,-0.30725 -7.40998,-0.63297 -1.61849,-0.21161 -3.23774,-0.43572 -4.83008,-0.80124 -0.37477,-0.16157 1.90997,-5.46145 2.28473,-5.29989 z"
       inkscape:connector-curvature="0"
       inkscape:export-xdpi="48.0396"
       inkscape:export-ydpi="48.0396" />
    <rect
       style="fill:#ffffff;fill-opacity:1;stroke:none;stroke-width:2.5999999;stroke-linecap:square;stroke-linejoin:bevel;stroke-miterlimit:4;stroke-dasharray:none;stroke-dashoffset:0;stroke-opacity:1"
       id="rect4367"
       width="75.714279"
       height="144.28571"
       x="-239.41782"
       y="-501.83737"
       inkscape:export-xdpi="48.0396"
       inkscape:export-ydpi="48.0396" />
    <path
       style="fill:#000000;fill-opacity:1;stroke:none;stroke-width:2.5999999;stroke-linecap:square;stroke-linejoin:bevel;stroke-miterlimit:4;stroke-dasharray:none;stroke-dashoffset:0;stroke-opacity:1"
       id="path4353"
       d="m -220.08412,-473.67498 c 0.0418,1.46552 0.0556,2.93171 0.0703,4.3977 0.0255,2.64427 0.0361,5.28866 0.0489,7.93301 0.0208,3.62624 0.0364,7.25251 0.0509,10.87878 0.0145,4.34289 0.02,8.6858 0.0186,13.02872 2.4e-4,4.31009 -0.007,8.62019 -0.0115,12.93028 -0.006,3.94328 -0.0148,7.88655 -0.0205,11.82983 1e-5,3.57189 -0.1438,7.14004 -0.37522,10.70367 -0.22299,3.25188 -0.63769,6.48491 -1.11973,9.70711 -0.45349,2.8934 -0.92793,5.78341 -1.3736,8.67804 -0.38168,2.49238 -0.75464,4.98635 -0.93512,7.50236 -0.098,1.62919 -0.0204,3.26135 0.38789,4.84377 0.25783,0.91936 0.75722,1.62025 1.54949,2.13625 0.92638,0.52838 1.96082,0.81182 2.99073,1.05796 1.43489,0.34866 2.90804,0.46918 4.37672,0.57307 1.82294,0.12082 3.64935,0.16992 5.47537,0.21566 2.21915,0.0485 4.43871,0.0737 6.65821,0.10035 2.35468,0.028 4.70943,0.0503 7.0642,0.0708 1.91176,-0.0224 3.82377,-0.0771 5.73505,-0.13617 2.24795,-0.0784 4.49665,-0.13343 6.74337,-0.24304 1.74192,-0.085 3.48485,-0.20793 5.20647,-0.49356 0.82742,-0.16278 1.6473,-0.39833 2.31537,-0.92813 0.52591,-0.47939 0.77303,-1.13126 0.98349,-1.79211 0.30781,-1.00787 0.37696,-2.0603 0.43871,-3.10563 0.0672,-1.40938 0.0763,-2.82067 0.0857,-4.23136 0.008,-1.62815 0.006,-3.25634 0.005,-4.88451 -0.002,-1.7623 -0.005,-3.5246 -0.008,-5.2869 -0.003,-1.84962 -0.005,-3.69925 -0.008,-5.54888 -0.002,-1.90725 -0.004,-3.81449 -0.006,-5.72173 -0.002,-1.94539 -0.003,-3.89077 -0.004,-5.83615 -0.001,-1.97066 -0.002,-3.94131 -0.003,-5.91196 -0.001,-1.99254 2.7e-4,-3.98507 -0.003,-5.97761 -0.002,-2.09877 -0.005,-4.19754 -0.007,-6.29631 -0.0264,-2.19806 -0.11778,-4.39472 -0.20166,-6.59116 -0.0875,-2.22707 -0.16833,-4.45439 -0.24268,-6.68194 -0.0723,-2.17593 -0.13036,-4.3523 -0.18326,-6.52878 -0.0511,-2.12755 -0.0904,-4.25535 -0.12605,-6.38321 -0.0346,-2.09233 -0.0607,-4.18478 -0.0845,-6.27726 -0.0231,-2.06828 -0.0404,-4.13662 -0.0562,-6.20496 -0.0153,-2.05217 -0.0268,-4.10436 -0.0372,-6.15655 -0.03,-2.03721 -0.009,-4.07335 0.0546,-6.1096 0.0507,-1.90241 0.19991,-3.80221 0.1658,-5.70579 -0.0308,-1.51236 -0.56944,-2.84166 -1.40622,-4.07463 -1.03147,-1.31723 -2.42097,-2.2641 -3.81961,-3.14896 -1.65377,-1.01012 -3.42379,-1.80407 -5.22981,-2.49679 -1.75578,-0.65161 -3.5735,-1.10695 -5.39851,-1.51475 -1.81974,-0.3591 -3.66579,-0.55337 -5.5107,-0.727 -1.91304,-0.17209 -3.83074,-0.28349 -5.74865,-0.38394 -1.65619,-0.0568 -3.28572,-0.036 -4.75338,-0.0224 -2.03513,0.0308 -4.06744,0.15268 -6.09922,0.26596 -2.17722,0.12805 -4.35535,0.23934 -6.53392,0.3417 -2.16881,0.0763 -4.33539,0.1713 -6.49436,0.39625 -1.36612,0.1475 -2.7223,0.39056 -4.01344,0.86763 -0.54511,0.20892 -0.93377,0.5306 -1.16282,1.06462 -0.20578,0.74153 -0.13541,1.52227 -0.0514,2.27675 0.17729,1.17594 0.38168,2.34873 0.6143,3.51503 0.23804,1.23995 0.59212,2.45287 1.01659,3.64075 0.50709,1.31597 0.98538,2.64173 1.41683,3.9844 0.49214,1.41174 0.91015,2.84681 1.34693,4.27602 0.48025,1.51293 0.90076,3.04306 1.28048,4.58399 0.41348,1.57439 0.80466,3.15407 1.15866,4.74288 0.21589,1.12109 0.11452,0.56111 0.30435,1.67992 0.0421,0.29403 -4.11621,0.88976 -4.15834,0.59572 l 0,0 c -0.17378,-1.00719 -0.0809,-0.50504 -0.27868,-1.50646 -0.34773,-1.56316 -0.73469,-3.11664 -1.13888,-4.66613 -0.36417,-1.47945 -0.77043,-2.94763 -1.22985,-4.40058 -0.42822,-1.41263 -0.84561,-2.82851 -1.32673,-4.22451 -0.42256,-1.31366 -0.89802,-2.60804 -1.38289,-3.89985 -0.46513,-1.35101 -0.86367,-2.72526 -1.12484,-4.13168 -0.24529,-1.27406 -0.46521,-2.55438 -0.63573,-3.84065 -0.12459,-1.34037 -0.15438,-2.69837 0.287,-3.99089 0.56496,-1.33939 1.39909,-2.44812 2.71749,-3.13167 1.54136,-0.75019 3.19719,-1.18865 4.89564,-1.41667 2.23826,-0.30603 4.48924,-0.45766 6.74794,-0.50348 2.16648,-0.0882 4.33227,-0.19123 6.49717,-0.31227 2.08623,-0.11775 4.17247,-0.24404 6.26135,-0.30478 2.36002,-0.0222 4.72242,-0.0473 7.08049,0.0716 1.96871,0.11275 3.93721,0.23833 5.89955,0.43587 1.98931,0.21013 3.97973,0.45037 5.93187,0.89913 1.98786,0.47605 3.96504,1.01107 5.86851,1.76486 2.0115,0.82034 3.98387,1.74711 5.80614,2.93891 1.7834,1.21056 3.50163,2.54514 4.71195,4.36094 1.09629,1.82409 1.8377,3.77091 1.87977,5.92811 0.0387,1.96254 -0.0954,3.92049 -0.15617,5.88167 -0.0597,1.99387 -0.0727,3.98764 -0.0458,5.98233 0.0108,2.04914 0.0226,4.09827 0.0385,6.14737 0.0162,2.06382 0.0341,4.12763 0.058,6.19138 0.0245,2.08591 0.0515,4.17179 0.0871,6.25754 0.0368,2.11875 0.0772,4.23744 0.12976,6.35587 0.0543,2.16559 0.11401,4.33107 0.18794,6.49609 0.0761,2.22236 0.15886,4.44448 0.24639,6.66642 0.0853,2.24174 0.17448,4.48381 0.19479,6.72731 -0.001,2.09871 -0.005,4.19741 -0.006,6.29612 -0.003,1.99245 -7.6e-4,3.98491 -0.001,5.97736 1.2e-4,1.97052 2.5e-4,3.94105 4.2e-4,5.91158 1.6e-4,1.9452 3.5e-4,3.8904 5.8e-4,5.8356 2.4e-4,1.90701 4.9e-4,3.81402 7.4e-4,5.72104 2.4e-4,1.84954 4.9e-4,3.69908 4e-4,5.54863 -1.8e-4,1.76361 -4.1e-4,3.52721 -0.003,5.29082 -0.003,1.63817 -0.006,3.27636 -0.021,4.91447 -0.0163,1.47351 -0.0336,2.94767 -0.11446,4.41935 -0.0876,1.32815 -0.20337,2.66144 -0.59522,3.94108 -0.39358,1.24968 -0.9053,2.45197 -1.83086,3.4098 -1.07154,1.02276 -2.31497,1.72277 -3.76352,2.07823 -1.86124,0.43917 -3.7673,0.63126 -5.67433,0.74561 -2.27021,0.13228 -4.54231,0.20203 -6.81534,0.26834 -2.66536,0.0895 -5.3315,0.18905 -7.99889,0.16694 -2.36092,-0.0194 -4.72185,-0.0407 -7.08261,-0.0749 -2.2352,-0.0344 -4.47042,-0.0747 -6.70472,-0.14908 -1.88614,-0.0653 -3.77304,-0.13988 -5.65373,-0.3028 -1.67129,-0.16527 -3.34255,-0.37474 -4.9593,-0.84939 -1.46436,-0.44532 -2.9152,-0.97411 -4.12406,-1.94483 -1.25211,-1.12307 -2.1646,-2.45705 -2.5991,-4.10301 -0.47998,-1.94556 -0.65973,-3.93766 -0.55068,-5.94182 0.16076,-2.61967 0.51586,-5.2177 0.91502,-7.81097 0.43426,-2.8919 0.8965,-5.7794 1.34248,-8.6695 0.46051,-3.12132 0.86041,-6.25233 1.06347,-9.40255 0.21574,-3.48639 0.35122,-6.97695 0.33123,-10.47087 -0.006,-3.94328 -0.0146,-7.88655 -0.0205,-11.82983 -0.005,-4.31009 -0.0118,-8.62019 -0.0115,-12.93028 -0.001,-4.34292 0.004,-8.68583 0.0186,-13.02872 0.0145,-3.62627 0.0301,-7.25254 0.0509,-10.87878 0.0128,-2.64435 0.0234,-5.28874 0.0489,-7.93301 0.0147,-1.46599 0.0285,-2.93218 0.0703,-4.3977 0,-0.29003 4.10173,-0.29003 4.10173,0 z"
       inkscape:connector-curvature="0"
       inkscape:export-xdpi="48.0396"
       inkscape:export-ydpi="48.0396" />
    <path
       style="fill:#000000;fill-opacity:1;stroke:none;stroke-width:2.5999999;stroke-linecap:square;stroke-linejoin:bevel;stroke-miterlimit:4;stroke-dasharray:none;stroke-dashoffset:0;stroke-opacity:1"
       id="path4365"
       d="m -183.84964,-452.74046 c -1.02084,-0.26088 -2.03601,-0.54208 -3.04806,-0.83544 -1.66596,-0.48567 -3.3317,-0.97107 -5.00641,-1.426 -1.69756,-0.47299 -3.43186,-0.75559 -5.1871,-0.88331 -1.27052,-0.11508 -2.49947,0.003 -3.75184,0.24287 -1.37096,0.29661 -2.60789,0.953 -3.79684,1.673 -1.31288,0.81878 -2.47294,1.83841 -3.54518,2.94693 -1.03746,1.09724 -1.89111,2.34239 -2.67415,3.62822 -0.69497,1.17973 -1.21866,2.44501 -1.62949,3.74809 -0.33781,1.09613 -0.42309,2.21976 -0.29672,3.35379 0.16677,1.07316 0.64652,2.02751 1.25851,2.91 0.75218,0.97158 1.69481,1.75891 2.67521,2.48794 1.04955,0.76298 2.2021,1.35928 3.37729,1.90069 1.20538,0.57096 2.44273,1.07012 3.67144,1.58777 1.31967,0.53345 2.6397,1.06379 3.94519,1.6314 1.45446,0.60627 2.86355,1.3114 4.26513,2.02932 1.38567,0.71842 2.70877,1.54669 4.00879,2.40815 1.38203,0.89266 2.69044,1.8884 3.93803,2.95927 1.20245,1.03881 2.24368,2.23616 3.19016,3.50769 0.85346,1.17238 1.44569,2.48483 1.86969,3.86423 0.3662,1.26753 0.47122,2.58136 0.46755,3.89437 -0.0119,1.27909 -0.32907,2.50769 -0.76684,3.69964 -0.45495,1.15781 -1.09878,2.21839 -1.81822,3.22764 -0.73979,1.02211 -1.6654,1.87362 -2.65387,2.64764 -0.99944,0.76272 -2.11563,1.34036 -3.2563,1.85767 -1.1662,0.51544 -2.38559,0.89006 -3.61312,1.2266 -1.31052,0.3505 -2.64644,0.59052 -3.98416,0.80895 -1.3903,0.23052 -2.79043,0.3821 -4.19537,0.48488 -1.65971,0.11306 -3.32344,0.0779 -4.97358,-0.12564 -1.35167,-0.1509 -2.65677,-0.5351 -3.93243,-0.99226 -1.22317,-0.44288 -2.3137,-1.13448 -3.32258,-1.94385 -0.91605,-0.78159 -1.67503,-1.72307 -2.38568,-2.68951 -0.1086,-0.14931 -0.2172,-0.29861 -0.3258,-0.44792 -0.106,-0.18086 2.45172,-1.67995 2.55772,-1.49909 l 0,0 c 0.10468,0.14252 0.20936,0.28505 0.31404,0.42757 0.58982,0.77876 1.21136,1.54504 1.98101,2.15516 0.81918,0.61032 1.7056,1.11067 2.68281,1.42499 1.11734,0.36157 2.25465,0.65246 3.4296,0.74839 1.25531,0.11024 1.91258,0.13147 3.06997,0.0881 1.3338,-0.0791 2.66425,-0.19329 3.98445,-0.40589 1.25897,-0.18994 2.51633,-0.39785 3.75565,-0.69302 1.11278,-0.28139 2.22006,-0.5928 3.28485,-1.02614 0.97718,-0.40865 1.93863,-0.86265 2.80677,-1.47637 0.82089,-0.5973 1.59364,-1.25859 2.213,-2.07008 0.61111,-0.81447 1.15442,-1.67425 1.54917,-2.61679 0.35603,-0.90399 0.61682,-1.83802 0.62952,-2.8177 0.003,-1.05917 -0.0824,-2.11901 -0.38324,-3.14012 -0.34781,-1.09987 -0.84654,-2.13663 -1.54734,-3.05921 -0.85697,-1.10864 -1.79895,-2.1486 -2.87457,-3.0514 -1.18525,-0.98816 -2.42588,-1.90549 -3.7208,-2.74583 -1.22797,-0.80229 -2.47892,-1.57111 -3.79188,-2.22827 -1.36074,-0.68723 -2.73469,-1.34799 -4.1387,-1.943 -1.29597,-0.56296 -2.60897,-1.08391 -3.91327,-1.62704 -1.26277,-0.53125 -2.52825,-1.05779 -3.7642,-1.64978 -1.31963,-0.64209 -2.61016,-1.34963 -3.77822,-2.24508 -1.17987,-0.92562 -2.3056,-1.93 -3.16264,-3.17321 -0.7868,-1.24542 -1.40356,-2.57663 -1.59273,-4.05424 -0.14238,-1.47101 -0.0601,-2.93389 0.36642,-4.35869 0.45851,-1.5006 1.04075,-2.96026 1.8249,-4.32359 0.86459,-1.4516 1.80838,-2.8584 2.95478,-4.10616 1.2039,-1.28194 2.50596,-2.46759 3.99149,-3.42032 1.41422,-0.88656 2.88631,-1.69673 4.51157,-2.12722 1.96205,-0.47742 3.96898,-0.59363 5.98176,-0.38922 1.90077,0.18982 3.77835,0.52876 5.6163,1.05746 1.68619,0.46995 3.36319,0.97062 5.03525,1.48861 0.97526,0.29996 1.95388,0.58868 2.92998,0.88589 0.18304,0.0924 -1.12363,2.68089 -1.30667,2.5885 z"
       inkscape:connector-curvature="0"
       inkscape:export-xdpi="48.0396"
       inkscape:export-ydpi="48.0396" />
    <rect
       style="fill:#ffffff;fill-opacity:1;stroke:none;stroke-width:2.5999999;stroke-linecap:square;stroke-linejoin:bevel;stroke-miterlimit:4;stroke-dasharray:none;stroke-dashoffset:0;stroke-opacity:1"
       id="rect4373"
       width="32.577419"
       height="127.78429"
       x="-424.95193"
       y="-457.24139"
       transform="matrix(0.70710678,0.70710678,-0.70710678,0.70710678,0,0)"
       inkscape:export-xdpi="48.0396"
       inkscape:export-ydpi="48.0396" />
    <rect
       style="fill:none;fill-opacity:1;stroke:#959595;stroke-width:2.035;stroke-linecap:square;stroke-linejoin:bevel;stroke-miterlimit:4;stroke-dasharray:none;stroke-dashoffset:0;stroke-opacity:1"
       id="rect4369"
       width="34.850704"
       height="126.99356"
       x="-424.14166"
       y="-456.89429"
       transform="matrix(0.70710678,0.70710678,-0.70710678,0.70710678,0,0)"
       inkscape:export-xdpi="48.0396"
       inkscape:export-ydpi="48.0396" />
    <rect
       style="fill:#959595;fill-opacity:1;stroke:none;stroke-width:2.035;stroke-linecap:square;stroke-linejoin:bevel;stroke-miterlimit:4;stroke-dasharray:none;stroke-dashoffset:0;stroke-opacity:1"
       id="rect4371"
       width="9.6428576"
       height="126.60714"
       x="-399.3949"
       y="-456.79041"
       transform="matrix(0.70710678,0.70710678,-0.70710678,0.70710678,0,0)"
       inkscape:export-xdpi="48.0396"
       inkscape:export-ydpi="48.0396" />
    <rect
       style="fill:#000000;fill-opacity:1;stroke:none;stroke-width:2.03500009;stroke-linecap:square;stroke-linejoin:bevel;stroke-miterlimit:4;stroke-dasharray:none;stroke-dashoffset:0;stroke-opacity:1"
       id="rect4371-3"
       width="9.6428576"
       height="126.60714"
       x="-671.39948"
       y="-494.32928"
       transform="matrix(0.70710678,0.70710678,-0.70710678,0.70710678,0,0)"
       inkscape:export-xdpi="48.0396"
       inkscape:export-ydpi="48.0396" />
    <rect
       style="fill:#ffffff;fill-opacity:1;stroke:none;stroke-width:2.5999999;stroke-linecap:square;stroke-linejoin:bevel;stroke-miterlimit:4;stroke-dasharray:none;stroke-dashoffset:0;stroke-opacity:1"
       id="rect4273-6"
       width="182.24588"
       height="22.321276"
       x="-245.54077"
       y="-92.640846"
       inkscape:export-xdpi="48.0396"
       inkscape:export-ydpi="48.0396" />
    <path
       style="fill:#000000;fill-opacity:1;stroke:none;stroke-width:2.03500009;stroke-linecap:square;stroke-linejoin:bevel;stroke-miterlimit:4;stroke-dasharray:none;stroke-dashoffset:0;stroke-opacity:1"
       id="path4412"
       d="m -239.32544,-81.81865 c 1.78466,-0.0702 3.5707,-0.0884 5.35632,-0.11114 3.77376,-0.0471 7.54774,-0.0684 11.32169,-0.089 4.88349,-0.0219 9.76702,-0.029 14.65053,-0.0325 4.8896,-0.002 9.77921,0.009 14.66879,0.0202 4.26478,0.009 8.52955,0.0237 12.79434,0.0352 3.61893,0.026 7.23731,0.10183 10.85559,0.17654 3.07765,0.0655 6.15528,0.1329 9.23292,0.19894 2.69204,0.0559 5.38424,0.10216 8.07652,0.14282 2.50607,0.0396 5.01226,0.0688 7.51846,0.0972 2.47316,0.0483 4.94561,0.1292 7.41813,0.20475 2.44478,0.0833 4.89051,0.13546 7.33491,0.23128 2.37388,0.10224 4.74721,0.21849 7.12117,0.31904 2.45449,0.10309 4.90959,0.1878 7.36478,0.26891 2.41075,0.0798 4.822,0.13943 7.2333,0.19609 2.32141,0.053 4.643,0.0962 6.96462,0.13747 2.172325,0.0371 4.344759,0.0663 6.517203,0.0944 1.988625,0.0257 3.977288,0.048 5.96597,0.0685 1.543762,0.0232 3.08773,-0.0171 4.631033,-0.0556 1.589968,-0.0453 3.177297,-0.15814 4.764287,-0.26694 1.497744,-0.10602 2.995995,-0.20342 4.494565,-0.2952 1.490887,-0.0897 2.982768,-0.15871 4.474839,-0.22176 0.977441,-0.0408 1.955128,-0.0742 2.932851,-0.10649 0.192331,-0.0582 0.965803,2.83746 0.773465,2.89568 l 0,0 c -0.971035,0.0313 -1.942053,0.0637 -2.912836,0.1031 -1.479445,0.0606 -2.958702,0.12696 -4.43718,0.21055 -1.490444,0.0851 -2.980092,0.18487 -4.469193,0.2933 -1.616232,0.11637 -3.232342,0.2392 -4.850856,0.31432 -2.044216,0.0617 -4.088977,0.11933 -6.134254,0.0857 -1.992702,-0.0138 -3.985403,-0.0288 -5.978058,-0.0491 -2.177208,-0.0228 -4.354382,-0.0492 -6.531466,-0.0827 -2.3278,-0.0353 -4.65551,-0.0753 -6.98302,-0.12798 -2.41898,-0.0553 -4.83781,-0.11876 -7.25628,-0.19596 -2.46327,-0.08 -4.92629,-0.16893 -7.38844,-0.28181 -2.36741,-0.1084 -4.73456,-0.22464 -7.10266,-0.31557 -2.44212,-0.0797 -4.88486,-0.13581 -7.32697,-0.21656 -2.45664,-0.0773 -4.91331,-0.16222 -7.37091,-0.19619 -2.51054,-0.0236 -5.02105,-0.0514 -7.53152,-0.0834 -2.6974,-0.0368 -5.39481,-0.0756 -8.09212,-0.1194 -3.08176,-0.0471 -6.16346,-0.0977 -9.2452,-0.14648 -3.60952,-0.0547 -7.21926,-0.10583 -10.82924,-0.10319 -4.27044,0.0114 -8.54087,0.0259 -12.81132,0.0352 -4.89283,0.0107 -9.78566,0.0224 -14.67848,0.0201 -4.87832,-0.003 -9.75662,-0.0106 -14.63488,-0.0325 -3.75965,-0.0206 -7.51931,-0.0418 -11.27877,-0.089 -1.76775,-0.0226 -3.53593,-0.0405 -5.3027,-0.11115 -0.18728,-0.0512 0.49276,-2.8709 0.68007,-2.81971 z"
       inkscape:connector-curvature="0"
       inkscape:export-xdpi="48.0396"
       inkscape:export-ydpi="48.0396" />
    <rect
       style="fill:#ffffff;fill-opacity:1;stroke:none;stroke-width:2.03500009;stroke-linecap:square;stroke-linejoin:bevel;stroke-miterlimit:4;stroke-dasharray:none;stroke-dashoffset:0;stroke-opacity:1"
       id="rect4503-1"
       width="88.571434"
       height="171.42857"
       x="-63.876923"
       y="112.43932"
       inkscape:export-xdpi="48.0396"
       inkscape:export-ydpi="48.0396"
       transform="matrix(0,-1,1,0,0,0)" />
    <path
       style="fill:#ffffff;fill-opacity:1;fill-rule:evenodd;stroke:#000000;stroke-width:1px;stroke-linecap:butt;stroke-linejoin:miter;stroke-opacity:1"
       d="m 116.50614,65.623992 164.14979,-4.04061 -5.05076,-24.24366 -15.15229,-37.37564963 -38.89087,-17.67767037 -39.39595,0.50508 -38.3858,21.7182804 -23.73858,29.7995006 -7.57615,19.697969 z"
       id="path4465-5"
       inkscape:connector-curvature="0"
       inkscape:export-xdpi="48.0396"
       inkscape:export-ydpi="48.0396" />
    <path
       style="fill:#000000;fill-opacity:1;stroke:none;stroke-width:2.03500009;stroke-linecap:square;stroke-linejoin:bevel;stroke-miterlimit:4;stroke-dasharray:none;stroke-dashoffset:0;stroke-opacity:1"
       id="path4416"
       d="m 115.22148,61.076051 c 1.62623,-0.044 3.25314,-0.0566 4.87981,-0.0754 3.22522,-0.0326 6.45051,-0.0576 9.67582,-0.0797 4.33984,-0.11997 8.68093,-0.22605 13.02131,-0.33736 6.35777,-0.16556 12.71588,-0.31987 19.07515,-0.41313 8.40141,-0.0737 16.8034,-0.037 25.20493,-7.1e-4 8.27514,0.0428 16.55021,0.0989 24.82521,0.16253 7.6383,0.0604 15.27668,0.10946 22.91503,0.16272 6.87538,0.0433 13.75077,0.0846 20.62618,0.12462 6.13093,0.0307 12.26185,0.0626 18.39277,0.0957 3.54476,0.0159 7.08947,0.039 10.63414,0.0684 0.42471,0.11003 -1.13131,6.11631 -1.55602,6.00628 l 0,0 c -3.55221,0.0111 -7.10441,0.0161 -10.65664,0.0118 -6.13885,-0.002 -12.2777,-0.008 -18.41653,-0.0238 -6.88384,-0.0125 -13.76768,-0.0281 -20.65148,-0.0526 -7.64683,-0.0231 -15.29362,-0.056 -22.94041,-0.0896 -8.27585,-0.0374 -16.55163,-0.0875 -24.82737,-0.14513 -7.30261,-0.0514 -14.60527,-0.11039 -21.90809,-0.1141 -6.35023,0.0166 -12.69966,0.12224 -19.04885,0.23412 -5.40194,0.10161 -10.80408,0.22079 -16.20724,0.22212 -3.21167,-0.0221 -6.42332,-0.0471 -9.63491,-0.0797 -1.61376,-0.0188 -3.22777,-0.0312 -4.84109,-0.0754 -0.39611,-0.1017 1.04218,-5.70344 1.43828,-5.60174 z"
       inkscape:connector-curvature="0"
       inkscape:export-xdpi="48.0396"
       inkscape:export-ydpi="48.0396" />
    <path
       style="fill:#000000;fill-opacity:1;stroke:none;stroke-width:2.03500009;stroke-linecap:square;stroke-linejoin:bevel;stroke-miterlimit:4;stroke-dasharray:none;stroke-dashoffset:0;stroke-opacity:1"
       id="path4432"
       d="m 278.35573,62.165751 c -0.22971,-1.24521 -0.44518,-2.49295 -0.65968,-3.74087 -0.31665,-1.87198 -0.68872,-3.73358 -1.05533,-5.5962 -0.46377,-2.28737 -0.92867,-4.57448 -1.41931,-6.85624 -0.5267,-2.482 -1.09434,-4.95479 -1.68107,-7.42318 -0.60608,-2.5212 -1.29256,-5.02204 -2.01975,-7.5107 -0.69909,-2.42523 -1.55789,-4.79639 -2.5338,-7.12255 -0.97519,-2.25162 -2.10126,-4.43288 -3.30125,-6.5717 -1.18256,-2.05204 -2.50482,-4.01444 -3.92622,-5.9071 -1.39905,-1.8449697 -2.96694,-3.5492197 -4.58994,-5.1969497 -1.66948,-1.66333 -3.48509,-3.16674 -5.32134,-4.63994 -1.90919,-1.54364996 -3.94539,-2.91517 -5.99359,-4.26454 -2.10657,-1.3864 -4.282,-2.66217 -6.48248,-3.89236 -2.18192,-1.23355 -4.44606,-2.30749 -6.74824,-3.2947 -2.29768,-0.9854603 -4.66011,-1.8009303 -7.06002,-2.4960603 -2.42606,-0.69548 -4.89466,-1.22101 -7.38155,-1.64264 -2.49237,-0.42154 -5.00619,-0.68218 -7.52418,-0.88769 -2.22826,-0.18516 -4.35723,-0.15192 -5.9899,-0.134 -2.46814,0.0265 -4.92765,0.24061 -7.37805,0.52227 -2.41307,0.2824 -4.79283,0.77608 -7.15941,1.31518 -2.29182,0.525 -4.54737,1.19038 -6.78094,1.92125 -2.18808,0.7266 -4.32518,1.5914903 -6.44278,2.5002403 -2.09539,0.90957 -4.15815,1.89167 -6.20135,2.91242 -2.09688,1.05151 -4.15334,2.18031 -6.20123,3.32349 -2.11499,1.17528 -4.19844,2.40530004 -6.26669,3.6606 -2.06228,1.25418 -4.10082,2.54662 -6.11318,3.87932 -1.94888,1.3019 -3.84487,2.6789 -5.69227,4.12057 -1.82036,1.4329797 -3.55391,2.9703597 -5.24209,4.5555297 -1.67896,1.59847 -3.28064,3.27379 -4.84364,4.9849 -1.57672,1.73024 -3.05527,3.5453 -4.51852,5.37131 -1.4714,1.81924 -2.85787,3.70361 -4.19409,5.62359 -1.32325,1.90864 -2.52433,3.89664 -3.67888,5.91049 -1.11766,1.93946 -2.09565,3.95245 -3.00009,5.99852 -0.81944,1.86453 -1.47959,3.79109 -2.06913,5.73867 -0.52462,1.75182 -0.89048,3.54369 -1.15028,5.35218 -0.22929,1.62882 -0.27993,3.27355 -0.24143,4.91571 0.0359,1.44584 0.28742,2.86715 0.6531,4.26235 0.0863,0.40597 -5.65504,1.6269 -5.74137,1.22092 l 0,0 c -0.43842,-1.76011 -0.74936,-3.54927 -0.79521,-5.3674 -0.0448,-1.91075 0.008,-3.82479 0.26637,-5.72117 0.28328,-2.05833 0.6826,-4.09911 1.26563,-6.09544 0.63606,-2.14363 1.34431,-4.26621 2.22822,-6.3223 0.95968,-2.21308 1.99002,-4.39615 3.18754,-6.49225 1.21691,-2.14436 2.48252,-4.26196 3.87655,-6.29706 1.391,-2.02236 2.83285,-4.00943 4.3714,-5.92291 1.52582,-1.91025 3.05951,-3.81544 4.69749,-5.63182 1.6381,-1.80891 3.30996,-3.58632 5.06705,-5.2810697 1.78167,-1.70323 3.61507,-3.35228 5.54,-4.89332 1.93384,-1.54421 3.92203,-3.0163 5.97147,-4.40429996 2.05707,-1.38499 4.14653,-2.72088004 6.26177,-4.01536004 2.11224,-1.29956 4.24388,-2.56749 6.41037,-3.77493 2.10435,-1.18973 4.22374,-2.35389 6.37787,-3.4514803 2.1158,-1.08267 4.25956,-2.11055 6.43074,-3.07768 2.23889,-0.9934 4.50098,-1.9349 6.81526,-2.74042 2.36844,-0.80935 4.76046,-1.55055 7.19256,-2.14633 2.52959,-0.60357 5.06977,-1.17678 7.64899,-1.52811 2.61458,-0.34243 5.24101,-0.61052 7.87853,-0.6847 3.15646,-0.0756 6.31896,-0.0557 9.46535,0.23457 2.66208,0.2494 5.319,0.56312 7.95018,1.04583 2.66199,0.50528 5.3071,1.10259 7.90033,1.89406 2.57196,0.80483 5.10905,1.71807 7.57418,2.81111 2.43715,1.09129 4.8354,2.26712 7.15245,3.59736 2.29346,1.3076303 4.56035,2.6626303 6.7551,4.1314703 2.16773,1.45179 4.30803,2.94665 6.32533,4.60443 1.97132,1.61380004 3.91249,3.26860004 5.69167,5.09593 1.75862,1.82474 3.45614,3.71077 4.96758,5.7485 1.52838,2.0816597 2.95993,4.2322297 4.23227,6.4813997 1.2806,2.31232 2.48798,4.66697 3.52144,7.10156 1.03117,2.50234 1.94764,5.04858 2.69258,7.65207 0.74822,2.57155 1.45466,5.15554 2.07208,7.76197 0.59145,2.50631 1.16157,5.01752 1.68978,7.53802 0.48763,2.31436 0.94951,4.63397 1.40277,6.95529 0.36143,1.90963 0.7229,3.81935 1.01871,5.74054 0.19387,1.23546 0.38579,2.47122 0.58279,3.70618 0.0591,0.40569 -5.67812,1.24135 -5.73722,0.83567 z"
       inkscape:connector-curvature="0"
       inkscape:export-xdpi="48.0396"
       inkscape:export-ydpi="48.0396" />
    <rect
       style="fill:#ffffff;fill-opacity:1;stroke:none;stroke-width:2.03500009;stroke-linecap:square;stroke-linejoin:bevel;stroke-miterlimit:4;stroke-dasharray:none;stroke-dashoffset:0;stroke-opacity:1"
       id="rect4503"
       width="88.571434"
       height="171.42857"
       x="137.01076"
       y="185.3055"
       inkscape:export-xdpi="48.0396"
       inkscape:export-ydpi="48.0396" />
    <path
       style="fill:#000000;fill-opacity:1;stroke:none;stroke-width:2.03500009;stroke-linecap:square;stroke-linejoin:bevel;stroke-miterlimit:4;stroke-dasharray:none;stroke-dashoffset:0;stroke-opacity:1"
       id="path4416-5"
       d="m 141.80436,188.17087 c 0.044,1.62623 0.0566,3.25314 0.0754,4.87981 0.0326,3.22522 0.0576,6.45051 0.0797,9.67582 0.11997,4.33984 0.22605,8.68093 0.33736,13.02131 0.16556,6.35777 0.31987,12.71588 0.41313,19.07515 0.0737,8.40141 0.037,16.8034 7.1e-4,25.20493 -0.0428,8.27514 -0.0989,16.55021 -0.16253,24.82521 -0.0604,7.6383 -0.10946,15.27668 -0.16272,22.91503 -0.0433,6.87538 -0.0846,13.75077 -0.12462,20.62618 -0.0307,6.13093 -0.0626,12.26185 -0.0957,18.39277 -0.0159,3.54476 -0.039,7.08947 -0.0684,10.63414 -0.11003,0.42471 -6.11631,-1.13131 -6.00628,-1.55602 l 0,0 c -0.0111,-3.55221 -0.0161,-7.10441 -0.0118,-10.65664 0.002,-6.13885 0.008,-12.2777 0.0238,-18.41653 0.0125,-6.88384 0.0281,-13.76768 0.0526,-20.65148 0.0231,-7.64683 0.056,-15.29362 0.0896,-22.94041 0.0374,-8.27585 0.0875,-16.55163 0.14513,-24.82737 0.0514,-7.30261 0.11039,-14.60527 0.1141,-21.90809 -0.0166,-6.35023 -0.12224,-12.69966 -0.23412,-19.04885 -0.10161,-5.40194 -0.22079,-10.80408 -0.22212,-16.20724 0.0221,-3.21167 0.0471,-6.42332 0.0797,-9.63491 0.0188,-1.61376 0.0312,-3.22777 0.0754,-4.84109 0.1017,-0.39611 5.70344,1.04218 5.60174,1.43828 z"
       inkscape:connector-curvature="0"
       inkscape:export-xdpi="48.0396"
       inkscape:export-ydpi="48.0396" />
    <path
       style="fill:#000000;fill-opacity:1;stroke:none;stroke-width:2.03500009;stroke-linecap:square;stroke-linejoin:bevel;stroke-miterlimit:4;stroke-dasharray:none;stroke-dashoffset:0;stroke-opacity:1"
       id="path4432-3"
       d="m 140.71466,351.30512 c 1.24521,-0.22971 2.49295,-0.44518 3.74087,-0.65968 1.87198,-0.31665 3.73358,-0.68872 5.5962,-1.05533 2.28737,-0.46377 4.57448,-0.92867 6.85624,-1.41931 2.482,-0.5267 4.95479,-1.09434 7.42318,-1.68107 2.5212,-0.60608 5.02204,-1.29256 7.5107,-2.01975 2.42523,-0.69909 4.79639,-1.55789 7.12255,-2.5338 2.25162,-0.97519 4.43288,-2.10126 6.5717,-3.30125 2.05204,-1.18256 4.01444,-2.50482 5.9071,-3.92622 1.84497,-1.39905 3.54922,-2.96694 5.19695,-4.58994 1.66333,-1.66948 3.16674,-3.48509 4.63994,-5.32134 1.54365,-1.90919 2.91517,-3.94539 4.26454,-5.99359 1.3864,-2.10657 2.66217,-4.282 3.89236,-6.48248 1.23355,-2.18192 2.30749,-4.44606 3.2947,-6.74824 0.98546,-2.29768 1.80093,-4.66011 2.49606,-7.06002 0.69548,-2.42606 1.22101,-4.89466 1.64264,-7.38155 0.42154,-2.49237 0.68218,-5.00619 0.88769,-7.52418 0.18516,-2.22826 0.15192,-4.35723 0.134,-5.9899 -0.0265,-2.46814 -0.24061,-4.92765 -0.52227,-7.37805 -0.2824,-2.41307 -0.77608,-4.79283 -1.31518,-7.15941 -0.525,-2.29182 -1.19038,-4.54737 -1.92125,-6.78094 -0.7266,-2.18808 -1.59149,-4.32518 -2.50024,-6.44278 -0.90957,-2.09539 -1.89167,-4.15815 -2.91242,-6.20135 -1.05151,-2.09688 -2.18031,-4.15334 -3.32349,-6.20123 -1.17528,-2.11499 -2.4053,-4.19844 -3.6606,-6.26669 -1.25418,-2.06228 -2.54662,-4.10082 -3.87932,-6.11318 -1.3019,-1.94888 -2.6789,-3.84487 -4.12057,-5.69227 -1.43298,-1.82036 -2.97036,-3.55391 -4.55553,-5.24209 -1.59847,-1.67896 -3.27379,-3.28064 -4.9849,-4.84364 -1.73024,-1.57672 -3.5453,-3.05527 -5.37131,-4.51852 -1.81924,-1.4714 -3.70361,-2.85787 -5.62359,-4.19409 -1.90864,-1.32325 -3.89664,-2.52433 -5.91049,-3.67888 -1.93946,-1.11766 -3.95245,-2.09565 -5.99852,-3.00009 -1.86453,-0.81944 -3.79109,-1.47959 -5.73867,-2.06913 -1.75182,-0.52462 -3.54369,-0.89048 -5.35218,-1.15028 -1.62882,-0.22929 -3.27355,-0.27993 -4.91571,-0.24143 -1.44584,0.0359 -2.86715,0.28742 -4.26235,0.6531 -0.40597,0.0863 -1.6269,-5.65504 -1.22092,-5.74137 l 0,0 c 1.76011,-0.43842 3.54927,-0.74936 5.3674,-0.79521 1.91075,-0.0448 3.82479,0.008 5.72117,0.26637 2.05833,0.28328 4.09911,0.6826 6.09544,1.26563 2.14363,0.63606 4.26621,1.34431 6.3223,2.22822 2.21308,0.95968 4.39615,1.99002 6.49225,3.18754 2.14436,1.21691 4.26196,2.48252 6.29706,3.87655 2.02236,1.391 4.00943,2.83285 5.92291,4.3714 1.91025,1.52582 3.81544,3.05951 5.63182,4.69749 1.80891,1.6381 3.58632,3.30996 5.28107,5.06705 1.70323,1.78167 3.35228,3.61507 4.89332,5.54 1.54421,1.93384 3.0163,3.92203 4.4043,5.97147 1.38499,2.05707 2.72088,4.14653 4.01536,6.26177 1.29956,2.11224 2.56749,4.24388 3.77493,6.41037 1.18973,2.10435 2.35389,4.22374 3.45148,6.37787 1.08267,2.1158 2.11055,4.25956 3.07768,6.43074 0.9934,2.23889 1.9349,4.50098 2.74042,6.81526 0.80935,2.36844 1.55055,4.76046 2.14633,7.19256 0.60357,2.52959 1.17678,5.06977 1.52811,7.64899 0.34243,2.61458 0.61052,5.24101 0.6847,7.87853 0.0756,3.15646 0.0557,6.31896 -0.23457,9.46535 -0.2494,2.66208 -0.56312,5.319 -1.04583,7.95018 -0.50528,2.66199 -1.10259,5.3071 -1.89406,7.90033 -0.80483,2.57196 -1.71807,5.10905 -2.81111,7.57418 -1.09129,2.43715 -2.26712,4.8354 -3.59736,7.15245 -1.30763,2.29346 -2.66263,4.56035 -4.13147,6.7551 -1.45179,2.16773 -2.94665,4.30803 -4.60443,6.32533 -1.6138,1.97132 -3.2686,3.91249 -5.09593,5.69167 -1.82474,1.75862 -3.71077,3.45614 -5.7485,4.96758 -2.08166,1.52838 -4.23223,2.95993 -6.4814,4.23227 -2.31232,1.2806 -4.66697,2.48798 -7.10156,3.52144 -2.50234,1.03117 -5.04858,1.94764 -7.65207,2.69258 -2.57155,0.74822 -5.15554,1.45466 -7.76197,2.07208 -2.50631,0.59145 -5.01752,1.16157 -7.53802,1.68978 -2.31436,0.48763 -4.63397,0.94951 -6.95529,1.40277 -1.90963,0.36143 -3.81935,0.7229 -5.74054,1.01871 -1.23546,0.19387 -2.47122,0.38579 -3.70618,0.58279 -0.40569,0.0591 -1.24135,-5.67812 -0.83567,-5.73722 z"
       inkscape:connector-curvature="0"
       inkscape:export-xdpi="48.0396"
       inkscape:export-ydpi="48.0396" />
    <path
       style="fill:#000000;fill-opacity:1;stroke:none;stroke-width:2.03500009;stroke-linecap:square;stroke-linejoin:bevel;stroke-miterlimit:4;stroke-dasharray:none;stroke-dashoffset:0;stroke-opacity:1"
       id="path4454"
       d="m 154.58508,290.86873 c 0.576,-1.0881 1.03413,-2.23241 1.51285,-3.36506 0.75311,-1.78391 1.51724,-3.56304 2.25085,-5.35511 0.88033,-2.19135 1.79047,-4.37007 2.72963,-6.53682 1.00085,-2.333 2.03469,-4.65139 3.07741,-6.9659 1.08198,-2.34462 2.17829,-4.68242 3.29431,-7.01101 1.14109,-2.37338 2.33006,-4.72325 3.59121,-7.03506 0.98214,-1.80351 2.08291,-3.53616 3.39318,-5.11829 1.81585,-2.08602 3.03007,-2.28754 5.78353,-2.32421 1.61073,0.49839 2.64559,1.69684 3.51244,3.07194 0.76581,1.3014 1.25094,2.73292 1.68075,4.17245 0.49339,1.73033 0.83172,3.49873 1.14475,5.26887 0.33881,1.99394 0.59085,4.00098 0.87951,6.00249 0.32556,2.20457 0.61737,4.41379 0.88819,6.62569 0.28859,2.37396 0.52272,4.75395 0.74009,7.13532 0.23012,2.47545 0.38645,4.95681 0.58436,7.43481 0.20814,2.48724 0.46454,4.97017 0.65055,7.45921 0.1735,2.50107 0.27052,5.00652 0.35879,7.51178 0.0494,1.62535 0.0316,0.81537 0.0538,2.42992 0.006,0.42041 -5.93931,0.50847 -5.94554,0.0881 l 0,0 c -0.0335,-1.53591 -0.0115,-0.75475 -0.0667,-2.34348 -0.0841,-2.43718 -0.17614,-4.87467 -0.3487,-7.30749 -0.19117,-2.48157 -0.44196,-4.95796 -0.65029,-7.43811 -0.19757,-2.4606 -0.34808,-4.92491 -0.57329,-7.38336 -0.20945,-2.33095 -0.43506,-4.66059 -0.71314,-6.9845 -0.26249,-2.17873 -0.54585,-4.35483 -0.85874,-6.52695 -0.27332,-1.95017 -0.51121,-3.9056 -0.83358,-5.84856 -0.27394,-1.58451 -0.56673,-3.16842 -0.99937,-4.71872 -0.29167,-0.99256 -0.60327,-1.99169 -1.14391,-2.882 -0.13698,-0.20015 -0.70521,-0.75377 -0.2037,-0.28268 0.55249,-0.0316 1.10964,-0.0165 1.65748,-0.0947 0.17371,-0.0248 -0.3428,-0.48025 -0.7351,0.20166 -1.13317,1.28327 -1.98662,2.77288 -2.81235,4.26597 -1.21097,2.24448 -2.35763,4.52288 -3.47979,6.81293 -1.10221,2.29118 -2.1887,4.58948 -3.25498,6.89766 -1.03681,2.29578 -2.06878,4.59359 -3.06588,6.90699 -0.93772,2.12888 -1.84449,4.27075 -2.72282,6.42482 -0.7512,1.8175 -1.5431,3.6173 -2.32809,5.42036 -0.56769,1.28521 -1.10551,2.58621 -1.78309,3.8192 -0.1717,0.37226 -5.43629,-2.05584 -5.2646,-2.4281 z"
       inkscape:connector-curvature="0"
       inkscape:export-xdpi="48.0396"
       inkscape:export-ydpi="48.0396" />
    <path
       style="fill:#000000;fill-opacity:1;stroke:none;stroke-width:2.03500009;stroke-linecap:square;stroke-linejoin:bevel;stroke-miterlimit:4;stroke-dasharray:none;stroke-dashoffset:0;stroke-opacity:1"
       id="path4456"
       d="m 146.68359,273.93005 c 0.14878,-0.002 0.59512,-0.004 0.44634,-0.006 -2.4944,-0.0313 0.91811,-0.11092 1.45786,-0.14686 1.7275,-0.10063 3.44951,-0.27229 5.172,-0.4343 2.1041,-0.20047 4.21041,-0.37633 6.31797,-0.53602 2.42952,-0.18272 4.86206,-0.3196 7.29504,-0.44617 2.62951,-0.15464 5.26371,-0.18149 7.89695,-0.19672 3.17491,-0.0108 6.34981,0.008 9.52466,0.0258 2.74119,0.006 5.48155,0.0254 8.22174,0.10008 1.88228,0.0595 0.94019,0.0284 2.82627,0.0932 0.40736,0.11695 -1.24659,5.87782 -1.65395,5.76087 l 0,0 c -1.86095,-0.0613 -0.93295,-0.0325 -2.784,-0.0863 -2.70788,-0.0625 -5.41639,-0.0636 -8.12484,-0.0814 -2.3166,-0.0132 -4.59804,-0.025 -6.50772,-0.0286 -2.5592,0.002 -5.12041,-0.003 -7.67711,0.12375 -2.40114,0.11271 -4.80219,0.23068 -7.20098,0.38652 -2.07972,0.13795 -4.15838,0.2908 -6.23444,0.47662 -1.77495,0.1558 -3.54888,0.33882 -5.32826,0.43353 -1.69426,0.093 -3.38909,0.21701 -5.08742,0.17009 -0.39655,-0.10182 1.04335,-5.70984 1.43989,-5.60803 z"
       inkscape:connector-curvature="0"
       inkscape:export-xdpi="48.0396"
       inkscape:export-ydpi="48.0396" />
    <path
       style="fill:#000000;fill-opacity:1;stroke:none;stroke-width:2.03500009;stroke-linecap:square;stroke-linejoin:bevel;stroke-miterlimit:4;stroke-dasharray:none;stroke-dashoffset:0;stroke-opacity:1"
       id="path4458"
       d="m 195.62,4.54411 c 0.0129,1.10967 0.0222,2.21938 0.0291,3.32911 0.009,1.59281 0.0145,3.18564 0.0195,4.77846 -0.017,2.00876 -0.10418,4.01555 -0.23701,6.01968 -0.17115,2.24567 -0.33138,4.49247 -0.53641,6.73535 -0.23647,2.37502 -0.48274,4.74903 -0.7135,7.12462 -0.24226,2.49124 -0.44709,4.98584 -0.63777,7.48148 -0.19542,2.58122 -0.35458,5.16495 -0.50275,7.74925 -0.0204,0.42203 -5.98877,0.13289 -5.96832,-0.28913 l 0,0 c 0.15185,-2.61614 0.31497,-5.23169 0.5153,-7.84463 0.19583,-2.53042 0.40614,-5.05978 0.65598,-7.58552 0.23403,-2.36526 0.48653,-4.72858 0.72747,-7.09314 0.20394,-2.20518 0.36762,-4.41396 0.54719,-6.62122 0.13612,-1.88971 0.23393,-3.78204 0.2627,-5.67674 0.005,-1.59282 0.0103,-3.18565 0.0195,-4.77846 0.007,-1.10973 0.0162,-2.21944 0.0291,-3.32911 0,-0.40941 5.78993,-0.40941 5.78993,0 z"
       inkscape:connector-curvature="0"
       inkscape:export-xdpi="48.0396"
       inkscape:export-ydpi="48.0396" />
    <path
       style="fill:#000000;fill-opacity:1;stroke:none;stroke-width:2.03500009;stroke-linecap:square;stroke-linejoin:bevel;stroke-miterlimit:4;stroke-dasharray:none;stroke-dashoffset:0;stroke-opacity:1"
       id="path4460"
       d="m 173.50545,2.17747 c 0.79411,-0.90525 1.7653,-1.61109 2.77139,-2.25928 1.31454,-0.85556 2.73959,-1.49768 4.20991,-2.03022 1.73078,-0.59398 3.54036,-0.86054 5.35041,-1.06927 1.96065,-0.21544 3.93034,-0.3071 5.90144,-0.34274 2.68385,-0.0889 5.35053,0.15362 7.99653,0.57525 2.26534,0.32681 4.46055,0.96363 6.58439,1.80365 1.95802,0.80029 3.63746,2.03715 5.11823,3.52675 1.22225,1.27113 1.96906,2.83958 2.50136,4.49825 0.4683,1.58656 0.47393,3.20881 0.25379,4.83246 -0.24969,1.67546 -0.88729,3.23638 -1.64713,4.73699 -0.86434,1.67072 -2.05306,3.12497 -3.31307,4.50803 -1.38786,1.50057 -3.00552,2.74756 -4.68504,3.89991 -1.75078,1.1563 -3.62395,2.1108 -5.50686,3.02996 -1.45852,0.69367 -2.94127,1.33403 -4.41644,1.99094 -0.53157,0.22796 -1.0645,0.48985 -1.60314,0.6791 -2.86655,-5.62908 -3.21068,-4.84445 0.45339,-5.14228 1.40667,-0.11897 2.815,-0.21585 4.22397,-0.30256 2.21552,-0.16303 4.4363,-0.1671 6.65648,-0.14169 1.96651,0.003 3.92721,0.17228 5.87329,0.44463 1.98986,0.2596 3.93195,0.77774 5.82334,1.43708 1.92672,0.68919 3.65584,1.75045 5.22062,3.05416 1.48863,1.27138 2.51405,2.87799 3.25599,4.66869 0.67814,1.8168 0.6914,3.7141 0.43517,5.60826 -0.29914,1.88215 -1.09632,3.5867 -2.11217,5.17838 -1.04556,1.55512 -2.45155,2.77987 -3.94419,3.88656 -1.52246,1.10084 -3.21921,1.90329 -4.96219,2.58343 -1.7788,0.68297 -3.63799,1.08386 -5.51698,1.36375 -2.38945,0.31993 -4.80796,0.34045 -7.21253,0.21912 -1.93975,-0.0985 -3.86526,-0.3682 -5.78259,-0.66715 -1.99168,-0.31674 -3.964,-0.74408 -5.9439,-1.12625 -1.39023,-0.25478 -2.77307,-0.54795 -4.15874,-0.82617 -0.38289,-0.17063 2.03026,-5.58561 2.41316,-5.41497 l 0,0 c 1.3733,0.28068 2.74653,0.56176 4.1235,0.82406 1.90626,0.37801 3.8096,0.77797 5.73439,1.05255 1.74342,0.24924 3.4953,0.45327 5.25761,0.49837 0.0688,0.002 1.55683,0.10107 3.50933,-0.0759 1.53523,-0.15442 3.06444,-0.37804 4.53201,-0.87577 1.37047,-0.45364 2.71184,-0.9992 3.92997,-1.78554 1.05749,-0.69477 2.08299,-1.45145 2.8695,-2.45698 0.68576,-0.93318 1.21994,-1.95285 1.44883,-3.09928 0.16953,-0.99295 0.21604,-1.99597 -0.14863,-2.95609 -0.4493,-1.02222 -1.11652,-1.8865 -2.00829,-2.56936 -1.16923,-0.86217 -2.45637,-1.53132 -3.84936,-1.95839 -1.62201,-0.48451 -3.27465,-0.85538 -4.96136,-1.02877 -1.77285,-0.18434 -3.55158,-0.28953 -5.33486,-0.28191 -0.23568,-0.002 -1.42766,-0.0584 -3.42839,0.0512 -1.37264,0.0665 -2.74511,0.13907 -4.11542,0.24431 -1.40096,0.10972 -11.87859,1.27551 -6.04726,-4.74483 0.63785,-0.44107 1.30519,-0.80874 2.01874,-1.11817 1.43393,-0.67346 2.86817,-1.34587 4.30817,-2.00646 1.69349,-0.78592 3.36519,-1.62962 4.97096,-2.58304 1.40151,-0.8917 2.76022,-1.85643 3.93534,-3.03909 1.00148,-1.02523 1.96509,-2.09712 2.67674,-3.35049 0.55393,-0.98708 1.03609,-2.01588 1.23241,-3.14049 0.15497,-0.86294 0.1696,-1.72034 -0.0935,-2.56831 -0.30336,-0.89724 -0.72659,-1.71666 -1.4421,-2.3603 -1.06437,-0.9525 -2.28507,-1.67724 -3.63692,-2.15246 -1.83555,-0.62798 -3.71847,-1.08628 -5.64593,-1.32914 -1.62504,-0.20985 -3.23704,-0.23482 -4.86358,-0.37023 -0.17855,-0.0149 0.35824,-0.008 0.53736,-0.0127 -1.82911,-7e-5 -3.65735,0.0303 -5.48049,0.19479 -1.48166,0.12171 -2.97178,0.23968 -4.4151,0.61751 -1.1435,0.29895 -2.24078,0.72679 -3.26393,1.32475 -0.66813,0.38618 -1.36333,0.7441 -1.92552,1.28332 -0.24253,0.32966 -4.90462,-3.10026 -4.66209,-3.42992 z"
       inkscape:connector-curvature="0"
       inkscape:export-xdpi="48.0396"
       inkscape:export-ydpi="48.0396" />
    <rect
       style="fill:#ffffff;fill-opacity:1;stroke:none;stroke-width:2.5999999;stroke-linecap:square;stroke-linejoin:bevel;stroke-miterlimit:4;stroke-dasharray:none;stroke-dashoffset:0;stroke-opacity:1"
       id="rect4373-6"
       width="32.577419"
       height="127.78429"
       x="-748.35278"
       y="-73.289291"
       transform="matrix(0.70710678,0.70710678,-0.70710678,0.70710678,0,0)"
       inkscape:export-xdpi="48.0396"
       inkscape:export-ydpi="48.0396" />
    <rect
       style="fill:none;fill-opacity:1;stroke:#959595;stroke-width:2.03500009;stroke-linecap:square;stroke-linejoin:bevel;stroke-miterlimit:4;stroke-dasharray:none;stroke-dashoffset:0;stroke-opacity:1"
       id="rect4369-2"
       width="34.850704"
       height="126.99356"
       x="-750.37085"
       y="-72.942184"
       transform="matrix(0.70710678,0.70710678,-0.70710678,0.70710678,0,0)"
       inkscape:export-xdpi="48.0396"
       inkscape:export-ydpi="48.0396" />
    <rect
       style="fill:#959595;fill-opacity:1;stroke:none;stroke-width:2.03500009;stroke-linecap:square;stroke-linejoin:bevel;stroke-miterlimit:4;stroke-dasharray:none;stroke-dashoffset:0;stroke-opacity:1"
       id="rect4371-9"
       width="9.6428576"
       height="126.60714"
       x="-751.07941"
       y="-72.838303"
       transform="matrix(0.70710678,0.70710678,-0.70710678,0.70710678,0,0)"
       inkscape:export-xdpi="48.0396"
       inkscape:export-ydpi="48.0396" />
  </g>
</svg>
