<?xml version="1.0" encoding="UTF-8" standalone="no"?>
<!-- Created with Inkscape (http://www.inkscape.org/) -->

<svg
   xmlns:dc="http://purl.org/dc/elements/1.1/"
   xmlns:cc="http://creativecommons.org/ns#"
   xmlns:rdf="http://www.w3.org/1999/02/22-rdf-syntax-ns#"
   xmlns:svg="http://www.w3.org/2000/svg"
   xmlns="http://www.w3.org/2000/svg"
   xmlns:sodipodi="http://sodipodi.sourceforge.net/DTD/sodipodi-0.dtd"
   xmlns:inkscape="http://www.inkscape.org/namespaces/inkscape"
   width="334.91718mm"
   height="299.27652mm"
   viewBox="0 0 1186.7144 1060.4286"
   id="svg2"
   version="1.1"
   inkscape:version="0.91 r13725"
   inkscape:export-filename="/home/noon/dev/silky.github.com/src/images/wave-up.png"
   inkscape:export-xdpi="48.0396"
   inkscape:export-ydpi="48.0396"
   sodipodi:docname="wave-up.svg">
  <defs
     id="defs4" />
  <sodipodi:namedview
     id="base"
     pagecolor="#ffffff"
     bordercolor="#666666"
     borderopacity="1.0"
     inkscape:pageopacity="0.0"
     inkscape:pageshadow="2"
     inkscape:zoom="0.7"
     inkscape:cx="813.32558"
     inkscape:cy="646.19961"
     inkscape:document-units="px"
     inkscape:current-layer="layer1"
     showgrid="false"
     fit-margin-top="0"
     fit-margin-left="0"
     fit-margin-right="0"
     fit-margin-bottom="0"
     showguides="false"
     inkscape:window-width="2560"
     inkscape:window-height="1440"
     inkscape:window-x="0"
     inkscape:window-y="0"
     inkscape:window-maximized="0" />
  <metadata
     id="metadata7">
    <rdf:RDF>
      <cc:Work
         rdf:about="">
        <dc:format>image/svg+xml</dc:format>
        <dc:type
           rdf:resource="http://purl.org/dc/dcmitype/StillImage" />
        <dc:title></dc:title>
      </cc:Work>
    </rdf:RDF>
  </metadata>
  <g
     inkscape:label="Layer 1"
     inkscape:groupmode="layer"
     id="layer1"
     transform="translate(1226.275,1268.9802)">
    <rect
       style="fill:#ffffff;fill-opacity:1;stroke:#ff00d9;stroke-width:2;stroke-linecap:square;stroke-linejoin:bevel;stroke-miterlimit:4;stroke-dasharray:none;stroke-dashoffset:0;stroke-opacity:1"
       id="rect4500"
       width="351.42856"
       height="248.57143"
       x="-411.56067"
       y="-1191.8373" />
    <rect
       style="fill:#ffffff;fill-opacity:1;stroke:none;stroke-width:2;stroke-linecap:square;stroke-linejoin:bevel;stroke-miterlimit:4;stroke-dasharray:none;stroke-dashoffset:0;stroke-opacity:1"
       id="rect4502"
       width="301.42856"
       height="258.57144"
       x="-343.84641"
       y="-1268.9802" />
    <rect
       style="fill:#ffffff;fill-opacity:1;stroke:#ff00d9;stroke-width:1.85761952;stroke-linecap:square;stroke-linejoin:bevel;stroke-miterlimit:4;stroke-dasharray:none;stroke-dashoffset:0;stroke-opacity:1"
       id="rect4500-6"
       width="302.99951"
       height="248.71381"
       x="-1197.3462"
       y="-496.47998" />
    <rect
       style="fill:#ffffff;fill-opacity:1;stroke:none;stroke-width:2;stroke-linecap:square;stroke-linejoin:bevel;stroke-miterlimit:4;stroke-dasharray:none;stroke-dashoffset:0;stroke-opacity:1"
       id="rect4502-7"
       width="354.28571"
       height="254.28574"
       x="-1202.2749"
       y="-493.98022" />
    <rect
       style="fill:#ffffff;fill-opacity:1;stroke:none;stroke-width:2.5999999;stroke-linecap:square;stroke-linejoin:bevel;stroke-miterlimit:4;stroke-dasharray:none;stroke-dashoffset:0;stroke-opacity:1"
       id="rect4367"
       width="75.714279"
       height="144.28571"
       x="-1226.275"
       y="-564.69452"
       inkscape:export-xdpi="48.0396"
       inkscape:export-ydpi="48.0396" />
    <rect
       style="fill:#000000;fill-opacity:1;stroke:none;stroke-width:2.03500009;stroke-linecap:square;stroke-linejoin:bevel;stroke-miterlimit:4;stroke-dasharray:none;stroke-dashoffset:0;stroke-opacity:1"
       id="rect4371-3"
       width="9.6428576"
       height="126.60714"
       x="-636.04413"
       y="-127.64391"
       transform="matrix(0.70710678,0.70710678,-0.70710678,0.70710678,0,0)"
       inkscape:export-xdpi="48.0396"
       inkscape:export-ydpi="48.0396" />
    <rect
       style="fill:#ffffff;fill-opacity:1;stroke:none;stroke-width:2.03500009;stroke-linecap:square;stroke-linejoin:bevel;stroke-miterlimit:4;stroke-dasharray:none;stroke-dashoffset:0;stroke-opacity:1"
       id="rect4503-1"
       width="88.571434"
       height="171.42857"
       x="1173.8374"
       y="-496.13211"
       inkscape:export-xdpi="48.0396"
       inkscape:export-ydpi="48.0396"
       transform="matrix(0,-1,1,0,0,0)" />
    <path
       style="fill:#ffffff;fill-opacity:1;fill-rule:evenodd;stroke:#000000;stroke-width:1px;stroke-linecap:butt;stroke-linejoin:miter;stroke-opacity:1"
       d="m -492.06529,-1172.0903 164.14979,-4.0406 -5.05076,-24.2437 -15.15229,-37.3756 -38.89087,-17.6777 -39.39595,0.5051 -38.3858,21.7183 -23.73858,29.7995 -7.57615,19.6979 z"
       id="path4465-5"
       inkscape:connector-curvature="0"
       inkscape:export-xdpi="48.0396"
       inkscape:export-ydpi="48.0396" />
    <path
       style="fill:#000000;fill-opacity:1;stroke:none;stroke-width:2.03500009;stroke-linecap:square;stroke-linejoin:bevel;stroke-miterlimit:4;stroke-dasharray:none;stroke-dashoffset:0;stroke-opacity:1"
       id="path4416"
       d="m -493.34995,-1176.6382 c 1.62623,-0.044 3.25314,-0.057 4.87981,-0.075 3.22522,-0.033 6.45051,-0.058 9.67582,-0.08 4.33984,-0.12 8.68093,-0.2261 13.02131,-0.3374 6.35777,-0.1656 12.71588,-0.3199 19.07515,-0.4131 8.40141,-0.074 16.8034,-0.037 25.20493,-7e-4 8.27514,0.043 16.55021,0.099 24.82521,0.1625 7.6383,0.06 15.27668,0.1095 22.91503,0.1627 6.87538,0.043 13.75077,0.085 20.62618,0.1246 6.13093,0.031 12.26185,0.063 18.39277,0.096 3.54476,0.016 7.08947,0.039 10.63414,0.068 0.42471,0.1101 -1.13131,6.1163 -1.55602,6.0063 l 0,0 c -3.55221,0.011 -7.10441,0.016 -10.65664,0.012 -6.13885,0 -12.2777,-0.01 -18.41653,-0.024 -6.88384,-0.012 -13.76768,-0.028 -20.65148,-0.053 -7.64683,-0.023 -15.29362,-0.056 -22.94041,-0.09 -8.27585,-0.037 -16.55163,-0.087 -24.82737,-0.1451 -7.30261,-0.051 -14.60527,-0.1104 -21.90809,-0.1141 -6.35023,0.017 -12.69966,0.1222 -19.04885,0.2341 -5.40194,0.1016 -10.80408,0.2208 -16.20724,0.2221 -3.21167,-0.022 -6.42332,-0.047 -9.63491,-0.08 -1.61376,-0.019 -3.22777,-0.031 -4.84109,-0.075 -0.39611,-0.1017 1.04218,-5.7034 1.43828,-5.6017 z"
       inkscape:connector-curvature="0"
       inkscape:export-xdpi="48.0396"
       inkscape:export-ydpi="48.0396" />
    <path
       style="fill:#000000;fill-opacity:1;stroke:none;stroke-width:2.03500009;stroke-linecap:square;stroke-linejoin:bevel;stroke-miterlimit:4;stroke-dasharray:none;stroke-dashoffset:0;stroke-opacity:1"
       id="path4432"
       d="m -330.2157,-1175.5485 c -0.22971,-1.2452 -0.44518,-2.493 -0.65968,-3.7409 -0.31665,-1.872 -0.68872,-3.7336 -1.05533,-5.5962 -0.46377,-2.2874 -0.92867,-4.5745 -1.41931,-6.8562 -0.5267,-2.482 -1.09434,-4.9548 -1.68107,-7.4232 -0.60608,-2.5212 -1.29256,-5.0221 -2.01975,-7.5107 -0.69909,-2.4253 -1.55789,-4.7964 -2.5338,-7.1226 -0.97519,-2.2516 -2.10126,-4.4329 -3.30125,-6.5717 -1.18256,-2.052 -2.50482,-4.0144 -3.92622,-5.9071 -1.39905,-1.8449 -2.96694,-3.5492 -4.58994,-5.1969 -1.66948,-1.6634 -3.48509,-3.1668 -5.32134,-4.64 -1.90919,-1.5436 -3.94539,-2.9151 -5.99359,-4.2645 -2.10657,-1.3864 -4.282,-2.6622 -6.48248,-3.8924 -2.18192,-1.2335 -4.44606,-2.3075 -6.74824,-3.2947 -2.29768,-0.9854 -4.66011,-1.8009 -7.06002,-2.496 -2.42606,-0.6955 -4.89466,-1.221 -7.38155,-1.6427 -2.49237,-0.4215 -5.00619,-0.6821 -7.52418,-0.8877 -2.22826,-0.1851 -4.35723,-0.1519 -5.9899,-0.134 -2.46814,0.027 -4.92765,0.2407 -7.37805,0.5223 -2.41307,0.2824 -4.79283,0.7761 -7.15941,1.3152 -2.29182,0.525 -4.54737,1.1904 -6.78094,1.9212 -2.18808,0.7266 -4.32518,1.5915 -6.44278,2.5003 -2.09539,0.9096 -4.15815,1.8917 -6.20135,2.9124 -2.09688,1.0515 -4.15334,2.1803 -6.20123,3.3235 -2.11499,1.1753 -4.19844,2.4053 -6.26669,3.6606 -2.06228,1.2542 -4.10082,2.5466 -6.11318,3.8793 -1.94888,1.3019 -3.84487,2.6789 -5.69227,4.1206 -1.82036,1.433 -3.55391,2.9703 -5.24209,4.5555 -1.67896,1.5985 -3.28064,3.2738 -4.84364,4.9849 -1.57672,1.7303 -3.05527,3.5453 -4.51852,5.3713 -1.4714,1.8193 -2.85787,3.7036 -4.19409,5.6236 -1.32325,1.9087 -2.52433,3.8967 -3.67888,5.9105 -1.11766,1.9395 -2.09565,3.9525 -3.00009,5.9985 -0.81944,1.8646 -1.47959,3.7911 -2.06913,5.7387 -0.52462,1.7518 -0.89048,3.5437 -1.15028,5.3522 -0.22929,1.6288 -0.27993,3.2735 -0.24143,4.9157 0.0359,1.4458 0.28742,2.8671 0.6531,4.2623 0.0863,0.406 -5.65504,1.6269 -5.74137,1.221 l 0,0 c -0.43842,-1.7602 -0.74936,-3.5493 -0.79521,-5.3674 -0.0448,-1.9108 0.008,-3.8248 0.26637,-5.7212 0.28328,-2.0583 0.6826,-4.0991 1.26563,-6.0955 0.63606,-2.1436 1.34431,-4.2662 2.22822,-6.3223 0.95968,-2.213 1.99002,-4.3961 3.18754,-6.4922 1.21691,-2.1444 2.48252,-4.262 3.87655,-6.2971 1.391,-2.0223 2.83285,-4.0094 4.3714,-5.9229 1.52582,-1.9102 3.05951,-3.8154 4.69749,-5.6318 1.6381,-1.8089 3.30996,-3.5863 5.06705,-5.2811 1.78167,-1.7032 3.61507,-3.3522 5.54,-4.8933 1.93384,-1.5442 3.92203,-3.0163 5.97147,-4.4043 2.05707,-1.385 4.14653,-2.7209 6.26177,-4.0153 2.11224,-1.2996 4.24388,-2.5675 6.41037,-3.775 2.10435,-1.1897 4.22374,-2.3539 6.37787,-3.4515 2.1158,-1.0826 4.25956,-2.1105 6.43074,-3.0776 2.23889,-0.9934 4.50098,-1.9349 6.81526,-2.7405 2.36844,-0.8093 4.76046,-1.5505 7.19256,-2.1463 2.52959,-0.6036 5.06977,-1.1768 7.64899,-1.5281 2.61458,-0.3424 5.24101,-0.6105 7.87853,-0.6847 3.15646,-0.076 6.31896,-0.056 9.46535,0.2346 2.66208,0.2494 5.319,0.5631 7.95018,1.0458 2.66199,0.5053 5.3071,1.1026 7.90033,1.8941 2.57196,0.8048 5.10905,1.718 7.57418,2.8111 2.43715,1.0913 4.8354,2.2671 7.15245,3.5973 2.29346,1.3077 4.56035,2.6627 6.7551,4.1315 2.16773,1.4518 4.30803,2.9467 6.32533,4.6044 1.97132,1.6138 3.91249,3.2686 5.69167,5.096 1.75862,1.8247 3.45614,3.7107 4.96758,5.7485 1.52838,2.0816 2.95993,4.2322 4.23227,6.4814 1.2806,2.3123 2.48798,4.6669 3.52144,7.1015 1.03117,2.5024 1.94764,5.0486 2.69258,7.6521 0.74822,2.5715 1.45466,5.1555 2.07208,7.762 0.59145,2.5063 1.16157,5.0175 1.68978,7.538 0.48763,2.3143 0.94951,4.634 1.40277,6.9553 0.36143,1.9096 0.7229,3.8193 1.01871,5.7405 0.19387,1.2355 0.38579,2.4712 0.58279,3.7062 0.0591,0.4057 -5.67812,1.2413 -5.73722,0.8357 z"
       inkscape:connector-curvature="0"
       inkscape:export-xdpi="48.0396"
       inkscape:export-ydpi="48.0396" />
    <rect
       style="fill:#ffffff;fill-opacity:1;stroke:none;stroke-width:2.03500009;stroke-linecap:square;stroke-linejoin:bevel;stroke-miterlimit:4;stroke-dasharray:none;stroke-dashoffset:0;stroke-opacity:1"
       id="rect4503"
       width="88.571434"
       height="171.42857"
       x="-128.13211"
       y="-1034.6946"
       inkscape:export-xdpi="48.0396"
       inkscape:export-ydpi="48.0396" />
    <path
       style="fill:#000000;fill-opacity:1;stroke:none;stroke-width:2.03500009;stroke-linecap:square;stroke-linejoin:bevel;stroke-miterlimit:4;stroke-dasharray:none;stroke-dashoffset:0;stroke-opacity:1"
       id="path4416-5"
       d="m -123.3385,-1031.8292 c 0.044,1.6263 0.0566,3.2532 0.0754,4.8798 0.0326,3.2253 0.0576,6.4506 0.0797,9.6759 0.11997,4.3398 0.22605,8.6809 0.33736,13.0213 0.16556,6.35778 0.31987,12.71589 0.41313,19.07516 0.0737,8.40141 0.037,16.8034 7.1e-4,25.20493 -0.0428,8.27514 -0.0989,16.55021 -0.16253,24.82521 -0.0604,7.6383 -0.10946,15.27668 -0.16272,22.91503 -0.0433,6.87538 -0.0846,13.75077 -0.12462,20.62618 -0.0307,6.13093 -0.0626,12.26185 -0.0957,18.39277 -0.0159,3.54476 -0.039,7.08947 -0.0684,10.63414 -0.11003,0.42471 -6.11631,-1.13131 -6.00628,-1.55602 l 0,0 c -0.0111,-3.55221 -0.0161,-7.10441 -0.0118,-10.65664 0.002,-6.13885 0.008,-12.2777 0.0238,-18.41653 0.0125,-6.88384 0.0281,-13.76768 0.0526,-20.65148 0.0231,-7.64683 0.056,-15.29362 0.0896,-22.94041 0.0374,-8.27585 0.0875,-16.55163 0.14513,-24.82737 0.0514,-7.30261 0.11039,-14.60527 0.1141,-21.90809 -0.0166,-6.35023 -0.12224,-12.69966 -0.23412,-19.04888 -0.10161,-5.4019 -0.22079,-10.8041 -0.22212,-16.2072 0.0221,-3.2117 0.0471,-6.4234 0.0797,-9.635 0.0188,-1.6137 0.0312,-3.2277 0.0754,-4.841 0.1017,-0.3962 5.70344,1.0421 5.60174,1.4382 z"
       inkscape:connector-curvature="0"
       inkscape:export-xdpi="48.0396"
       inkscape:export-ydpi="48.0396" />
    <path
       style="fill:#000000;fill-opacity:1;stroke:none;stroke-width:2.03500009;stroke-linecap:square;stroke-linejoin:bevel;stroke-miterlimit:4;stroke-dasharray:none;stroke-dashoffset:0;stroke-opacity:1"
       id="path4432-3"
       d="m -124.4282,-868.69488 c 1.24521,-0.22971 2.49295,-0.44518 3.74087,-0.65968 1.87198,-0.31665 3.73358,-0.68872 5.5962,-1.05533 2.28737,-0.46377 4.57448,-0.92867 6.85624,-1.41931 2.482,-0.5267 4.95479,-1.09434 7.42318,-1.68107 2.5212,-0.60608 5.02204,-1.29256 7.5107,-2.01975 2.42523,-0.69909 4.79639,-1.55789 7.12255,-2.5338 2.25162,-0.97519 4.43288,-2.10126 6.5717,-3.30125 2.05204,-1.18256 4.01444,-2.50482 5.9071,-3.92622 1.84497,-1.39905 3.54922,-2.96694 5.19695,-4.58994 1.663333,-1.66948 3.166743,-3.48509 4.639943,-5.32134 1.54365,-1.90919 2.91517,-3.94539 4.26454,-5.99359 1.3864,-2.10657 2.66217,-4.282 3.89236,-6.48248 1.23355,-2.18192 2.30749,-4.44606 3.2947,-6.74824 0.98546,-2.29768 1.80093,-4.66011 2.49606,-7.06002 0.69548,-2.42606 1.22101,-4.89466 1.64264,-7.38155 0.42154,-2.49237 0.68218,-5.00619 0.88769,-7.52418 0.18516,-2.22826 0.15192,-4.35723 0.134,-5.9899 -0.0265,-2.46814 -0.24061,-4.92765 -0.52227,-7.37805 -0.2824,-2.41307 -0.77608,-4.79283 -1.31518,-7.15941 -0.525,-2.29182 -1.19038,-4.54737 -1.92125,-6.78094 -0.7266,-2.18808 -1.59149,-4.32518 -2.50024,-6.44278 -0.90957,-2.09539 -1.89167,-4.15815 -2.91242,-6.20135 -1.05151,-2.09688 -2.18031,-4.15334 -3.32349,-6.20123 -1.17528,-2.11499 -2.4053,-4.19844 -3.6606,-6.26669 -1.25418,-2.06228 -2.54662,-4.10082 -3.87932,-6.11318 -1.301903,-1.94888 -2.678903,-3.84487 -4.120573,-5.69224 -1.43298,-1.8204 -2.97036,-3.554 -4.55553,-5.2422 -1.59847,-1.6789 -3.27379,-3.2806 -4.9849,-4.8436 -1.73024,-1.5767 -3.5453,-3.0553 -5.37131,-4.5185 -1.81924,-1.4714 -3.70361,-2.8579 -5.62359,-4.1941 -1.90864,-1.3233 -3.89664,-2.5243 -5.91049,-3.6789 -1.93946,-1.1176 -3.95245,-2.0956 -5.99852,-3.0001 -1.86453,-0.8194 -3.79109,-1.4796 -5.73867,-2.0691 -1.75182,-0.5246 -3.54369,-0.8905 -5.35218,-1.1503 -1.62882,-0.2293 -3.27355,-0.2799 -4.91571,-0.2414 -1.44584,0.036 -2.86715,0.2874 -4.26235,0.6531 -0.40597,0.086 -1.6269,-5.6551 -1.22092,-5.7414 l 0,0 c 1.76011,-0.4384 3.54927,-0.7493 5.3674,-0.7952 1.91075,-0.045 3.82479,0.01 5.72117,0.2664 2.05833,0.2833 4.09911,0.6826 6.09544,1.2656 2.14363,0.6361 4.26621,1.3443 6.3223,2.2282 2.21308,0.9597 4.39615,1.99 6.49225,3.1876 2.14436,1.2169 4.26196,2.4825 6.29706,3.8765 2.02236,1.391 4.00943,2.8329 5.92291,4.3714 1.91025,1.5258 3.81544,3.0595 5.63182,4.6975 1.80891,1.6381 3.58632,3.31 5.28107,5.0671 1.70323,1.7816 3.35228,3.615 4.893323,5.54 1.54421,1.9338 3.0163,3.922 4.4043,5.97146 1.38499,2.05707 2.72088,4.14653 4.01536,6.26177 1.29956,2.11224 2.56749,4.24388 3.77493,6.41037 1.18973,2.10435 2.35389,4.22374 3.45148,6.37787 1.08267,2.1158 2.11055,4.25956 3.07768,6.43074 0.9934,2.23889 1.9349,4.50098 2.74042,6.81526 0.80935,2.36844 1.55055,4.76046 2.14633,7.19256 0.60357,2.52959 1.17678,5.06977 1.52811,7.64899 0.34243,2.61458 0.61052,5.24101 0.6847,7.87853 0.0756,3.15646 0.0557,6.31896 -0.23457,9.46535 -0.2494,2.66208 -0.56312,5.319 -1.04583,7.95018 -0.50528,2.66199 -1.10259,5.3071 -1.89406,7.90033 -0.80483,2.57196 -1.71807,5.10905 -2.81111,7.57418 -1.09129,2.43715 -2.26712,4.8354 -3.59736,7.15245 -1.30763,2.29346 -2.66263,4.56035 -4.13147,6.7551 -1.45179,2.16773 -2.94665,4.30803 -4.60443,6.32533 -1.6138,1.97132 -3.2686,3.91249 -5.09593,5.69167 -1.82474,1.75862 -3.710773,3.45614 -5.748503,4.96758 -2.08166,1.52838 -4.23223,2.95993 -6.4814,4.23227 -2.31232,1.2806 -4.66697,2.48798 -7.10156,3.52144 -2.50234,1.03117 -5.04858,1.94764 -7.65207,2.69258 -2.57155,0.74822 -5.15554,1.45466 -7.76197,2.07208 -2.50631,0.59145 -5.01752,1.16157 -7.53802,1.68978 -2.31436,0.48763 -4.63397,0.94951 -6.95529,1.40277 -1.90963,0.36143 -3.81935,0.7229 -5.74054,1.01871 -1.23546,0.19387 -2.47122,0.38579 -3.70618,0.58279 -0.40569,0.0591 -1.24135,-5.67812 -0.83567,-5.73722 z"
       inkscape:connector-curvature="0"
       inkscape:export-xdpi="48.0396"
       inkscape:export-ydpi="48.0396" />
    <path
       style="fill:#000000;fill-opacity:1;stroke:none;stroke-width:2.03500009;stroke-linecap:square;stroke-linejoin:bevel;stroke-miterlimit:4;stroke-dasharray:none;stroke-dashoffset:0;stroke-opacity:1"
       id="path4454"
       d="m -110.55778,-929.13127 c 0.576,-1.0881 1.03413,-2.23241 1.51285,-3.36506 0.75311,-1.78391 1.51724,-3.56304 2.25085,-5.35511 0.88033,-2.19135 1.79047,-4.37007 2.72963,-6.53682 1.00085,-2.333 2.03469,-4.65139 3.07741,-6.9659 1.08198,-2.34462 2.17829,-4.68242 3.29431,-7.01101 1.14109,-2.37338 2.33006,-4.72325 3.59121,-7.03506 0.98214,-1.80351 2.08291,-3.53616 3.39318,-5.11829 1.81585,-2.08602 3.03007,-2.28754 5.78353,-2.32421 1.61073,0.49839 2.64559,1.69684 3.51244,3.07194 0.76581,1.3014 1.25094,2.73292 1.68075,4.17245 0.49339,1.73033 0.83172,3.49873 1.14475,5.26887 0.33881,1.99394 0.59085,4.00098 0.87951,6.00249 0.32556,2.20457 0.61737,4.41379 0.88819,6.62569 0.28859,2.37396 0.52272,4.75395 0.74009,7.13532 0.23012,2.47545 0.38645,4.95681 0.58436,7.43481 0.20814,2.48724 0.46454,4.97017 0.65055,7.45921 0.1735,2.50107 0.27052,5.00652 0.35879,7.51178 0.0494,1.62535 0.0316,0.81537 0.0538,2.42992 0.006,0.42041 -5.93931,0.50847 -5.94554,0.0881 l 0,0 c -0.0335,-1.53591 -0.0115,-0.75475 -0.0667,-2.34348 -0.0841,-2.43718 -0.17614,-4.87467 -0.3487,-7.30749 -0.19117,-2.48157 -0.44196,-4.95796 -0.65029,-7.43811 -0.19757,-2.4606 -0.34808,-4.92491 -0.57329,-7.38336 -0.20945,-2.33095 -0.43506,-4.66059 -0.71314,-6.9845 -0.26249,-2.17873 -0.54585,-4.35483 -0.85874,-6.52695 -0.27332,-1.95017 -0.51121,-3.9056 -0.83358,-5.84856 -0.27394,-1.58451 -0.56673,-3.16842 -0.99937,-4.71872 -0.29167,-0.99256 -0.60327,-1.99169 -1.14391,-2.882 -0.13698,-0.20015 -0.70521,-0.75377 -0.2037,-0.28268 0.55249,-0.0316 1.10964,-0.0165 1.65748,-0.0947 0.17371,-0.0248 -0.3428,-0.48025 -0.7351,0.20166 -1.13317,1.28327 -1.98662,2.77288 -2.81235,4.26597 -1.21097,2.24448 -2.35763,4.52288 -3.47979,6.81293 -1.10221,2.29118 -2.1887,4.58948 -3.25498,6.89766 -1.03681,2.29578 -2.06878,4.59359 -3.06588,6.90699 -0.93772,2.12888 -1.84449,4.27075 -2.72282,6.42482 -0.7512,1.8175 -1.5431,3.6173 -2.32809,5.42036 -0.56769,1.28521 -1.10551,2.58621 -1.78309,3.8192 -0.1717,0.37226 -5.43629,-2.05584 -5.2646,-2.4281 z"
       inkscape:connector-curvature="0"
       inkscape:export-xdpi="48.0396"
       inkscape:export-ydpi="48.0396" />
    <path
       style="fill:#000000;fill-opacity:1;stroke:none;stroke-width:2.03500009;stroke-linecap:square;stroke-linejoin:bevel;stroke-miterlimit:4;stroke-dasharray:none;stroke-dashoffset:0;stroke-opacity:1"
       id="path4456"
       d="m -118.45927,-946.06995 c 0.14878,-0.002 0.59512,-0.004 0.44634,-0.006 -2.4944,-0.0313 0.91811,-0.11092 1.45786,-0.14686 1.7275,-0.10063 3.44951,-0.27229 5.172,-0.4343 2.1041,-0.20047 4.21041,-0.37633 6.31797,-0.53602 2.42952,-0.18272 4.86206,-0.3196 7.29504,-0.44617 2.62951,-0.15464 5.26371,-0.18149 7.89695,-0.19672 3.17491,-0.0108 6.34981,0.008 9.52466,0.0258 2.74119,0.006 5.48155,0.0254 8.22174,0.10008 1.88228,0.0595 0.94019,0.0284 2.82627,0.0932 0.40736,0.11695 -1.24659,5.87782 -1.65395,5.76087 l 0,0 c -1.86095,-0.0613 -0.93295,-0.0325 -2.784,-0.0863 -2.70788,-0.0625 -5.41639,-0.0636 -8.12484,-0.0814 -2.3166,-0.0132 -4.59804,-0.025 -6.50772,-0.0286 -2.5592,0.002 -5.12041,-0.003 -7.67711,0.12375 -2.40114,0.11271 -4.80219,0.23068 -7.20098,0.38652 -2.07972,0.13795 -4.15838,0.2908 -6.23444,0.47662 -1.77495,0.1558 -3.54888,0.33882 -5.32826,0.43353 -1.69426,0.093 -3.38909,0.21701 -5.08742,0.17009 -0.39655,-0.10182 1.04335,-5.70984 1.43989,-5.60803 z"
       inkscape:connector-curvature="0"
       inkscape:export-xdpi="48.0396"
       inkscape:export-ydpi="48.0396" />
    <path
       style="fill:#000000;fill-opacity:1;stroke:none;stroke-width:2.03500009;stroke-linecap:square;stroke-linejoin:bevel;stroke-miterlimit:4;stroke-dasharray:none;stroke-dashoffset:0;stroke-opacity:1"
       id="path4458"
       d="m -412.95143,-1233.1702 c 0.0129,1.1097 0.0222,2.2194 0.0291,3.3291 0.009,1.5928 0.0145,3.1857 0.0195,4.7785 -0.017,2.0088 -0.10418,4.0155 -0.23701,6.0197 -0.17115,2.2456 -0.33138,4.4924 -0.53641,6.7353 -0.23647,2.375 -0.48274,4.7491 -0.7135,7.1246 -0.24226,2.4913 -0.44709,4.9859 -0.63777,7.4815 -0.19542,2.5812 -0.35458,5.165 -0.50275,7.7493 -0.0204,0.422 -5.98877,0.1329 -5.96832,-0.2892 l 0,0 c 0.15185,-2.6161 0.31497,-5.2316 0.5153,-7.8446 0.19583,-2.5304 0.40614,-5.0598 0.65598,-7.5855 0.23403,-2.3653 0.48653,-4.7286 0.72747,-7.0931 0.20394,-2.2052 0.36762,-4.414 0.54719,-6.6213 0.13612,-1.8897 0.23393,-3.782 0.2627,-5.6767 0.005,-1.5928 0.0103,-3.1857 0.0195,-4.7785 0.007,-1.1097 0.0162,-2.2194 0.0291,-3.3291 0,-0.4094 5.78993,-0.4094 5.78993,0 z"
       inkscape:connector-curvature="0"
       inkscape:export-xdpi="48.0396"
       inkscape:export-ydpi="48.0396" />
    <path
       style="fill:#000000;fill-opacity:1;stroke:none;stroke-width:2.03500009;stroke-linecap:square;stroke-linejoin:bevel;stroke-miterlimit:4;stroke-dasharray:none;stroke-dashoffset:0;stroke-opacity:1"
       id="path4460"
       d="m -435.06598,-1235.5368 c 0.79411,-0.9053 1.7653,-1.6111 2.77139,-2.2593 1.31454,-0.8556 2.73959,-1.4977 4.20991,-2.0302 1.73078,-0.594 3.54036,-0.8606 5.35041,-1.0693 1.96065,-0.2154 3.93034,-0.3071 5.90144,-0.3427 2.68385,-0.089 5.35053,0.1536 7.99653,0.5752 2.26534,0.3268 4.46055,0.9637 6.58439,1.8037 1.95802,0.8003 3.63746,2.0371 5.11823,3.5267 1.22225,1.2712 1.96906,2.8396 2.50136,4.4983 0.4683,1.5865 0.47393,3.2088 0.25379,4.8324 -0.24969,1.6755 -0.88729,3.2364 -1.64713,4.737 -0.86434,1.6707 -2.05306,3.125 -3.31307,4.5081 -1.38786,1.5005 -3.00552,2.7475 -4.68504,3.8999 -1.75078,1.1563 -3.62395,2.1108 -5.50686,3.0299 -1.45852,0.6937 -2.94127,1.3341 -4.41644,1.991 -0.53157,0.2279 -1.0645,0.4898 -1.60314,0.6791 -2.86655,-5.6291 -3.21068,-4.8445 0.45339,-5.1423 1.40667,-0.119 2.815,-0.2159 4.22397,-0.3026 2.21552,-0.163 4.4363,-0.1671 6.65648,-0.1417 1.96651,0 3.92721,0.1723 5.87329,0.4447 1.98986,0.2596 3.93195,0.7777 5.82334,1.437 1.92672,0.6892 3.65584,1.7505 5.22062,3.0542 1.48863,1.2714 2.51405,2.878 3.25599,4.6687 0.67814,1.8168 0.6914,3.7141 0.43517,5.6083 -0.29914,1.8821 -1.09632,3.5867 -2.11217,5.1783 -1.04556,1.5552 -2.45155,2.7799 -3.94419,3.8866 -1.52246,1.1008 -3.21921,1.9033 -4.96219,2.5834 -1.7788,0.683 -3.63799,1.0839 -5.51698,1.3638 -2.38945,0.3199 -4.80796,0.3404 -7.21253,0.2191 -1.93975,-0.098 -3.86526,-0.3682 -5.78259,-0.6672 -1.99168,-0.3167 -3.964,-0.744 -5.9439,-1.1262 -1.39023,-0.2548 -2.77307,-0.548 -4.15874,-0.8262 -0.38289,-0.1706 2.03026,-5.5856 2.41316,-5.4149 l 0,0 c 1.3733,0.2806 2.74653,0.5617 4.1235,0.824 1.90626,0.378 3.8096,0.778 5.73439,1.0526 1.74342,0.2492 3.4953,0.4532 5.25761,0.4983 0.0688,0 1.55683,0.1011 3.50933,-0.076 1.53523,-0.1544 3.06444,-0.378 4.53201,-0.8757 1.37047,-0.4537 2.71184,-0.9992 3.92997,-1.7856 1.05749,-0.6947 2.08299,-1.4514 2.8695,-2.457 0.68576,-0.9331 1.21994,-1.9528 1.44883,-3.0992 0.16953,-0.993 0.21604,-1.996 -0.14863,-2.9561 -0.4493,-1.0222 -1.11652,-1.8865 -2.00829,-2.5694 -1.16923,-0.8622 -2.45637,-1.5313 -3.84936,-1.9584 -1.62201,-0.4845 -3.27465,-0.8554 -4.96136,-1.0287 -1.77285,-0.1844 -3.55158,-0.2896 -5.33486,-0.282 -0.23568,0 -1.42766,-0.058 -3.42839,0.051 -1.37264,0.066 -2.74511,0.1391 -4.11542,0.2444 -1.40096,0.1097 -11.87859,1.2755 -6.04726,-4.7449 0.63785,-0.441 1.30519,-0.8087 2.01874,-1.1181 1.43393,-0.6735 2.86817,-1.3459 4.30817,-2.0065 1.69349,-0.7859 3.36519,-1.6296 4.97096,-2.583 1.40151,-0.8917 2.76022,-1.8565 3.93534,-3.0391 1.00148,-1.0253 1.96509,-2.0972 2.67674,-3.3505 0.55393,-0.9871 1.03609,-2.0159 1.23241,-3.1405 0.15497,-0.863 0.1696,-1.7204 -0.0935,-2.5683 -0.30336,-0.8973 -0.72659,-1.7167 -1.4421,-2.3603 -1.06437,-0.9525 -2.28507,-1.6773 -3.63692,-2.1525 -1.83555,-0.628 -3.71847,-1.0863 -5.64593,-1.3291 -1.62504,-0.2099 -3.23704,-0.2348 -4.86358,-0.3703 -0.17855,-0.015 0.35824,-0.01 0.53736,-0.013 -1.82911,0 -3.65735,0.03 -5.48049,0.1948 -1.48166,0.1217 -2.97178,0.2397 -4.4151,0.6175 -1.1435,0.299 -2.24078,0.7268 -3.26393,1.3248 -0.66813,0.3862 -1.36333,0.7441 -1.92552,1.2833 -0.24253,0.3297 -4.90462,-3.1002 -4.66209,-3.4299 z"
       inkscape:connector-curvature="0"
       inkscape:export-xdpi="48.0396"
       inkscape:export-ydpi="48.0396" />
    <rect
       style="fill:#ffffff;fill-opacity:1;stroke:#ff00d9;stroke-width:2;stroke-linecap:square;stroke-linejoin:bevel;stroke-miterlimit:4;stroke-dasharray:none;stroke-dashoffset:0;stroke-opacity:1"
       id="rect4474"
       width="487.39569"
       height="450.25284"
       x="-892.40137"
       y="-944.10663" />
    <rect
       style="fill:#ffffff;fill-opacity:1;stroke:none;stroke-width:2.5999999;stroke-linecap:square;stroke-linejoin:bevel;stroke-miterlimit:4;stroke-dasharray:none;stroke-dashoffset:0;stroke-opacity:1"
       id="rect4373"
       width="32.577419"
       height="127.78429"
       x="-972.45465"
       y="-432.99774"
       transform="matrix(0.70710678,0.70710678,-0.70710678,0.70710678,0,0)"
       inkscape:export-xdpi="48.0396"
       inkscape:export-ydpi="48.0396" />
    <rect
       style="fill:none;fill-opacity:1;stroke:#959595;stroke-width:2.03500009;stroke-linecap:square;stroke-linejoin:bevel;stroke-miterlimit:4;stroke-dasharray:none;stroke-dashoffset:0;stroke-opacity:1"
       id="rect4369"
       width="34.850704"
       height="126.99356"
       x="-971.64435"
       y="-432.65063"
       transform="matrix(0.70710678,0.70710678,-0.70710678,0.70710678,0,0)"
       inkscape:export-xdpi="48.0396"
       inkscape:export-ydpi="48.0396" />
    <rect
       style="fill:#959595;fill-opacity:1;stroke:none;stroke-width:2.03500009;stroke-linecap:square;stroke-linejoin:bevel;stroke-miterlimit:4;stroke-dasharray:none;stroke-dashoffset:0;stroke-opacity:1"
       id="rect4371"
       width="9.6428576"
       height="126.60714"
       x="-946.89758"
       y="-432.54675"
       transform="matrix(0.70710678,0.70710678,-0.70710678,0.70710678,0,0)"
       inkscape:export-xdpi="48.0396"
       inkscape:export-ydpi="48.0396" />
    <rect
       style="fill:#ffffff;fill-opacity:1;stroke:none;stroke-width:2.5999999;stroke-linecap:square;stroke-linejoin:bevel;stroke-miterlimit:4;stroke-dasharray:none;stroke-dashoffset:0;stroke-opacity:1"
       id="rect4373-6"
       width="32.577419"
       height="127.78429"
       x="-982.70819"
       y="215.61432"
       transform="matrix(0.70710678,0.70710678,-0.70710678,0.70710678,0,0)"
       inkscape:export-xdpi="48.0396"
       inkscape:export-ydpi="48.0396" />
    <rect
       style="fill:none;fill-opacity:1;stroke:#959595;stroke-width:2.03500009;stroke-linecap:square;stroke-linejoin:bevel;stroke-miterlimit:4;stroke-dasharray:none;stroke-dashoffset:0;stroke-opacity:1"
       id="rect4369-2"
       width="34.850704"
       height="126.99356"
       x="-984.72626"
       y="215.96143"
       transform="matrix(0.70710678,0.70710678,-0.70710678,0.70710678,0,0)"
       inkscape:export-xdpi="48.0396"
       inkscape:export-ydpi="48.0396" />
    <rect
       style="fill:#959595;fill-opacity:1;stroke:none;stroke-width:2.03500009;stroke-linecap:square;stroke-linejoin:bevel;stroke-miterlimit:4;stroke-dasharray:none;stroke-dashoffset:0;stroke-opacity:1"
       id="rect4371-9"
       width="9.6428576"
       height="126.60714"
       x="-985.43481"
       y="216.06531"
       transform="matrix(0.70710678,0.70710678,-0.70710678,0.70710678,0,0)"
       inkscape:export-xdpi="48.0396"
       inkscape:export-ydpi="48.0396" />
    <rect
       style="fill:#000000;fill-opacity:1;stroke:none;stroke-width:2.03500009;stroke-linecap:square;stroke-linejoin:bevel;stroke-miterlimit:4;stroke-dasharray:none;stroke-dashoffset:0;stroke-opacity:1"
       id="rect4371-3-3"
       width="9.6428576"
       height="126.60714"
       x="-1308.3011"
       y="-99.056602"
       transform="matrix(0.70710678,0.70710678,-0.70710678,0.70710678,0,0)"
       inkscape:export-xdpi="48.0396"
       inkscape:export-ydpi="48.0396" />
    <path
       style="fill:#000000;fill-opacity:1;stroke:none;stroke-width:2;stroke-linecap:square;stroke-linejoin:bevel;stroke-miterlimit:4;stroke-dasharray:none;stroke-dashoffset:0;stroke-opacity:1"
       id="path4538"
       d="m -1214.1748,-556.76511 c -0.2175,1.54226 -0.3023,3.09658 -0.375,4.65093 -0.1157,2.5317 -0.078,5.06747 -0.051,7.60076 0.032,3.1286 0.078,6.25675 0.1725,9.38411 0.1113,3.34829 0.2446,6.6958 0.3715,10.04353 0.1228,3.34133 0.234,6.68285 0.3951,10.02259 0.1818,3.50321 0.3697,7.00609 0.5456,10.50961 0.1924,3.81679 0.3469,7.63532 0.4886,11.45429 0.1397,3.97308 0.2791,7.94643 0.3574,11.92126 0.089,3.96426 0.015,7.92867 -0.075,11.89204 -0.1013,3.90544 -0.3393,7.80467 -0.6143,11.70107 -0.271,3.74767 -0.5852,7.49213 -0.7797,11.24478 -0.173,3.02076 -0.057,6.04093 0.3489,9.03689 0.3088,2.21106 1.0005,4.31937 1.9613,6.32572 0.7774,1.64735 1.9665,2.96888 3.324,4.1532 1.3714,1.09497 2.9801,1.76406 4.6253,2.32351 1.8169,0.54874 3.6894,0.88632 5.5684,1.13517 1.9785,0.26287 3.9709,0.34111 5.9641,0.3792 2.5082,0.0198 2.7196,0.0287 4.858,-0.0249 2.2915,-0.0761 4.5812,-0.19595 6.8712,-0.30708 2.4146,-0.10621 4.8282,-0.22449 7.2402,-0.3782 1.9636,-0.11305 3.9241,-0.27874 5.8568,-0.65039 1.3623,-0.2602 2.6034,-0.79653 3.726,-1.59919 1.2071,-0.93452 2.12,-2.15776 2.9632,-3.41423 0.9593,-1.44007 1.645,-3.02364 2.2225,-4.64728 0.609,-1.7949 1.0083,-3.64908 1.3677,-5.50696 0.3956,-2.14297 0.7051,-4.30094 0.955,-6.46542 0.2604,-2.24713 0.3602,-4.50554 0.4101,-6.76554 0.082,-2.33658 -0.073,-4.6698 -0.2446,-6.99849 -0.2138,-2.44299 -0.3905,-4.88773 -0.5144,-7.33689 -0.099,-2.48316 -0.1951,-4.9659 -0.3311,-7.44738 -0.1446,-2.50367 -0.2907,-5.00725 -0.427,-7.5114 -0.1339,-2.58558 -0.2754,-5.17106 -0.3519,-7.75908 -0.061,-2.58616 -0.055,-5.17324 -0.048,-7.75992 -0.01,-2.62827 0.038,-5.25528 0.1244,-7.88196 0.097,-2.66412 0.2104,-5.32761 0.3167,-7.99138 0.1082,-2.69863 0.2023,-5.39779 0.2901,-8.09716 0.088,-2.73495 0.1612,-5.47035 0.2292,-8.20587 0.07,-2.77822 0.124,-5.55677 0.1731,-8.33541 0.065,-2.8466 0.017,-5.69413 -0.03,-8.54059 -0.052,-2.88983 -0.1127,-5.77949 -0.1701,-8.66921 -0.058,-2.8908 -0.1085,-5.78172 -0.156,-8.6727 -0.026,-2.50179 -0.1496,-4.99765 -0.534,-7.47101 -0.2878,-1.81756 -0.9339,-3.52467 -1.7942,-5.14108 -0.7953,-1.43959 -1.9019,-2.64617 -3.0982,-3.75811 -1.2105,-1.10116 -2.6139,-1.94084 -4.052,-2.70474 -1.5425,-0.81645 -3.1917,-1.38426 -4.8555,-1.89304 -1.8419,-0.5461 -3.7226,-0.94266 -5.6069,-1.30924 -2.1115,-0.40877 -4.2438,-0.69186 -6.3698,-1.01098 -2.3703,-0.35483 -4.741,-0.70989 -7.1228,-0.97937 -2.3479,-0.26402 -4.7041,-0.42932 -7.0664,-0.46617 0.1247,0.006 0.4986,0.0121 0.374,0.0193 -1.7317,0.10052 -3.3925,0.19913 -5.1055,0.50713 -1.8805,0.33059 -3.6537,1.01937 -5.3829,1.80615 -1.5423,0.71371 -2.9513,1.65933 -4.2667,2.72765 -0.9445,0.74159 -1.6406,1.67579 -2.208,2.72062 -0.5326,0.9985 -0.7735,2.09974 -0.9428,3.20815 -0.21,1.44294 -0.2102,2.90184 -0.2008,4.35622 6e-4,1.73027 0.078,3.45554 0.2442,5.17738 0.2299,1.84845 0.5623,3.68225 0.8673,5.51933 0.2786,1.97765 0.6621,3.93484 1.0834,5.88616 0.072,0.33341 0.145,0.66682 0.2176,1.00022 0.075,0.41177 -5.7488,1.46687 -5.8234,1.0551 l 0,0 c -0.073,-0.33645 -0.1452,-0.67289 -0.2178,-1.00934 -0.4339,-2.03044 -0.8289,-4.0672 -1.1152,-6.12453 -0.3185,-1.95091 -0.6654,-3.8987 -0.8936,-5.86288 -0.1715,-1.87038 -0.2518,-3.74394 -0.242,-5.62266 0,-1.71329 0.014,-3.43147 0.2705,-5.12967 0.2563,-1.63631 0.6289,-3.25836 1.3713,-4.7516 0.8197,-1.61894 1.8115,-3.12123 3.1873,-4.32961 1.5894,-1.40933 3.3067,-2.66409 5.2103,-3.62167 2.0641,-1.01787 4.1872,-1.9314 6.4441,-2.43008 2.879,-0.6187 5.7861,-1.01558 8.7425,-0.82919 2.5103,0.0972 5.015,0.29139 7.5085,0.6017 2.4242,0.31011 4.841,0.67283 7.2559,1.04831 2.2059,0.33571 4.4133,0.67013 6.5978,1.12931 2.0534,0.43783 4.1012,0.91554 6.0967,1.57495 1.9472,0.66317 3.8668,1.41459 5.6548,2.44331 1.7761,1.0337 3.4912,2.17708 4.9656,3.62144 1.5279,1.5373 2.9241,3.20062 3.9241,5.13846 1.0539,2.11025 1.8719,4.31975 2.2456,6.65988 0.4252,2.70169 0.6106,5.42601 0.6368,8.1611 0.048,2.8853 0.099,5.77054 0.1564,8.65566 0.058,2.89583 0.1188,5.7916 0.1702,8.68755 0.047,2.90488 0.094,5.81088 0.024,8.71581 -0.054,2.78942 -0.1127,5.57877 -0.1814,8.36788 -0.069,2.74839 -0.1435,5.49666 -0.2334,8.24447 -0.089,2.71178 -0.1851,5.42334 -0.2953,8.13436 -0.1074,2.65262 -0.2218,5.30496 -0.321,7.95791 -0.088,2.57575 -0.1358,5.15183 -0.1278,7.72925 -0.01,2.53081 -0.016,5.06209 0.046,7.59237 0.079,2.54841 0.2137,5.09468 0.3439,7.64092 0.1341,2.50296 0.278,5.00535 0.4218,7.50777 0.1362,2.48924 0.2366,4.97951 0.3303,7.47066 0.1196,2.41095 0.2948,4.8173 0.502,7.22233 0.1813,2.48965 0.3475,4.98472 0.2559,7.48256 -0.061,2.41009 -0.175,4.81854 -0.448,7.21537 -0.2613,2.29444 -0.5972,4.58046 -1.0224,6.85057 -0.4108,2.0925 -0.8704,4.17918 -1.5445,6.20528 -0.6982,2.01123 -1.5232,3.97742 -2.6878,5.76996 -1.1249,1.72909 -2.3587,3.39566 -3.9451,4.7355 -1.629,1.30274 -3.4032,2.32907 -5.445,2.8432 -2.1476,0.5446 -4.3384,0.84988 -6.5506,0.98365 -2.4453,0.17922 -4.8925,0.31416 -7.3428,0.40386 -2.3194,0.10718 -4.6384,0.22234 -6.9583,0.31531 -2.6957,0.0942 -5.393,0.0942 -8.0893,0.0164 -2.1867,-0.0826 -4.3718,-0.23285 -6.5354,-0.57479 -2.1994,-0.36905 -4.3948,-0.81619 -6.49,-1.59843 -2.1974,-0.88193 -4.3095,-1.96264 -6.0696,-3.57786 -1.7616,-1.68867 -3.2876,-3.57477 -4.3169,-5.80736 -1.136,-2.47797 -1.9914,-5.06227 -2.3755,-7.77149 -0.4594,-3.30583 -0.6369,-6.63776 -0.4654,-9.97489 0.1788,-3.78893 0.4924,-7.56864 0.767,-11.35153 0.2668,-3.81575 0.5024,-7.63383 0.5982,-11.4584 0.089,-3.89066 0.1566,-7.78259 0.069,-11.67408 -0.079,-3.94633 -0.2205,-7.891 -0.3514,-11.83588 -0.1364,-3.79823 -0.2784,-7.59632 -0.4556,-11.3929 -0.166,-3.50584 -0.3503,-7.01073 -0.5246,-10.51614 -0.1579,-3.35585 -0.2631,-6.71357 -0.3925,-10.07059 -0.1296,-3.36391 -0.2655,-6.72763 -0.3695,-10.09245 -0.086,-3.16457 -0.1161,-6.32979 -0.1298,-9.49545 -0.01,-2.63686 -0.027,-5.27667 0.1306,-7.91007 0.1084,-1.70358 0.232,-3.40824 0.5384,-5.09007 0.051,-0.40702 5.8067,0.30777 5.7561,0.71478 z"
       inkscape:connector-curvature="0" />
    <path
       style="fill:#000000;fill-opacity:1;stroke:none;stroke-width:2;stroke-linecap:square;stroke-linejoin:bevel;stroke-miterlimit:4;stroke-dasharray:none;stroke-dashoffset:0;stroke-opacity:1"
       id="path4548"
       d="m -1173.6066,-519.10924 c -0.3914,-0.78908 -0.9659,-1.31403 -1.5681,-1.7854 -1.4143,-0.97 -2.9517,-1.5433 -4.4817,-2.08925 -2.4203,-0.82334 -4.8784,-1.4183 -7.3457,-1.92799 -2.1418,-0.4764 -4.3226,-0.55355 -6.2149,-0.49261 -1.986,0.0708 -3.9114,0.64399 -5.7609,1.5772 -0.8008,0.48535 -1.7239,0.96837 -2.216,2.00129 -0.043,0.3168 0.2589,0.49984 0.4334,0.69664 0.8639,0.98341 1.8818,1.6985 2.8773,2.41578 1.6057,1.17592 3.2578,2.23082 4.9318,3.22206 2.1369,1.25671 4.3307,2.33503 6.5257,3.39693 2.3998,1.09531 4.7585,2.33937 7.1355,3.51735 2.307,1.11227 4.637,2.1297 6.9186,3.33274 2.0738,1.06045 4.0192,2.4672 5.8411,4.14714 1.4362,1.37717 2.5133,3.15013 3.248,5.27406 0.5497,1.81655 0.6266,3.76098 0.5571,5.69177 -0.1179,2.09115 -0.7457,3.97484 -1.5194,5.76855 -0.8452,1.92013 -2.0475,3.44168 -3.35,4.80633 -1.4058,1.42722 -3.0137,2.37168 -4.6749,3.13286 -1.9,0.80858 -3.8678,1.26961 -5.8365,1.66334 -2.7171,0.54626 -5.4647,0.57314 -8.2026,0.34837 -2.3184,-0.18619 -4.6147,-0.68908 -6.892,-1.27744 -2.2151,-0.57096 -4.3395,-1.55669 -6.3949,-2.77438 -1.8708,-1.10064 -3.5163,-2.67835 -5.0873,-4.3932 -1.44,-1.55432 -2.62,-3.44057 -3.6729,-5.45536 -0.8999,-1.77073 -1.5444,-3.73247 -2.3022,-5.60959 -0.4136,-0.93445 -0.2032,-0.46393 -0.6317,-1.4114 -0.158,-0.43169 4.4404,-3.39923 4.5984,-2.96756 l 0,0 c 0.48,1.07093 0.2389,0.52258 0.7224,1.64565 0.6746,1.66714 1.2615,3.40429 2.0768,4.96347 0.8557,1.55575 1.8239,2.9853 2.9763,4.16837 1.2948,1.34517 2.6744,2.51878 4.2044,3.34507 1.7939,0.96267 3.6446,1.71397 5.5561,2.14355 2.1044,0.48322 4.22,0.90084 6.3574,1.01166 1.245,0.0662 2.9532,0.191 4.8468,-0.1732 1.7442,-0.26994 3.486,-0.61808 5.1889,-1.19701 1.2429,-0.44974 2.4601,-0.99487 3.5354,-1.96676 0.9077,-0.81332 1.7628,-1.73788 2.3853,-2.95072 0.4601,-0.98088 0.9167,-1.97083 1.0242,-3.14423 0.053,-0.977 0.07,-1.9935 -0.2078,-2.91906 -0.4428,-1.14975 -1.2088,-1.96951 -2.0009,-2.68534 -1.6149,-1.3496 -3.3338,-2.44527 -5.1247,-3.32339 -2.2816,-1.14199 -4.6009,-2.14279 -6.883,-3.28332 -2.3704,-1.18162 -4.7355,-2.382 -7.1232,-3.5012 -2.2865,-1.13994 -4.5679,-2.30728 -6.7796,-3.6874 -1.7684,-1.10637 -3.513,-2.27989 -5.2063,-3.57885 -1.4908,-1.17546 -2.9823,-2.41747 -4.0265,-4.30304 -1.0242,-2.17127 -1.4545,-4.47386 -0.6438,-6.92178 0.9151,-2.20058 2.2429,-3.83084 3.975,-4.89081 2.2602,-1.35761 4.6346,-2.28749 7.1231,-2.51089 3.243,-0.28252 6.4925,-0.0211 9.6972,0.69292 2.6309,0.59696 5.2545,1.28449 7.8156,2.29481 1.9469,0.81679 3.9021,1.71769 5.5802,3.3063 1.0055,1.04623 1.9244,2.22003 2.5504,3.71928 0.1565,0.42572 -4.3784,3.36342 -4.5349,2.93769 z"
       inkscape:connector-curvature="0" />
    <path
       style="fill:#000000;fill-opacity:1;stroke:#ffffff;stroke-width:3.57399988;stroke-linecap:square;stroke-linejoin:bevel;stroke-miterlimit:4;stroke-dasharray:none;stroke-dashoffset:0;stroke-opacity:1"
       id="path4588"
       d="m -1123.084,-480.69716 c 0.077,-0.005 1.3791,-0.0282 1.2461,-0.0284 -1.5444,-0.003 -2.6371,0.0147 -1.5666,-7.2e-4 0.8511,-0.0251 1.7017,-0.0682 2.5519,-0.11261 0.9089,-0.0238 1.8136,-0.0995 2.7152,-0.21462 1.0923,-0.17487 2.1622,-0.45912 3.2284,-0.74924 1.1056,-0.30453 2.1877,-0.67978 3.2575,-1.09081 1.1131,-0.43681 2.1861,-0.96567 3.2469,-1.51518 1.0876,-0.54979 2.1299,-1.17942 3.1501,-1.8441 1.1127,-0.75401 2.1959,-1.55124 3.2603,-2.3718 1.0441,-0.79493 2.0241,-1.66702 2.9746,-2.57041 0.9877,-0.93371 1.9045,-1.93744 2.801,-2.95783 0.935,-1.07243 1.8086,-2.19553 2.6653,-3.33078 0.8465,-1.13904 1.6544,-2.30628 2.4411,-3.48712 0.7411,-1.11125 1.412,-2.26622 2.0508,-3.43855 0.6417,-1.18522 1.2344,-2.39556 1.7987,-3.61924 0.5788,-1.27458 1.1289,-2.56191 1.6851,-3.84642 0.5622,-1.29437 1.1134,-2.59347 1.6685,-3.89085 0.5701,-1.331 1.1486,-2.65836 1.7212,-3.9883 0.5806,-1.36253 1.1647,-2.72353 1.7489,-4.08455 0.6228,-1.47746 1.3084,-2.92648 2.0221,-4.36182 0.699,-1.41291 1.4617,-2.79274 2.2575,-4.15309 0.7845,-1.3556 1.6798,-2.63995 2.6207,-3.89026 0.9232,-1.22505 1.9568,-2.35825 3.0346,-3.44733 1.0253,-1.0134 2.1262,-1.94609 3.2451,-2.85362 1.0891,-0.88618 2.2535,-1.67089 3.4356,-2.42589 1.1902,-0.77204 2.4649,-1.39284 3.7763,-1.92734 1.2393,-0.50166 2.5419,-0.78881 3.8589,-0.9891 2.0414,-0.34187 4.0456,-0.16271 6.0138,0.36224 1.2025,0.33371 2.3121,0.89676 3.3704,1.5467 1.0127,0.63745 1.8942,1.44457 2.7195,2.30439 0.7457,0.74335 1.3813,1.58213 2.0177,2.41755 0.6504,0.84726 1.2061,1.75905 1.755,2.6734 0.5802,0.96889 1.0821,1.98065 1.5553,3.00511 0.4932,1.07859 0.9081,2.18991 1.298,3.30923 0.3697,1.05765 0.7351,2.11691 1.0917,3.17907 0.3988,1.16787 0.7302,2.35647 1.066,3.54341 0.3425,1.21037 0.6504,2.43007 0.97,3.64657 0.3317,1.23412 0.6224,2.47848 0.9231,3.72033 0.3078,1.24463 0.5986,2.49328 0.8743,3.74539 0.2739,1.24194 0.5744,2.47776 0.8632,3.71626 0.3069,1.25931 0.6151,2.51823 0.9082,3.78082 0.2966,1.29639 0.5978,2.59163 0.8826,3.89068 0.2845,1.25822 0.5664,2.51696 0.8622,3.77257 0.2909,1.20367 0.6187,2.39771 0.9429,3.59267 0.299,1.12326 0.6464,2.23132 1.0505,3.32097 0.3964,1.09428 0.8769,2.15437 1.3847,3.2006 0.5246,1.10381 1.1095,2.17752 1.7232,3.23392 0.5852,1.00036 1.2188,1.96887 1.9107,2.89829 0.6459,0.85627 1.3689,1.64734 2.1303,2.40098 0.7462,0.73745 1.5811,1.37221 2.4197,1.99863 0.8686,0.65157 1.7929,1.21873 2.7415,1.74426 0.9355,0.5036 1.923,0.89083 2.9202,1.25118 1.0132,0.34473 2.0503,0.60084 3.1039,0.78434 1.0824,0.18867 2.1768,0.20732 3.2717,0.21187 1.1782,-0.0331 0.6485,-0.0108 -1.1217,-0.0339 -0.1901,-0.002 0.3802,0.005 0.5703,0.003 0.546,-0.005 0.6269,-0.0175 1.1815,-0.0512 0.611,-0.20608 3.5255,8.43442 2.9145,8.64051 l 0,0 c -2.0427,0.2257 -4.0943,0.36221 -6.151,0.16831 -1.5238,-0.12005 -3.0412,-0.32775 -4.5241,-0.70818 -1.4057,-0.3714 -2.7985,-0.79733 -4.1401,-1.36227 -1.3387,-0.56966 -2.6534,-1.1981 -3.8907,-1.96752 -1.1808,-0.73974 -2.3328,-1.52567 -3.4225,-2.39553 -1.0988,-0.87988 -2.1663,-1.80038 -3.131,-2.82822 -0.9767,-1.04764 -1.909,-2.13652 -2.739,-3.3056 -0.8213,-1.16837 -1.5938,-2.36971 -2.2978,-3.61286 -0.6947,-1.23911 -1.3661,-2.49195 -1.9572,-3.78446 -0.5832,-1.27283 -1.1323,-2.56132 -1.601,-3.88133 -0.4561,-1.29184 -0.8607,-2.60039 -1.215,-3.92393 -0.3443,-1.27522 -0.6868,-2.55103 -0.9995,-3.83447 -0.3063,-1.29494 -0.599,-2.59299 -0.8924,-3.89091 -0.2779,-1.26708 -0.569,-2.53116 -0.857,-3.79595 -0.2947,-1.26302 -0.606,-2.52201 -0.9095,-3.78292 -0.2934,-1.26672 -0.5927,-2.5321 -0.8677,-3.80299 -0.2654,-1.20099 -0.5466,-2.39832 -0.8424,-3.59219 -0.2894,-1.19461 -0.5714,-2.39108 -0.8904,-3.57827 -0.3091,-1.17854 -0.6069,-2.36006 -0.9328,-3.53411 -0.293,-1.06448 -0.589,-2.12858 -0.9461,-3.17381 -0.3436,-1.02864 -0.6901,-2.05636 -1.0508,-3.07909 -0.3108,-0.87898 -0.6412,-1.75176 -1.0384,-2.59602 -0.3699,-0.77829 -0.7645,-1.54493 -1.2152,-2.28009 -0.4066,-0.66834 -0.8388,-1.32046 -1.3277,-1.93221 -0.4373,-0.55957 -0.9001,-1.09787 -1.4211,-1.58221 -0.3846,-0.33588 -0.7937,-0.64427 -1.2678,-0.84412 -0.4578,-0.18496 -0.9325,-0.31857 -1.4281,-0.34932 -0.2694,-0.0148 -0.5328,-0.0219 -0.8023,-3e-5 -0.094,0.008 -0.3774,0.0298 -0.2826,0.029 2.3108,-0.02 2.5413,0.0143 1.6311,-0.0731 -0.7037,-0.0166 -1.4132,0.0387 -2.097,0.21292 -0.8623,0.24474 -1.6958,0.57832 -2.4752,1.02478 -0.9595,0.57294 -1.9044,1.17444 -2.801,1.84237 -0.9304,0.70963 -1.8306,1.45759 -2.699,2.24216 -0.857,0.80685 -1.6777,1.65235 -2.4086,2.5769 -0.7771,0.98511 -1.519,1.9979 -2.1571,3.08024 -0.7176,1.20068 -1.3941,2.42612 -2.0184,3.67809 -0.6587,1.30314 -1.2952,2.61775 -1.8773,3.95719 -0.5926,1.35628 -1.1743,2.71725 -1.7601,4.07648 -0.5733,1.31963 -1.1438,2.64046 -1.7196,3.95903 -0.5609,1.3095 -1.1235,2.61825 -1.6852,3.9274 -0.5766,1.32357 -1.1332,2.65591 -1.7278,3.97154 -0.6197,1.3784 -1.2688,2.74362 -1.9818,4.07662 -0.7274,1.38151 -1.4899,2.74485 -2.336,4.05789 -0.853,1.32172 -1.7381,2.62251 -2.6576,3.89892 -0.955,1.29591 -1.9325,2.57546 -2.9729,3.80453 -1.0316,1.20557 -2.0943,2.3845 -3.2251,3.49859 -1.1227,1.09789 -2.26,2.18294 -3.4887,3.16337 -1.1975,0.95426 -2.4168,1.87991 -3.6742,2.75442 -1.2216,0.84154 -2.4684,1.65051 -3.7777,2.35027 -1.266,0.68234 -2.5336,1.36541 -3.8542,1.9383 -1.281,0.55306 -2.5811,1.06493 -3.9166,1.47225 -1.3156,0.42064 -2.646,0.79662 -3.996,1.09056 -1.2302,0.26515 -2.4761,0.45887 -3.7357,0.50418 -0.885,0.0244 -1.7698,0.0585 -2.6546,0.0916 -1.4349,0.0548 -2.8713,0.0467 -4.3063,0.004 -0.6067,-0.15579 1.5964,-8.73639 2.2031,-8.5806 z"
       inkscape:connector-curvature="0" />
  </g>
</svg>
